<svg xmlns="http://www.w3.org/2000/svg" viewBox="0 0 923.9351 340.1575"><defs><style>.cls-1,.cls-2{fill:#d0d0d0;}.cls-1,.cls-3,.cls-7{fill-rule:evenodd;}.cls-3,.cls-4{fill:none;stroke-miterlimit:10;stroke-width:2px;}.cls-3{stroke:#b08a71;}.cls-4{stroke:#d0d0d0;}.cls-5{fill:#9d9d9c;}.cls-6{fill:#fbe100;}.cls-7{fill:#406d29;}</style></defs><g id="archeologie_GIS_" data-name="archeologie (GIS)"><polygon class="cls-1" points="15.478 132.119 14.409 131.763 14.409 136.801 14.814 136.769 15.921 134.334 15.478 132.119"/><polygon class="cls-1" points="23.45 128.133 22.785 123.926 33.636 123.926 32.971 132.341 30.535 134.334 27.214 134.776 24.114 132.783 23.45 128.133"/><polygon class="cls-1" points="43.821 140.091 44.486 138.32 45.593 138.32 45.814 140.091 43.821 140.091"/><polygon class="cls-1" points="46.921 136.991 48.029 135.441 48.471 135.441 48.914 136.769 48.25 137.877 46.921 136.991"/><polygon class="cls-1" points="48.471 138.098 48.693 137.212 49.357 137.212 48.471 138.32 48.471 138.098"/><polygon class="cls-1" points="53.564 131.676 53.343 125.919 54.45 125.033 54.672 131.455 53.564 131.676"/><polygon class="cls-1" points="63.972 138.984 64.636 138.098 65.965 138.984 65.743 139.427 65.079 139.427 64.636 139.427 63.972 138.984"/><polygon class="cls-1" points="90.322 126.804 90.101 125.919 91.43 125.697 91.43 126.14 90.987 126.583 90.322 126.804"/><polygon class="cls-1" points="100.951 140.534 100.73 137.655 101.837 137.655 102.058 140.534 100.951 140.534"/><polygon class="cls-1" points="97.187 135.884 96.744 134.776 98.073 134.334 98.294 134.998 97.187 135.884"/><polygon class="cls-1" points="102.501 140.534 102.058 139.205 104.273 138.541 104.716 139.87 102.501 140.534"/><polygon class="cls-1" points="103.166 138.541 103.166 138.098 103.83 137.877 103.83 138.541 103.166 138.541"/><polygon class="cls-1" points="104.494 134.334 104.494 132.341 106.266 132.341 106.266 134.112 104.494 134.334"/><polygon class="cls-1" points="106.266 132.341 106.93 131.012 108.48 130.348 109.809 130.348 111.58 131.012 112.023 132.341 111.359 133.669 110.251 134.334 108.701 134.334 107.373 134.334 106.266 134.112 106.266 132.341"/><polygon class="cls-1" points="108.923 140.091 109.587 139.205 111.359 140.091 108.923 140.091"/><polygon class="cls-1" points="109.144 141.641 109.144 140.091 109.587 140.091 110.03 140.313 110.251 140.313 110.694 140.091 110.473 141.641 109.144 141.641"/><polygon class="cls-1" points="110.915 142.306 110.694 140.313 112.466 140.313 112.687 141.863 110.915 142.306"/><polygon class="cls-1" points="109.587 141.641 109.587 141.198 112.687 141.42 112.908 141.42 113.13 142.748 112.687 142.97 109.809 142.748 109.587 141.641"/><polygon class="cls-1" points="112.244 139.648 112.244 139.205 113.13 139.205 113.573 139.427 113.573 139.87 113.351 140.313 112.908 140.534 112.244 139.648"/><polygon class="cls-1" points="113.573 140.534 113.794 139.427 114.016 139.427 114.459 139.427 114.459 139.648 114.68 139.648 114.68 140.313 114.459 140.534 113.573 140.534"/><polygon class="cls-1" points="115.787 141.198 115.566 139.87 116.23 139.648 117.116 139.648 117.78 139.648 117.78 140.977 116.008 141.198 115.787 141.198"/><polygon class="cls-1" points="116.23 139.648 115.566 139.87 115.566 140.091 115.123 140.091 114.902 139.87 114.68 139.427 115.123 138.762 115.787 138.984 116.23 139.648"/><polygon class="cls-1" points="118.223 140.091 118.223 139.427 119.995 139.427 119.995 139.648 118.666 140.755 118.223 140.091"/><polygon class="cls-1" points="118.666 136.327 118.887 135.219 119.33 134.998 119.552 134.998 119.995 134.998 120.216 135.441 120.216 135.884 119.773 136.327 119.552 136.548 119.552 136.327 119.109 136.548 118.666 136.327"/><polygon class="cls-1" points="121.101 140.755 121.101 139.87 121.766 139.427 122.209 139.648 122.43 139.87 122.652 140.091 122.209 140.755 121.323 141.198 121.101 140.977 121.101 140.755"/><polygon class="cls-1" points="132.838 136.548 133.28 130.79 138.816 130.79 138.816 135.884 132.838 136.548"/><polygon class="cls-1" points="135.938 146.513 135.716 145.627 138.152 145.627 138.152 146.513 135.938 146.513"/><polygon class="cls-1" points="138.152 146.513 138.152 145.627 139.702 145.627 139.259 146.513 138.152 146.513"/><polygon class="cls-1" points="141.695 138.32 141.695 138.098 142.802 137.212 143.466 137.212 143.909 137.877 144.13 138.541 143.909 138.984 142.138 138.984 141.695 138.32"/><polygon class="cls-1" points="144.795 130.569 145.459 123.483 152.324 123.704 151.881 131.898 150.552 135.884 148.781 135.662 146.788 134.334 144.795 130.569"/><polygon class="cls-1" points="156.752 127.69 156.974 123.926 158.967 123.704 158.081 128.133 158.081 131.898 157.195 136.105 156.309 136.105 156.752 131.676 156.752 127.69"/><polygon class="cls-1" points="159.409 139.87 158.524 139.205 159.852 137.877 160.517 137.655 161.181 138.098 159.409 139.87"/><polygon class="cls-1" points="160.517 139.87 161.624 136.769 162.288 136.991 161.402 140.091 160.517 139.87"/><polygon class="cls-1" points="158.745 137.434 158.524 136.991 160.295 136.548 160.517 137.655 159.852 137.877 159.409 137.655 158.745 137.434"/><polygon class="cls-1" points="159.409 136.105 159.409 134.334 159.409 133.669 159.631 133.669 160.517 134.334 160.738 133.891 160.517 133.448 160.738 133.448 161.402 135.662 159.409 136.105"/><polygon class="cls-1" points="161.181 134.334 160.517 131.455 162.509 131.012 162.952 132.562 162.288 134.112 161.181 134.334"/><polygon class="cls-1" points="159.409 131.012 159.188 129.462 161.624 129.462 161.624 131.233 159.852 131.455 159.852 131.233 159.409 131.012"/><polygon class="cls-1" points="168.71 139.205 168.71 138.541 169.153 137.877 170.703 137.877 171.588 139.205 169.153 139.648 168.71 139.205"/><polygon class="cls-1" points="171.588 138.984 172.031 137.212 173.138 137.434 173.138 139.205 171.588 138.984"/><polygon class="cls-1" points="168.931 136.991 169.153 136.548 170.481 136.769 170.481 137.434 169.817 137.655 169.153 137.655 168.931 136.991"/><polygon class="cls-1" points="168.045 136.991 168.045 136.327 168.267 136.105 168.488 136.105 169.153 136.327 168.71 137.212 168.267 137.212 168.045 136.991"/><polygon class="cls-1" points="169.153 135.662 168.488 134.776 169.374 134.334 170.038 134.998 170.038 135.219 169.595 135.662 169.153 135.662"/><polygon class="cls-1" points="170.038 136.548 169.595 135.884 169.595 135.662 170.038 135.219 170.038 134.998 170.924 136.105 170.481 136.548 170.038 136.548"/><polygon class="cls-1" points="166.053 131.233 166.274 131.012 166.717 131.012 166.938 131.012 167.16 130.79 167.381 131.676 167.16 132.119 166.717 132.562 166.274 132.341 165.831 131.676 166.053 131.233"/><polygon class="cls-1" points="175.353 135.884 174.91 123.04 181.553 123.04 180.445 139.648 175.131 138.541 175.353 135.884"/><polygon class="cls-1" points="180.224 135.662 180.667 133.669 181.553 133.669 181.332 135.219 181.11 135.662 180.224 135.662"/><polygon class="cls-1" points="180.003 126.362 179.339 124.369 181.11 123.926 181.553 123.926 182.438 125.476 181.553 125.919 180.003 126.362"/><polygon class="cls-1" points="181.11 135.662 181.332 135.219 181.332 135.441 182.217 135.884 181.774 136.327 181.553 136.327 180.889 137.212 180.445 136.991 180.667 136.769 181.11 135.884 181.11 135.662"/><polygon class="cls-1" points="172.474 176.187 172.917 175.522 173.36 175.522 173.803 176.851 173.138 177.072 172.695 176.851 172.474 176.187"/><polygon class="cls-1" points="175.131 172.201 175.131 171.979 176.017 171.758 176.239 172.422 175.796 172.865 175.131 172.201"/><polygon class="cls-1" points="174.024 170.65 174.246 169.765 174.688 169.543 175.131 169.543 175.131 171.093 174.91 171.315 174.467 171.093 174.024 170.65"/><polygon class="cls-1" points="173.36 177.737 173.581 177.072 174.246 176.851 174.91 177.737 174.024 178.844 173.803 179.065 173.36 178.622 173.36 177.737"/><polygon class="cls-1" points="174.467 180.394 174.246 179.287 174.467 179.065 174.91 178.844 175.131 179.065 175.353 179.065 175.353 179.73 175.131 180.173 174.91 180.394 174.467 180.394"/><polygon class="cls-1" points="173.803 176.408 173.803 175.301 174.246 175.079 175.353 175.301 175.131 176.408 174.246 176.629 174.024 176.408 173.803 176.408"/><polygon class="cls-1" points="173.581 174.636 174.024 173.529 174.467 173.529 174.91 173.972 174.91 174.194 174.467 174.636 174.024 174.858 173.581 174.636"/><polygon class="cls-1" points="174.688 172.643 174.688 172.422 174.91 172.422 175.796 173.086 175.131 173.751 174.467 173.308 174.688 172.643"/><polygon class="cls-1" points="170.038 168.215 170.26 167.55 170.924 167.107 171.588 167.107 171.81 167.329 172.252 167.55 172.474 167.772 172.695 168.436 172.252 169.1 171.588 169.543 170.924 169.765 170.26 169.1 170.038 168.215"/><polygon class="cls-1" points="164.502 167.329 164.502 166.886 165.388 166.886 165.388 167.107 165.167 167.329 164.502 167.329"/><polygon class="cls-1" points="172.031 163.564 172.252 163.121 174.688 163.564 174.91 163.786 174.91 164.007 174.91 164.671 172.474 164.007 172.031 163.564"/><polygon class="cls-1" points="173.803 162.9 173.803 162.236 174.688 162.678 174.688 163.121 174.467 163.343 173.803 163.121 173.803 162.9"/><polygon class="cls-1" points="174.688 163.564 174.688 162.678 175.353 162.678 175.353 163.121 175.353 163.786 174.688 163.564"/><rect class="cls-2" x="175.0641" y="161.9471" width="0.7985" height="0.7984" transform="translate(-56.9402 218.3132) rotate(-56.3164)"/><polygon class="cls-1" points="154.538 179.508 154.538 179.065 155.202 178.844 155.645 179.065 155.867 179.73 155.645 180.394 155.424 180.394 154.538 179.508"/><polygon class="cls-1" points="151.216 177.515 151.216 176.851 151.438 176.629 153.431 176.408 153.431 177.515 151.216 177.515"/><polygon class="cls-1" points="159.409 164.45 159.188 164.007 159.852 163.121 160.074 163.343 160.295 163.786 159.631 164.229 159.409 164.45"/><polygon class="cls-1" points="158.967 163.786 159.188 163.564 159.409 163.564 159.188 164.007 158.967 163.786"/><rect class="cls-2" x="160.1386" y="163.1862" width="0.3132" height="0.3132" transform="translate(-68.5502 161.0641) rotate(-44.969)"/><polygon class="cls-1" points="171.146 180.173 171.367 179.73 171.588 179.508 172.252 179.508 172.252 179.951 172.474 180.394 171.588 181.058 171.367 180.615 171.367 180.394 171.146 180.173"/><polygon class="cls-1" points="172.474 173.972 172.695 173.529 173.36 173.086 173.581 173.308 173.803 173.751 173.581 174.636 172.917 174.858 172.474 173.972"/><polygon class="cls-1" points="171.588 172.643 171.588 170.872 172.031 170.208 172.474 170.65 172.917 171.536 173.138 172.865 172.917 173.086 171.81 172.865 171.588 172.643"/><polygon class="cls-1" points="147.231 167.107 147.009 166.222 147.674 165.779 148.559 165.779 149.002 166.222 148.559 166.886 148.117 167.107 147.231 167.107"/><polygon class="cls-1" points="146.345 165.779 146.345 164.671 147.009 164.45 147.452 164.893 147.895 165.557 147.009 166 146.345 165.779"/><polygon class="cls-1" points="144.795 164.893 145.016 164.45 146.123 164.893 146.123 165.557 145.902 166 145.238 166 144.795 164.893"/><polygon class="cls-1" points="143.245 165.779 143.688 165.114 144.573 165.557 143.909 166.222 143.245 165.779"/><polygon class="cls-1" points="143.909 164.893 144.13 164.229 144.352 164.229 144.573 164.45 144.573 164.671 144.573 164.893 143.909 164.893"/><polygon class="cls-1" points="143.024 163.343 143.245 162.9 143.909 162.457 144.352 163.121 144.352 163.564 144.13 163.786 143.466 164.007 143.245 164.229 142.802 163.786 143.024 163.343"/><polygon class="cls-1" points="142.802 165.779 142.359 164.671 142.802 164.229 143.245 164.229 143.688 164.671 143.688 165.114 143.245 165.779 142.802 165.779"/><polygon class="cls-1" points="160.517 162.236 154.538 162.014 154.759 162.457 153.652 162.457 153.652 161.128 160.96 161.128 160.517 162.236"/><polygon class="cls-1" points="141.916 162.457 141.695 161.793 142.359 161.571 142.581 162.457 141.916 162.457"/><polygon class="cls-1" points="141.031 166.664 141.473 166.222 141.252 167.107 141.031 167.107 141.031 166.664"/><polygon class="cls-1" points="126.416 166.443 126.194 165.779 126.637 165.557 127.08 165.336 127.523 165.779 127.523 166 127.302 166.886 126.859 166.886 126.416 166.443"/><polygon class="cls-1" points="125.53 166.443 125.53 166 125.973 165.779 126.416 165.557 126.416 166.222 126.194 166.443 125.53 166.443"/><polygon class="cls-1" points="125.752 165.114 125.752 164.893 126.637 164.45 126.859 164.671 127.08 165.114 126.637 165.557 125.973 165.557 125.752 165.114"/><polygon class="cls-1" points="122.652 166.222 122.873 165.557 125.087 164.671 125.752 164.893 125.752 166 123.094 167.107 122.652 166.222"/><polygon class="cls-1" points="57.329 180.394 55.336 179.73 56 178.844 56.886 179.287 57.329 179.73 57.329 180.394"/><polygon class="cls-1" points="51.129 181.944 50.907 181.28 51.572 180.837 52.014 182.166 51.129 181.944"/><polygon class="cls-1" points="114.902 167.329 115.123 166.443 115.566 166.222 116.23 166.886 115.566 167.772 114.902 167.329"/><polygon class="cls-1" points="113.13 165.336 112.466 164.671 112.908 164.229 113.351 164.671 113.351 165.114 113.13 165.336"/><polygon class="cls-1" points="112.244 168.657 112.244 168.436 112.687 167.993 113.351 167.993 113.351 168.657 113.13 168.879 112.244 168.657"/><polygon class="cls-1" points="39.614 181.058 39.171 180.173 40.057 179.73 40.721 180.173 40.721 180.615 40.057 180.837 39.614 181.058"/><polygon class="cls-1" points="108.037 171.093 108.258 170.65 108.701 170.65 108.701 170.872 108.258 171.315 108.037 171.093"/><polygon class="cls-1" points="45.372 136.105 45.593 135.884 45.814 135.662 46.257 135.662 46.7 135.884 46.921 135.884 46.921 136.105 46.7 136.327 46.479 136.327 45.814 136.548 45.593 136.327 45.372 136.105"/><polygon class="cls-1" points="120.437 142.527 119.995 141.863 120.659 141.641 121.101 141.863 120.88 142.527 120.437 142.527"/><polygon class="cls-1" points="137.488 136.769 137.266 136.548 138.595 135.884 138.595 136.548 138.152 136.769 137.488 136.991 137.488 136.769"/><polygon class="cls-1" points="139.923 136.548 140.145 135.219 140.809 135.441 141.031 135.884 141.252 136.327 141.031 136.548 139.923 136.548"/><polygon class="cls-1" points="155.645 147.399 155.645 147.177 156.309 146.956 156.974 147.177 157.195 147.399 155.645 147.399"/><polygon class="cls-1" points="102.058 138.984 102.28 138.541 103.608 138.541 104.273 138.541 104.273 140.091 102.058 140.091 102.058 138.984"/><polygon class="cls-1" points="143.909 146.292 143.245 145.184 143.466 144.963 143.909 144.963 144.795 145.406 144.573 145.849 143.909 146.292"/><polygon class="cls-1" points="196.293 137.15 195.629 135.6 196.515 135.157 197.179 136.043 197.179 136.707 196.293 137.15"/><polygon class="cls-1" points="197.622 138.478 197.401 136.707 198.951 136.707 198.729 138.478 197.622 138.478"/><polygon class="cls-1" points="194.744 146.008 194.301 142.686 210.687 141.357 212.015 149.329 196.293 147.779 194.744 146.008"/><polygon class="cls-1" points="202.937 148.886 203.158 148.665 203.601 148.886 202.937 148.886"/><polygon class="cls-1" points="210.466 134.492 210.466 131.614 214.23 131.392 214.451 134.271 210.466 134.492"/><polygon class="cls-1" points="213.787 144.679 211.351 143.35 211.794 142.907 212.015 142.464 212.237 142.464 214.451 141.357 214.672 143.35 213.787 144.679"/><polygon class="cls-1" points="212.237 146.008 212.458 144.9 213.565 144.679 214.008 145.786 212.237 146.008"/><polygon class="cls-1" points="214.008 145.786 213.787 144.9 214.672 144.679 214.672 145.343 214.008 145.786"/><polygon class="cls-1" points="216.001 143.572 215.559 142.686 216.223 142.243 216.665 143.129 216.665 143.572 216.001 143.572"/><polygon class="cls-1" points="216.665 144.015 217.33 143.129 218.216 142.907 218.437 143.793 217.33 144.679 216.665 144.015"/><polygon class="cls-1" points="219.101 142.243 219.323 141.579 220.43 144.015 219.765 144.236 219.544 143.572 219.101 142.243"/><polygon class="cls-1" points="220.208 146.008 217.773 144.9 218.88 143.572 220.651 144.015 220.208 146.008"/><polygon class="cls-1" points="227.737 126.963 227.516 126.078 229.508 125.192 229.951 125.635 229.951 126.078 227.737 126.963"/><polygon class="cls-1" points="226.851 136.707 227.737 135.157 229.73 136.264 229.066 137.814 226.851 136.707"/><polygon class="cls-1" points="252.095 139.364 252.316 137.593 253.866 138.036 253.645 139.586 252.095 139.364"/><polygon class="cls-1" points="244.787 84.889 244.345 81.346 248.33 80.239 248.552 83.782 244.787 84.889"/><polygon class="cls-1" points="245.452 84.667 243.902 83.56 245.452 82.674 246.116 83.339 245.452 84.667"/><polygon class="cls-1" points="241.909 152.872 241.023 152.208 243.016 151.765 243.237 152.208 242.13 152.872 241.909 152.872"/><polygon class="cls-1" points="244.345 150.879 244.566 149.994 245.895 149.772 245.452 151.322 244.345 150.879"/><polygon class="cls-1" points="246.116 149.329 246.338 148.222 247.445 148.443 247.002 149.329 246.116 149.329"/><polygon class="cls-1" points="246.78 149.772 247.445 148.886 248.552 149.108 248.552 149.994 248.33 150.658 246.78 150.436 246.78 149.772"/><polygon class="cls-1" points="265.159 151.765 265.381 151.101 265.823 150.879 265.823 151.765 265.159 151.765"/><polygon class="cls-1" points="265.381 152.208 265.602 151.765 266.045 151.322 266.709 151.765 266.709 152.429 265.602 152.651 265.381 152.208"/><polygon class="cls-1" points="268.481 153.758 267.595 151.987 268.702 151.322 269.367 152.208 268.481 153.758"/><polygon class="cls-1" points="276.674 150.879 277.117 149.994 277.781 149.772 278.002 150.215 277.56 151.101 276.674 150.879"/><polygon class="cls-1" points="277.56 151.765 278.002 149.994 279.996 150.436 279.331 152.208 277.56 151.765"/><polygon class="cls-1" points="279.331 150.215 279.331 149.994 280.438 149.329 280.66 149.772 280.438 150.215 279.331 150.215"/><polygon class="cls-1" points="281.102 152.429 280.217 151.544 281.324 151.544 281.545 151.765 281.102 152.429"/><polygon class="cls-1" points="280.438 151.322 280.66 150.436 283.095 148.443 282.653 151.987 280.438 151.322"/><polygon class="cls-1" points="281.102 155.973 279.996 155.308 281.324 153.758 282.21 154.422 281.102 155.973"/><rect class="cls-2" x="283.0955" y="149.1078" width="0.4428" height="0.8858"/><polygon class="cls-1" points="283.538 149.551 283.76 148.886 285.531 148.222 286.195 148.886 286.417 149.551 286.195 150.215 283.981 149.994 283.538 149.551"/><polygon class="cls-1" points="285.405 152.588 286.069 151.48 286.955 151.038 287.841 152.145 287.176 153.031 285.405 152.588"/><polygon class="cls-1" points="289.068 138.808 290.619 135.486 293.054 136.15 291.504 139.915 289.068 138.808"/><polygon class="cls-1" points="291.232 150.343 290.789 149.014 292.118 149.014 292.118 150.121 291.232 150.343"/><polygon class="cls-1" points="295.661 150.343 295.44 149.679 296.104 149.679 296.325 150.564 295.661 150.343"/><polygon class="cls-1" points="293.225 153.222 293.668 151.893 294.554 151.672 295.661 152.114 295.218 153.222 293.225 153.222"/><polygon class="cls-1" points="301.026 151.329 301.69 150.222 302.797 150.444 302.797 151.772 302.133 152.437 301.026 152.437 301.026 151.329"/><polygon class="cls-1" points="304.569 151.551 303.683 150.665 304.347 149.779 305.454 150.665 304.569 151.551"/><polygon class="cls-1" points="304.79 150.001 305.011 149.558 305.676 149.779 305.454 150.222 304.79 150.001"/><polygon class="cls-1" points="305.454 151.994 305.897 149.558 307.226 150.001 306.783 152.215 305.454 151.994"/><polygon class="cls-1" points="305.233 151.772 304.79 151.551 305.233 150.886 305.676 151.108 305.233 151.772"/><polygon class="cls-1" points="314.312 151.108 313.869 151.108 313.204 150.001 314.09 149.336 314.755 150.444 314.755 150.222 314.976 150.665 314.312 151.108"/><polygon class="cls-1" points="319.405 154.651 318.297 153.322 320.29 152.658 320.955 153.987 319.405 154.651"/><polygon class="cls-1" points="321.619 154.43 320.955 153.101 323.612 152.658 323.833 154.43 321.619 154.43"/><polygon class="cls-1" points="285.304 133.715 288.404 121.757 296.818 122.421 291.947 134.157 285.304 133.715"/><polygon class="cls-1" points="308.112 139.593 305.454 130.957 310.99 129.849 313.869 137.378 308.112 139.593"/><polygon class="cls-1" points="339.112 154.208 340.219 150.001 354.391 150.001 353.948 155.537 339.112 154.208"/><polygon class="cls-1" points="361.578 157.459 361.578 156.574 363.792 156.795 363.792 157.681 361.578 157.459"/><polygon class="cls-1" points="363.792 157.681 363.792 156.795 365.564 156.574 365.564 157.902 363.792 157.681"/><polygon class="cls-1" points="365.564 157.902 365.564 156.574 366.671 156.795 366.671 157.902 365.564 157.902"/><rect class="cls-2" x="366.6709" y="156.7952" width="1.1069" height="1.1072"/><polygon class="cls-1" points="367.694 157.693 367.694 156.586 374.558 157.029 374.337 158.136 367.694 157.693"/><polygon class="cls-1" points="374.337 158.136 374.558 157.029 375.887 157.25 375.887 158.357 374.337 158.136"/><polygon class="cls-1" points="375.887 158.357 375.887 157.25 385.409 158.357 385.409 159.243 375.887 158.357"/><polygon class="cls-1" points="385.409 159.243 385.409 158.357 386.516 158.357 386.295 159.465 385.409 159.243"/><polygon class="cls-1" points="386.295 159.465 386.516 158.357 387.844 158.357 388.066 159.243 386.295 159.465"/><polygon class="cls-1" points="388.066 159.243 387.844 158.357 388.73 158.357 388.509 159.243 388.066 159.243"/><polygon class="cls-1" points="386.516 161.9 386.073 161.236 386.737 161.015 387.18 161.458 386.516 161.9"/><polygon class="cls-1" points="387.18 161.679 386.959 160.793 387.401 161.015 387.401 161.458 387.18 161.679"/><polygon class="cls-1" points="362.363 147.565 354.613 133.614 360.149 131.621 365.906 145.793 362.363 147.565"/><polygon class="cls-1" points="378.766 150.828 379.651 134.441 386.737 132.891 392.273 140.199 389.395 150.164 378.766 150.828"/><polygon class="cls-1" points="380.98 146.399 381.423 140.199 387.623 139.535 386.959 146.842 380.98 146.399"/><polygon class="cls-1" points="393.38 162.343 393.602 161.236 394.266 161.458 394.487 162.122 393.823 162.565 393.38 162.343"/><polygon class="cls-1" points="398.252 156.807 396.923 155.921 397.809 155.036 399.138 155.921 398.252 156.807"/><polygon class="cls-1" points="397.809 155.257 398.03 154.15 398.695 154.371 398.695 155.257 397.809 155.257"/><polygon class="cls-1" points="394.487 154.593 394.266 153.707 394.266 153.486 394.266 152.378 394.93 151.714 395.373 152.157 395.595 153.264 395.816 153.264 396.038 154.371 394.487 154.593"/><polygon class="cls-1" points="400.466 162.343 401.352 155.036 423.938 155.7 424.603 163.008 400.466 162.343"/><polygon class="cls-1" points="407.331 160.793 407.109 159.243 407.773 159.686 408.881 159.686 408.881 160.793 407.331 160.793"/><polygon class="cls-1" points="408.881 161.236 408.881 159.243 411.095 159.465 411.316 160.572 410.873 161.236 408.881 161.236"/><polygon class="cls-1" points="409.324 159.243 409.766 158.8 410.209 158.579 410.652 158.8 410.652 159.022 410.652 159.465 409.324 159.243"/><polygon class="cls-1" points="411.095 160.35 411.538 159.686 412.866 159.686 412.645 160.572 411.095 160.35"/><rect class="cls-2" x="412.5264" y="160.2318" width="1.5658" height="1.5657" transform="translate(195.4121 547.3709) rotate(-81.8625)"/><polygon class="cls-1" points="413.309 157.693 413.531 156.807 414.417 157.472 413.309 157.693"/><polygon class="cls-1" points="417.517 156.586 417.738 155.921 419.067 156.143 418.624 156.807 417.517 156.586"/><polygon class="cls-1" points="410.431 152.821 410.431 152.157 411.095 152.157 411.538 152.6 411.095 153.264 410.431 152.821"/><polygon class="cls-1" points="412.424 153.486 411.759 152.157 413.309 152.157 413.531 153.043 412.424 153.486"/><polygon class="cls-1" points="404.452 145.735 404.231 142.635 420.616 142.856 420.395 154.814 416.852 155.257 417.295 146.178 404.452 145.735"/><polygon class="cls-1" points="398.695 148.171 397.809 141.306 400.909 141.085 401.795 147.728 398.695 148.171"/><polygon class="cls-1" points="388.509 131.563 387.844 128.905 430.36 129.791 429.031 132.67 388.509 131.563"/><polygon class="cls-1" points="419.51 139.756 419.51 138.87 420.616 138.427 421.059 138.87 420.838 139.756 419.51 139.756"/><polygon class="cls-1" points="428.588 158.357 429.031 133.777 438.331 135.327 437.446 156.807 428.588 158.357"/><polygon class="cls-1" points="442.539 126.912 442.539 125.584 444.088 125.805 444.088 127.134 442.539 126.912"/><polygon class="cls-1" points="444.531 126.912 444.31 126.469 444.974 125.805 445.196 127.134 444.531 126.912"/><polygon class="cls-1" points="445.417 128.462 445.196 125.805 446.303 125.805 446.524 128.241 445.417 128.462"/><polygon class="cls-1" points="446.524 127.134 446.524 126.469 447.189 126.691 446.967 127.577 446.524 127.134"/><polygon class="cls-1" points="444.531 135.106 445.86 130.012 455.382 131.563 455.825 136.434 444.531 135.106"/><polygon class="cls-1" points="445.196 140.42 445.196 139.756 445.639 139.535 445.639 139.756 446.746 139.756 446.746 140.199 445.196 140.42"/><polygon class="cls-1" points="445.639 137.763 445.639 137.542 446.746 137.542 446.746 139.756 445.639 139.756 445.639 139.535 445.639 137.763"/><polygon class="cls-1" points="444.974 145.071 444.974 140.642 446.967 140.42 447.41 144.849 444.974 145.071"/><polygon class="cls-1" points="438.11 152.6 438.553 147.728 447.189 147.507 446.967 151.493 438.11 152.6"/><polygon class="cls-1" points="448.517 151.271 448.96 150.828 449.403 150.385 449.403 151.271 448.517 151.271"/><polygon class="cls-1" points="458.703 147.507 457.374 146.621 457.817 146.178 458.26 146.399 459.146 147.064 458.703 147.507"/><polygon class="cls-1" points="464.017 125.584 464.017 125.141 464.46 124.919 464.46 125.584 464.46 128.241 464.46 129.57 464.903 129.57 464.903 130.012 464.017 129.791 464.017 125.584"/><polygon class="cls-1" points="465.568 130.455 465.568 128.905 466.453 128.905 466.896 128.905 467.117 130.234 466.675 130.234 465.568 130.455"/><polygon class="cls-1" points="465.568 147.507 465.789 146.842 466.453 146.842 466.453 147.507 466.232 147.728 465.568 147.507"/><polygon class="cls-1" points="465.789 156.807 465.346 148.171 468.668 148.614 469.996 156.807 465.789 156.807"/><polygon class="cls-1" points="468.668 156.586 468.446 156.143 470.882 156.364 470.882 157.029 468.668 156.586"/><polygon class="cls-1" points="356.743 141.819 356.522 140.934 379.329 132.297 379.329 133.404 356.743 141.819"/><polygon class="cls-1" points="472.21 161.236 471.989 160.793 472.432 160.35 472.653 160.35 473.096 160.793 472.21 161.236"/><polygon class="cls-1" points="474.203 157.029 473.539 157.029 473.982 156.586 474.203 156.807 474.203 157.029"/><polygon class="cls-1" points="475.089 156.143 474.425 155.921 474.868 155.479 475.089 156.143"/><polygon class="cls-1" points="476.418 157.029 475.532 156.586 476.639 156.143 476.418 157.029"/><polygon class="cls-1" points="472.653 151.05 472.875 150.607 473.318 150.828 473.096 151.05 472.653 151.05"/><polygon class="cls-1" points="471.989 149.278 471.989 148.835 472.653 148.392 473.318 149.057 473.096 149.5 471.989 149.278"/><polygon class="cls-1" points="473.318 147.507 473.318 147.064 473.761 147.064 473.982 147.949 473.318 147.507"/><polygon class="cls-1" points="472.653 147.064 472.653 146.621 472.875 146.399 473.318 146.621 472.875 147.064 472.653 147.064"/><polygon class="cls-1" points="473.982 146.399 473.318 145.956 473.539 145.514 474.203 145.956 473.982 146.399"/><polygon class="cls-1" points="469.996 135.549 469.775 132.67 480.403 132.005 480.403 134.441 469.996 135.549"/><polygon class="cls-1" points="479.075 155.921 479.296 153.928 493.247 152.821 491.918 155.479 479.075 155.921"/><polygon class="cls-1" points="482.839 152.157 482.618 152.157 483.061 151.714 482.839 152.157"/><polygon class="cls-1" points="484.611 145.956 484.611 142.856 493.911 143.521 493.69 145.514 484.611 145.956"/><polygon class="cls-1" points="486.161 138.206 484.832 128.905 499.89 130.012 500.332 137.763 486.161 138.206"/><polygon class="cls-1" points="489.482 137.984 489.482 136.656 491.918 136.656 492.14 137.542 491.475 138.206 490.811 138.206 490.811 137.984 489.482 137.984"/><polygon class="cls-1" points="494.354 148.614 494.133 147.064 494.797 147.064 495.239 147.728 495.018 148.614 494.354 148.614"/><polygon class="cls-1" points="492.361 156.807 492.361 155.921 493.025 155.479 493.911 155.7 494.133 156.807 493.69 157.472 492.804 157.472 492.361 156.807"/><polygon class="cls-1" points="500.111 155.921 500.111 155.479 500.554 155.036 500.997 155.479 500.332 156.143 500.111 155.921"/><polygon class="cls-1" points="501.483 154.601 501.262 153.494 508.348 152.829 508.569 153.937 501.483 154.601"/><polygon class="cls-1" points="502.147 155.265 502.147 154.822 502.59 154.822 502.812 155.265 502.147 155.265"/><polygon class="cls-1" points="502.147 156.151 502.369 155.487 502.59 155.487 503.698 155.487 503.255 156.594 502.147 156.594 502.147 156.151"/><polygon class="cls-1" points="503.698 156.372 503.698 155.487 504.805 154.822 505.026 154.822 505.248 156.372 503.698 156.372"/><polygon class="cls-1" points="505.248 156.372 505.026 154.822 506.133 154.822 506.133 156.594 505.248 156.372"/><polygon class="cls-1" points="502.369 156.372 502.147 155.708 503.698 155.708 503.476 156.372 502.369 156.372"/><polygon class="cls-1" points="503.919 156.151 503.919 155.708 505.691 155.044 505.912 155.265 505.912 156.372 505.026 156.815 504.583 156.815 503.919 156.151"/><polygon class="cls-1" points="502.812 155.708 502.59 154.379 504.362 154.158 504.805 155.265 502.812 155.708"/><polygon class="cls-1" points="502.59 153.051 502.59 142.864 505.912 144.193 505.912 152.608 502.59 153.051"/><polygon class="cls-1" points="502.147 138.435 502.147 132.235 506.797 132.456 505.469 139.1 502.147 138.435"/><polygon class="cls-1" points="513.884 140.871 514.105 132.235 525.619 131.571 524.512 141.314 513.884 140.871"/><polygon class="cls-1" points="514.99 138.435 515.655 137.107 516.762 137.55 517.426 138.214 516.541 139.764 514.99 138.435"/><polygon class="cls-1" points="511.448 146.186 511.005 144.636 539.127 145.522 539.127 147.293 511.448 146.186"/><polygon class="cls-1" points="522.298 155.044 521.855 151.944 543.998 149.729 543.555 152.829 522.298 155.044"/><polygon class="cls-1" points="523.405 155.487 523.184 155.265 524.512 155.044 524.512 155.265 523.405 155.487"/><polygon class="cls-1" points="528.277 149.729 528.72 148.843 529.384 149.286 528.277 149.729"/><polygon class="cls-1" points="530.269 149.729 530.048 149.286 530.934 148.622 531.598 149.286 531.82 149.951 530.491 150.393 530.048 149.951 530.269 149.729"/><polygon class="cls-1" points="529.605 141.757 529.827 141.536 530.491 141.536 531.377 141.979 530.934 142.864 529.605 141.757"/><polygon class="cls-1" points="530.934 141.757 531.155 139.986 533.591 140.207 533.591 141.979 530.934 141.757"/><polygon class="cls-1" points="532.041 139.986 532.041 139.321 532.927 139.321 532.705 139.986 532.041 139.986"/><polygon class="cls-1" points="532.041 139.321 532.262 138.435 533.148 138.657 533.148 139.321 532.041 139.321"/><polygon class="cls-1" points="533.813 141.979 533.591 141.314 534.477 141.314 534.477 142.2 533.813 141.979"/><polygon class="cls-1" points="531.377 136.442 530.934 134.449 533.37 134.228 533.591 136.221 531.377 136.442"/><polygon class="cls-1" points="533.591 136.221 533.37 134.228 535.805 134.007 535.805 135.778 533.591 136.221"/><polygon class="cls-1" points="536.027 136 535.805 134.007 537.134 134.007 537.577 133.785 537.798 135.778 537.355 136 536.027 136"/><polygon class="cls-1" points="534.034 137.993 533.813 136.442 537.355 136 537.577 137.771 534.034 137.993"/><polygon class="cls-1" points="538.019 136.221 537.798 133.121 543.555 133.121 543.555 136.221 538.019 136.221"/><polygon class="cls-1" points="535.584 131.349 535.805 130.242 536.691 130.463 537.134 130.906 537.134 131.571 536.027 131.349 535.584 131.349"/><polygon class="cls-1" points="536.913 130.685 536.027 130.463 536.027 131.349 535.584 131.349 535.805 130.242 536.691 130.463 536.913 130.685"/><polygon class="cls-1" points="534.255 132.235 534.255 131.571 534.92 131.792 534.92 132.235 534.255 132.235"/><polygon class="cls-1" points="543.667 154.902 545.66 149.809 552.524 150.473 552.745 154.681 543.667 154.902"/><polygon class="cls-1" points="544.884 156.815 545.105 155.265 545.77 155.487 545.991 157.037 544.884 156.815"/><polygon class="cls-1" points="550.088 153.573 550.753 152.688 551.86 153.573 550.531 154.459 550.088 153.573"/><polygon class="cls-1" points="553.41 147.515 553.41 143.75 555.845 143.529 556.51 137.993 554.517 136.885 554.295 134.671 547.652 135.114 547.652 147.736 543.002 146.629 543.445 132.014 559.167 132.899 559.831 147.958 553.41 147.515"/><polygon class="cls-1" points="544.441 133.121 544.884 129.799 545.77 130.021 545.327 133.121 544.441 133.121"/><polygon class="cls-1" points="572.453 136.442 559.388 136.664 558.503 134.892 558.503 130.242 560.938 130.463 560.717 133.342 568.91 132.899 570.017 124.927 573.339 124.927 572.453 136.442"/><polygon class="cls-1" points="584.853 137.55 579.76 138.214 579.096 144.193 576.882 144.414 576.217 138.214 571.124 137.771 570.46 142.421 568.467 142.421 568.91 135.114 585.075 135.114 584.853 137.55"/><polygon class="cls-1" points="572.231 137.55 572.231 137.107 575.553 137.107 575.553 137.771 572.231 137.55"/><polygon class="cls-1" points="580.867 154.379 580.424 153.051 581.753 152.386 583.081 152.829 583.303 153.715 580.867 154.379"/><polygon class="cls-1" points="579.76 148.4 579.76 147.515 581.089 147.736 581.089 148.622 579.76 148.4"/><polygon class="cls-1" points="582.196 148.622 582.196 147.958 582.639 147.958 583.081 148.4 583.081 148.843 582.196 148.622"/><rect class="cls-2" x="582.6449" y="146.9933" width="1.9807" height="1.4855" transform="translate(-4.4757 276.5056) rotate(-26.5552)"/><polygon class="cls-1" points="580.867 143.972 581.31 143.307 582.196 143.75 581.753 144.636 580.867 143.972"/><polygon class="cls-1" points="590.61 147.736 589.946 146.186 591.275 146.407 591.496 147.736 590.61 147.736"/><polygon class="cls-1" points="592.382 146.407 591.496 144.636 593.267 144.193 593.932 145.965 592.382 146.407"/><polygon class="cls-1" points="593.046 147.515 593.489 146.629 593.932 147.736 593.489 148.179 593.046 147.515"/><polygon class="cls-1" points="593.932 145.3 593.489 144.414 594.596 143.75 596.146 145.522 594.596 146.85 594.153 145.965 593.932 145.3"/><polygon class="cls-1" points="578.431 129.356 578.653 128.692 578.874 129.356 578.431 129.356"/><polygon class="cls-1" points="579.096 129.799 579.096 129.135 579.76 129.135 579.76 130.021 579.096 129.799"/><polygon class="cls-1" points="596.811 149.286 597.032 147.736 598.139 148.179 598.139 149.508 596.811 149.286"/><polygon class="cls-1" points="598.139 149.508 598.36 147.736 600.353 147.736 600.353 149.508 598.139 149.508"/><polygon class="cls-1" points="596.811 151.058 597.032 150.172 599.468 150.393 599.468 150.836 596.811 151.058"/><polygon class="cls-1" points="599.689 150.615 599.689 149.951 601.018 149.729 600.796 151.501 600.353 151.501 600.132 150.836 599.689 150.615"/><polygon class="cls-1" points="597.254 144.414 596.811 143.75 597.475 143.307 597.918 144.414 597.254 144.414"/><polygon class="cls-1" points="598.139 142.864 587.732 140.207 589.282 133.785 595.482 133.785 596.367 127.363 599.911 127.363 598.139 142.864"/><polygon class="cls-1" points="595.925 138.657 595.925 136.221 597.032 136 597.254 134.228 598.36 134.449 597.918 139.1 595.925 138.657"/><polygon class="cls-1" points="601.682 138.878 601.46 133.785 602.789 133.564 603.011 138.878 601.682 138.878"/><polygon class="cls-1" points="601.46 133.785 601.682 130.906 602.568 130.463 602.789 133.564 601.46 133.785"/><polygon class="cls-1" points="606.996 139.764 607.439 136.664 608.768 136.885 608.325 139.986 606.996 139.764"/><rect class="cls-2" x="605.8525" y="133.4437" width="5.388" height="1.3471" transform="translate(376.1704 712.3193) rotate(-80.5338)"/><polygon class="cls-1" points="608.325 131.349 608.768 129.135 608.989 129.135 608.989 129.356 609.875 129.578 609.654 131.571 608.325 131.349"/><polygon class="cls-1" points="610.318 126.699 609.211 126.256 609.211 126.699 608.989 126.477 609.211 124.706 610.539 125.149 610.318 126.699"/><polygon class="cls-1" points="601.239 153.937 605.668 121.384 609.875 120.498 604.782 153.715 601.239 153.937"/><polygon class="cls-1" points="604.339 147.736 604.339 146.85 605.004 147.072 605.004 147.736 604.339 147.736"/><polygon class="cls-1" points="610.982 148.622 610.982 147.736 611.646 147.736 611.646 148.4 610.982 148.622"/><polygon class="cls-1" points="615.19 144.636 615.632 143.307 616.297 143.307 616.075 144.636 615.19 144.636"/><polygon class="cls-1" points="614.747 142.2 614.304 141.314 614.968 141.093 615.854 141.536 615.632 142.2 614.747 142.2"/><polygon class="cls-1" points="613.418 140.65 613.418 138.878 615.854 138.435 616.297 139.986 613.418 140.65"/><polygon class="cls-1" points="609.875 138.657 610.318 137.993 611.204 138.435 610.539 139.321 609.875 138.657"/><polygon class="cls-1" points="650.84 146.407 650.397 145.965 651.726 145.3 651.947 146.186 650.84 146.407"/><polygon class="cls-1" points="652.611 147.293 652.39 146.85 653.054 146.629 653.054 147.072 652.611 147.293"/><polygon class="cls-1" points="651.505 148.179 650.84 147.958 651.283 147.515 652.169 147.293 652.39 147.736 651.505 148.179"/><polygon class="cls-1" points="647.961 147.293 647.961 146.186 649.512 145.965 649.512 147.293 647.961 147.293"/><polygon class="cls-1" points="643.312 147.293 643.312 146.407 647.076 146.186 647.518 146.407 647.518 147.072 643.312 147.293"/><polygon class="cls-1" points="643.312 149.951 643.312 148.622 644.861 148.4 645.083 149.951 643.312 149.951"/><polygon class="cls-1" points="641.319 146.85 641.319 146.186 641.983 145.743 642.647 145.965 642.204 146.85 641.319 146.85"/><polygon class="cls-1" points="620.947 181.617 620.725 180.731 621.168 180.288 622.054 180.51 622.275 181.174 622.275 181.617 622.054 181.617 621.832 181.838 621.389 182.06 620.947 181.617"/><polygon class="cls-1" points="610.318 182.724 610.539 181.838 611.204 182.06 611.646 182.281 611.646 182.946 611.425 183.389 610.761 183.167 610.318 182.724"/><polygon class="cls-1" points="608.104 182.946 607.882 182.06 610.097 181.838 610.097 183.167 608.104 182.946"/><polygon class="cls-1" points="606.553 184.496 606.553 183.389 608.104 183.389 608.104 184.274 606.553 184.496"/><polygon class="cls-1" points="607.661 172.981 608.104 172.095 608.989 171.873 609.211 173.424 608.104 173.866 607.661 172.981"/><polygon class="cls-1" points="601.018 176.081 601.239 174.974 603.011 174.974 603.232 176.081 601.018 176.081"/><rect class="cls-2" x="595.136" y="173.5207" width="0.9131" height="0.913" transform="translate(282.2413 709.5232) rotate(-75.9513)"/><polygon class="cls-1" points="594.375 172.759 595.039 171.873 596.589 171.873 596.367 173.202 595.039 173.424 594.375 172.759"/><polygon class="cls-1" points="592.161 172.759 592.382 171.652 593.267 171.431 594.153 172.316 593.71 173.202 592.603 173.202 592.161 172.759"/><polygon class="cls-1" points="593.489 174.974 593.046 174.309 593.932 173.866 594.375 174.531 593.489 174.974"/><polygon class="cls-1" points="590.389 173.202 590.832 171.873 591.939 172.316 591.939 172.981 590.389 173.202"/><polygon class="cls-1" points="590.61 174.752 590.389 173.645 591.275 173.866 590.61 174.752"/><polygon class="cls-1" points="588.396 172.981 588.617 172.095 589.946 171.873 589.946 172.981 589.06 173.424 588.396 172.981"/><polygon class="cls-1" points="588.617 174.088 588.617 173.424 589.725 173.645 589.282 174.309 588.617 174.088"/><polygon class="cls-1" points="587.953 187.153 587.51 186.489 589.06 186.046 589.282 186.71 588.839 187.153 587.953 187.153"/><polygon class="cls-1" points="583.303 186.489 583.081 185.16 585.517 185.16 585.296 186.932 584.41 187.153 583.303 186.489"/><polygon class="cls-1" points="585.075 176.302 584.41 175.638 584.853 175.195 585.517 175.638 585.075 176.302"/><polygon class="cls-1" points="579.76 174.309 579.76 172.759 581.31 172.759 581.31 174.088 579.76 174.309"/><polygon class="cls-1" points="572.674 174.531 572.674 173.424 574.003 172.981 574.667 173.424 574.446 174.531 573.56 174.974 572.674 174.531"/><polygon class="cls-1" points="579.982 188.482 579.982 188.039 581.089 187.817 581.31 188.26 579.982 188.482"/><polygon class="cls-1" points="579.982 187.153 579.982 186.489 580.646 186.267 580.646 187.153 579.982 187.153"/><polygon class="cls-1" points="570.46 186.932 570.903 186.489 571.124 186.932 570.903 187.153 570.46 186.932"/><polygon class="cls-1" points="566.917 187.817 566.696 186.489 568.467 186.267 568.246 187.375 566.917 187.817"/><polygon class="cls-1" points="560.938 190.475 561.381 186.71 565.145 186.71 560.938 190.475"/><polygon class="cls-1" points="555.624 178.295 555.845 177.852 556.51 177.631 556.731 178.517 556.067 178.738 555.624 178.295"/><polygon class="cls-1" points="554.074 179.181 553.188 178.517 553.853 177.631 554.738 178.517 554.074 179.181"/><polygon class="cls-1" points="525.176 191.803 525.176 186.489 542.67 185.382 542.891 198.004 537.134 199.554 526.948 199.775 526.505 196.897 527.169 193.796 525.176 191.803"/><polygon class="cls-1" points="535.141 183.61 534.698 182.503 536.248 182.281 536.47 183.167 535.141 183.61"/><polygon class="cls-1" points="533.813 181.174 533.148 179.845 533.813 179.845 534.477 180.067 533.813 181.174"/><polygon class="cls-1" points="504.583 180.288 504.583 177.41 520.969 177.41 520.969 179.624 504.583 180.288"/><polygon class="cls-1" points="518.312 175.195 518.534 174.752 518.977 174.752 518.977 175.195 518.312 175.195"/><polygon class="cls-1" points="501.704 180.51 501.483 178.96 502.59 178.738 503.033 180.288 501.704 180.51"/><polygon class="cls-1" points="497.675 177.402 497.233 175.187 498.561 174.966 498.783 177.402 497.675 177.402"/><polygon class="cls-1" points="492.804 178.509 492.804 176.294 494.133 176.516 493.911 178.509 492.804 178.509"/><polygon class="cls-1" points="490.368 178.73 489.925 176.737 491.032 176.737 491.032 178.509 490.368 178.73"/><polygon class="cls-1" points="490.589 178.73 490.146 176.737 491.254 176.516 492.361 176.294 493.69 176.516 493.468 178.73 490.589 178.73"/><polygon class="cls-1" points="488.597 178.509 488.597 176.737 489.704 176.737 489.925 178.73 488.597 178.509"/><polygon class="cls-1" points="486.604 178.066 486.382 176.959 488.154 176.959 487.932 177.844 486.604 178.066"/><polygon class="cls-1" points="486.825 178.509 486.604 176.959 490.146 177.402 489.925 178.73 486.825 178.509"/><polygon class="cls-1" points="487.711 180.945 487.489 180.28 488.818 180.059 488.818 180.723 487.711 180.945"/><polygon class="cls-1" points="485.053 176.516 484.832 175.851 486.382 175.63 486.604 176.294 485.053 176.516"/><polygon class="cls-1" points="483.282 178.509 483.061 177.18 486.161 176.959 486.161 178.066 483.282 178.509"/><polygon class="cls-1" points="483.947 180.502 483.725 178.509 485.718 178.509 485.718 180.28 483.947 180.502"/><polygon class="cls-1" points="491.475 180.059 491.475 179.616 492.804 179.173 493.025 179.837 491.475 180.059"/><polygon class="cls-1" points="480.625 184.931 480.625 182.716 482.175 182.716 482.175 186.038 481.068 185.816 480.625 184.931"/><polygon class="cls-1" points="478.854 183.823 479.739 182.495 480.403 183.159 479.739 184.266 478.854 183.823"/><polygon class="cls-1" points="479.518 186.702 478.854 184.488 480.182 184.045 480.846 186.038 479.518 186.702"/><polygon class="cls-1" points="494.354 206.632 495.904 204.196 497.897 205.525 496.568 207.739 494.354 206.632"/><polygon class="cls-1" points="492.14 220.805 491.918 218.59 495.904 217.261 496.125 219.919 492.14 220.805"/><polygon class="cls-1" points="475.975 231.434 474.868 219.697 491.918 218.59 493.025 230.327 475.975 231.434"/><polygon class="cls-1" points="463.575 182.938 464.239 182.052 464.903 182.495 464.903 183.381 463.575 182.938"/><polygon class="cls-1" points="461.582 179.395 461.36 178.066 463.796 177.402 464.017 178.73 461.582 179.395"/><polygon class="cls-1" points="467.117 176.737 467.117 176.294 468.446 176.073 468.446 176.516 467.117 176.737"/><polygon class="cls-1" points="459.81 179.616 460.032 178.287 460.696 178.287 460.918 179.616 459.81 179.616"/><polygon class="cls-1" points="447.41 180.723 447.41 179.616 447.853 179.395 448.96 179.616 449.403 180.059 449.181 180.945 448.96 181.166 447.41 180.723"/><polygon class="cls-1" points="446.746 180.059 446.524 179.395 447.632 179.395 447.41 180.28 446.746 180.059"/><polygon class="cls-1" points="446.746 181.83 446.746 180.723 448.074 180.945 447.853 182.052 446.746 181.83"/><polygon class="cls-1" points="406.888 186.481 407.109 180.723 412.424 180.945 412.424 186.924 406.888 186.481"/><polygon class="cls-1" points="410.209 180.28 409.324 179.837 409.766 179.395 410.431 179.837 410.209 180.28"/><polygon class="cls-1" points="399.138 182.716 399.359 182.052 400.466 182.052 400.909 182.716 400.245 183.602 399.138 182.716"/><polygon class="cls-1" points="398.252 181.83 398.252 181.388 398.916 181.166 398.916 181.83 398.473 182.052 398.252 181.83"/><polygon class="cls-1" points="390.059 182.938 389.837 182.273 390.945 182.052 390.945 182.938 390.059 182.938"/><polygon class="cls-1" points="385.409 183.602 384.966 183.159 386.073 182.273 386.516 182.938 385.409 183.602"/><polygon class="cls-1" points="386.295 182.716 385.852 182.052 386.737 182.273 386.295 182.716"/><polygon class="cls-1" points="384.966 181.609 384.966 181.166 385.63 181.609 385.409 181.83 384.966 181.609"/><polygon class="cls-1" points="382.308 182.716 381.866 182.495 382.751 181.83 382.751 182.495 382.308 182.716"/><polygon class="cls-1" points="372.123 197.331 372.566 190.91 378.766 191.353 378.544 197.774 372.123 197.331"/><polygon class="cls-1" points="357.27 193.404 356.827 189.418 357.491 188.753 365.02 188.975 364.798 194.068 357.27 193.404"/><polygon class="cls-1" points="365.785 185.804 365.342 184.476 366.228 184.254 366.449 185.361 365.785 185.804"/><polygon class="cls-1" points="362.906 178.718 363.57 178.054 364.456 178.497 364.235 179.382 362.906 178.718"/><polygon class="cls-1" points="356.162 181.003 356.162 180.339 356.605 180.339 356.827 180.781 356.162 181.003"/><polygon class="cls-1" points="353.063 182.11 352.841 181.224 353.727 181.003 354.17 181.667 353.063 182.11"/><polygon class="cls-1" points="352.841 189.196 352.62 188.311 354.17 188.311 353.948 188.975 352.841 189.196"/><polygon class="cls-1" points="343.762 181.446 343.098 180.56 343.984 179.674 344.648 180.117 343.762 181.446"/><polygon class="cls-1" points="337.784 184.546 337.562 184.103 338.005 183.882 338.448 184.103 337.784 184.546"/><polygon class="cls-1" points="323.39 185.653 324.055 178.124 332.248 178.567 331.584 185.875 323.39 185.653"/><polygon class="cls-1" points="330.476 182.332 331.141 181.446 331.584 182.11 330.919 182.774 330.476 182.332"/><polygon class="cls-1" points="329.591 182.553 329.148 181.889 329.591 181.667 330.033 182.332 329.591 182.553"/><polygon class="cls-1" points="327.598 180.781 327.376 180.339 327.819 180.117 328.483 180.56 327.598 180.781"/><polygon class="cls-1" points="325.826 181.889 325.826 180.56 326.269 180.781 326.491 181.889 325.826 181.889"/><polygon class="cls-1" points="318.297 180.117 318.076 178.788 320.29 178.567 320.512 179.674 318.297 180.117"/><polygon class="cls-1" points="301.69 184.767 302.576 175.91 312.761 176.795 312.761 184.989 301.69 184.767"/><polygon class="cls-1" points="305.454 177.46 305.233 177.017 305.897 176.795 306.119 177.681 305.454 177.46"/><polygon class="cls-1" points="271.239 183.21 271.903 176.788 291.832 179.224 291.832 184.76 271.239 183.21"/><polygon class="cls-1" points="289.39 175.839 288.505 174.954 289.169 174.511 290.055 175.396 289.39 175.839"/><polygon class="cls-1" points="277.117 177.231 277.56 176.345 278.224 176.788 278.445 177.453 278.224 177.896 277.117 177.231"/><polygon class="cls-1" points="275.345 173.024 274.238 173.024 275.567 171.695 275.345 173.024"/><polygon class="cls-1" points="270.474 172.581 270.252 171.917 270.474 171.695 271.359 171.695 271.138 172.581 270.474 172.581"/><polygon class="cls-1" points="269.81 174.131 268.702 173.467 269.81 172.359 270.695 173.467 269.81 174.131"/><polygon class="cls-1" points="265.602 173.024 266.488 171.695 267.817 172.802 266.709 174.131 265.602 173.024"/><polygon class="cls-1" points="256.524 173.245 256.524 171.695 258.959 171.917 259.181 173.688 257.409 173.467 257.409 173.024 256.524 173.245"/><polygon class="cls-1" points="271.359 174.795 271.802 173.91 273.352 173.688 273.352 174.352 271.802 175.903 271.359 174.795"/><polygon class="cls-1" points="256.524 176.345 256.524 174.352 258.959 174.795 258.516 176.788 256.524 176.345"/><polygon class="cls-1" points="256.524 174.131 256.524 173.245 259.402 173.688 259.402 174.795 256.524 174.131"/><polygon class="cls-1" points="253.202 172.138 253.866 171.031 254.752 171.695 253.645 173.024 253.202 172.138"/><polygon class="cls-1" points="252.538 172.802 252.98 172.359 253.423 172.802 253.202 173.024 252.538 172.802"/><polygon class="cls-1" points="246.116 172.581 246.116 171.252 248.33 171.252 248.552 171.917 248.109 172.581 246.116 172.581"/><polygon class="cls-1" points="244.345 172.581 244.566 171.917 245.009 172.138 245.452 172.802 245.23 173.024 244.345 172.581"/><polygon class="cls-1" points="245.009 172.138 245.23 171.474 245.895 172.138 245.452 172.359 245.009 172.138"/><polygon class="cls-1" points="244.787 171.917 244.566 171.031 245.009 171.252 245.009 171.695 244.787 171.917"/><polygon class="cls-1" points="243.016 172.359 243.68 171.695 244.345 171.695 244.345 172.359 243.68 172.581 243.016 172.359"/><polygon class="cls-1" points="243.016 177.453 242.794 176.124 243.237 175.903 243.68 176.345 243.902 177.01 243.016 177.453"/><polygon class="cls-1" points="232.166 175.681 232.387 175.238 232.83 174.795 233.052 175.017 233.273 175.681 232.166 175.681"/><polygon class="cls-1" points="229.951 174.574 230.616 173.024 232.387 173.688 231.723 175.238 229.951 174.574"/><polygon class="cls-1" points="228.623 172.581 226.187 171.917 226.187 171.031 226.851 171.031 226.851 170.809 228.844 171.031 228.623 172.581"/><polygon class="cls-1" points="222.644 169.924 223.309 169.038 225.301 169.702 225.08 170.588 224.415 170.809 222.644 169.924"/><polygon class="cls-1" points="220.873 168.595 221.316 167.709 222.201 167.709 222.201 168.373 221.537 169.038 220.873 168.595"/><polygon class="cls-1" points="220.208 173.024 220.873 169.924 221.758 170.145 221.316 173.024 220.208 173.024"/><polygon class="cls-1" points="213.565 169.481 214.008 168.816 215.337 168.816 215.559 170.145 214.672 170.588 213.565 169.481"/><polygon class="cls-1" points="212.015 170.588 212.68 169.259 214.672 171.252 214.23 171.474 213.344 171.695 212.015 170.588"/><polygon class="cls-1" points="211.572 167.709 211.351 166.602 212.458 166.38 212.68 167.931 212.015 168.152 211.572 167.709"/><polygon class="cls-1" points="209.358 169.702 209.579 169.038 210.466 169.259 210.466 169.924 210.023 170.366 209.358 169.702"/><polygon class="cls-1" points="192.529 186.753 195.408 169.924 212.015 171.474 209.801 188.968 192.529 186.753"/><polygon class="cls-1" points="207.144 168.816 207.144 167.709 208.694 167.931 209.137 168.595 208.915 169.038 207.144 168.816"/><polygon class="cls-1" points="202.494 171.695 202.494 170.809 203.822 170.588 203.601 172.138 202.937 172.138 202.494 171.695"/><polygon class="cls-1" points="205.151 171.252 204.044 169.924 204.265 169.702 204.487 169.702 205.594 168.816 206.479 169.259 206.479 170.145 206.037 171.031 205.151 171.252"/><polygon class="cls-1" points="202.937 166.38 202.715 165.716 203.822 165.273 204.487 165.716 203.822 166.602 202.937 166.38"/><rect class="cls-2" x="198.7294" y="166.6019" width="0.6645" height="0.8858"/><polygon class="cls-1" points="198.508 167.931 197.179 167.709 197.401 165.273 198.508 165.273 198.729 166.38 198.508 166.38 198.287 167.045 198.729 167.045 198.508 167.931"/><polygon class="cls-1" points="189.429 177.231 189.872 175.903 192.308 176.567 191.422 177.896 189.429 177.231"/><polygon class="cls-1" points="235.044 167.045 235.044 166.602 235.266 166.38 235.93 165.938 236.152 165.938 238.588 165.938 238.809 166.159 239.03 166.823 238.588 167.266 238.144 167.045 237.701 167.488 237.037 167.931 236.373 167.931 235.709 167.709 235.044 167.045"/><polygon class="cls-1" points="660.805 121.384 662.133 118.727 665.898 119.613 665.233 123.156 663.905 125.813 662.797 124.706 660.805 123.82 660.805 121.384"/><polygon class="cls-1" points="682.949 135.869 683.392 133.211 686.049 131.661 688.928 133.211 690.256 136.312 688.706 140.298 683.17 140.076 682.949 135.869"/><polygon class="cls-1" points="675.446 143.619 674.781 141.848 676.11 141.405 676.553 141.626 675.446 143.619"/><polygon class="cls-1" points="683.613 142.955 683.613 141.626 685.384 141.405 686.935 141.183 686.935 142.955 683.613 142.955"/><polygon class="cls-1" points="692.073 144.988 692.073 144.545 693.181 144.767 692.959 145.431 692.073 144.988"/><polygon class="cls-1" points="691.852 141.667 691.852 139.895 693.402 139.895 693.624 141.445 691.852 141.667"/><polygon class="cls-1" points="694.731 138.788 695.395 137.459 696.281 137.238 697.831 137.238 698.717 138.345 699.159 139.452 698.717 140.559 697.609 141.888 695.617 141.888 694.731 141.445 694.288 140.781 694.288 140.116 694.731 138.788"/><polygon class="cls-1" points="698.717 144.324 698.495 142.774 700.488 142.331 700.71 143.881 698.717 144.324"/><polygon class="cls-1" points="715.988 138.345 715.767 137.238 717.317 137.238 716.874 138.566 715.988 138.345"/><polygon class="cls-1" points="720.86 141.445 720.638 139.895 723.296 139.674 723.517 141.224 720.86 141.445"/><polygon class="cls-1" points="727.662 139.19 727.44 137.862 729.212 137.64 729.655 139.19 727.662 139.19"/><polygon class="cls-1" points="732.865 138.705 733.972 128.298 740.615 128.298 741.723 137.598 732.865 138.705"/><polygon class="cls-1" points="737.958 140.034 735.744 140.034 738.401 139.37 737.958 140.034"/><polygon class="cls-1" points="735.744 140.034 735.301 138.705 738.401 137.82 738.622 139.37 735.744 140.034"/><polygon class="cls-1" points="743.494 140.698 743.715 139.37 745.708 139.813 745.487 140.92 743.494 140.698"/><polygon class="cls-1" points="742.83 138.927 743.051 138.041 746.816 138.484 746.816 139.591 742.83 138.927"/><polygon class="cls-1" points="747.701 137.598 747.259 132.726 752.573 131.841 753.68 136.712 747.701 137.598"/><polygon class="cls-1" points="749.916 141.584 749.694 138.484 753.458 137.82 753.016 139.591 751.687 141.363 749.916 141.584"/><polygon class="cls-1" points="748.144 140.92 748.365 140.034 749.473 140.034 749.03 140.92 748.144 140.92"/><polygon class="cls-1" points="759.216 132.726 758.994 131.841 759.659 131.841 759.88 132.726 759.216 132.726"/><polygon class="cls-1" points="766.744 132.284 765.637 132.284 765.637 132.726 764.752 132.726 764.973 131.841 766.08 131.398 766.523 131.398 766.744 132.284"/><polygon class="cls-1" points="759.888 131.841 760.331 128.962 765.424 130.069 765.202 131.841 764.981 132.726 762.988 136.491 760.331 136.934 760.109 132.726 759.888 131.841"/><polygon class="cls-1" points="760.766 142.249 760.544 138.484 765.195 138.263 765.416 142.027 760.766 142.249"/><polygon class="cls-1" points="769.955 136.976 769.734 132.99 779.034 133.433 778.591 139.855 775.934 139.855 774.827 139.855 774.163 140.298 772.834 140.298 772.612 139.855 772.391 139.412 769.955 136.976"/><polygon class="cls-1" points="772.391 139.19 772.391 137.64 774.163 137.64 772.391 139.19"/><polygon class="cls-1" points="773.941 138.969 773.941 138.747 774.606 138.083 774.827 138.526 773.941 138.969"/><polygon class="cls-1" points="772.612 139.855 772.391 139.412 776.377 138.969 776.599 139.855 775.934 139.855 775.27 139.633 774.827 139.855 774.384 140.076 773.277 139.855 772.612 139.855"/><polygon class="cls-1" points="781.514 139.342 781.736 138.235 783.064 138.235 783.286 139.785 781.514 139.785 781.514 139.342"/><polygon class="cls-1" points="766.08 123.869 766.08 120.326 770.066 120.326 770.066 123.647 766.08 123.869"/><polygon class="cls-1" points="811.751 131.119 811.751 129.791 813.08 129.348 814.408 129.569 816.844 129.348 816.844 130.234 817.951 133.998 812.637 134.441 811.751 131.119"/><polygon class="cls-1" points="814.63 130.455 814.408 129.569 816.844 129.348 817.065 130.234 814.63 130.455"/><polygon class="cls-1" points="811.972 131.119 811.972 130.012 813.301 130.012 813.523 130.677 811.972 131.119"/><polygon class="cls-1" points="812.194 122.483 811.53 119.826 820.165 119.383 818.837 126.026 818.394 127.133 817.951 127.798 814.851 125.583 813.301 124.033 812.194 122.483"/><polygon class="cls-1" points="814.408 139.091 814.63 138.206 816.844 138.206 816.623 139.534 814.408 139.091"/><polygon class="cls-1" points="820.83 139.313 821.273 137.984 825.48 138.87 825.258 139.977 821.273 139.313 820.83 139.313"/><polygon class="cls-1" points="821.937 135.548 821.937 132.448 822.823 131.562 825.037 131.341 826.809 133.777 824.815 136.656 821.937 135.548"/><polygon class="cls-1" points="826.809 146.498 827.03 145.834 828.359 146.055 827.916 147.605 827.251 147.384 826.809 146.498"/><polygon class="cls-1" points="828.359 147.605 828.58 145.612 829.687 145.834 829.466 147.162 829.023 147.605 828.359 147.605"/><polygon class="cls-1" points="827.916 139.534 828.137 137.984 829.244 138.427 827.916 139.534"/><polygon class="cls-1" points="825.48 139.534 825.48 138.87 826.144 138.649 826.809 137.763 827.473 137.763 827.473 138.427 827.694 138.649 827.916 139.313 825.48 139.534"/><rect class="cls-2" x="830.7942" y="138.6486" width="1.3285" height="1.1072"/><rect class="cls-2" x="832.1227" y="139.0914" width="3.5432" height="0.6643"/><polygon class="cls-1" points="830.794 138.649 830.573 135.105 833.452 134.22 835.666 129.348 839.209 130.234 838.544 135.105 835.223 138.87 832.123 139.091 832.123 138.649 830.794 138.649"/><polygon class="cls-1" points="828.58 134.22 827.694 132.448 829.687 131.562 830.573 133.112 828.58 134.22"/><polygon class="cls-1" points="826.809 128.905 825.037 125.583 829.244 124.476 832.566 126.026 834.559 128.684 830.573 130.898 826.809 128.905"/><polygon class="cls-1" points="835.444 128.241 835.887 121.597 839.652 121.376 838.323 128.462 835.444 128.241"/><polygon class="cls-1" points="842.53 136.213 842.087 132.227 846.073 130.012 850.502 132.227 848.287 136.213 845.187 137.32 842.53 136.213"/><polygon class="cls-1" points="855.152 131.23 858.031 126.358 862.681 127.909 860.909 134.109 858.252 134.552 855.152 131.23"/><polygon class="cls-1" points="860.024 138.759 860.024 137.874 860.466 137.431 862.238 137.652 862.017 138.759 860.024 138.759"/><polygon class="cls-1" points="869.324 139.202 869.324 138.538 870.874 138.759 870.652 139.424 869.324 139.202"/><polygon class="cls-1" points="868.66 138.538 868.881 137.652 869.988 137.874 870.21 138.316 868.66 138.538"/><polygon class="cls-1" points="867.331 133.223 867.331 129.459 876.41 129.237 875.745 133.666 874.196 135.438 869.988 137.209 867.331 133.223"/><polygon class="cls-1" points="887.26 126.511 887.26 125.625 887.924 124.961 888.81 125.182 888.588 126.732 887.26 126.511"/><polygon class="cls-1" points="891.024 129.39 891.024 128.282 893.239 128.061 893.239 129.39 891.024 129.39"/><polygon class="cls-1" points="892.353 128.725 892.575 128.061 893.46 128.725 893.017 129.39 892.353 128.725"/><polygon class="cls-1" points="889.253 128.947 889.474 128.282 890.139 127.84 890.581 128.504 889.917 129.168 889.253 128.947"/><polygon class="cls-1" points="893.903 140.462 894.124 138.912 894.567 140.24 893.903 140.462"/><polygon class="cls-1" points="895.896 140.905 895.453 140.462 896.339 139.576 897.003 140.019 895.896 140.905"/><polygon class="cls-1" points="895.896 139.798 895.232 138.469 896.117 137.805 897.225 138.912 895.896 139.798"/><polygon class="cls-1" points="895.674 136.033 895.896 135.59 897.003 136.033 896.782 136.919 896.117 136.697 895.674 136.033"/><polygon class="cls-1" points="899.439 137.14 898.774 136.033 899.217 135.59 900.325 136.476 899.439 137.14"/><polygon class="cls-1" points="902.761 138.69 903.203 137.362 903.646 137.362 903.867 138.69 902.761 138.69"/><polygon class="cls-1" points="904.093 129.917 903.867 129.39 900.989 131.826 900.546 135.147 902.317 136.033 904.093 135.064 904.093 129.917"/><polygon class="cls-1" points="899.882 121.196 898.774 120.532 899.439 120.089 900.325 120.975 899.882 121.196"/><polygon class="cls-1" points="688.706 168.644 689.37 167.979 690.035 168.865 688.706 168.644"/><polygon class="cls-1" points="689.813 165.543 689.592 164.879 691.142 165.322 690.477 165.543 689.813 165.543"/><polygon class="cls-1" points="688.041 163.55 688.484 162.886 688.928 163.329 688.484 163.772 688.041 163.55"/><polygon class="cls-1" points="682.949 164.215 683.17 163.772 683.392 163.55 683.835 163.329 684.499 163.772 684.499 164.879 683.17 164.658 682.949 164.215"/><polygon class="cls-1" points="683.17 166.872 684.056 165.765 684.72 166.208 685.384 167.315 684.056 168.422 683.17 166.872"/><polygon class="cls-1" points="684.499 171.744 682.506 170.194 684.499 169.308 685.163 169.972 684.499 171.744"/><polygon class="cls-1" points="678.52 170.637 678.299 169.308 679.627 169.087 680.291 169.529 680.513 169.972 680.513 170.194 679.849 170.858 678.52 170.637"/><polygon class="cls-1" points="674.186 170.635 673.964 169.528 675.293 169.307 676.179 169.971 676.179 170.635 675.736 170.857 674.186 170.635"/><polygon class="cls-1" points="671.75 170.857 671.75 169.75 673.3 169.75 673.3 171.521 672.636 171.521 671.75 170.857"/><polygon class="cls-1" points="655.712 169.438 655.712 169.216 657.262 170.545 656.819 171.209 656.376 170.988 655.712 170.766 655.712 169.438"/><polygon class="cls-1" points="904.093 162.828 894.567 162.828 895.453 176.114 904.093 175.382 904.093 162.828"/><polygon class="cls-1" points="898.11 164.378 898.11 162.828 900.546 162.828 900.546 164.821 898.996 164.821 898.11 164.378"/><polygon class="cls-1" points="898.332 166.371 898.11 165.042 900.325 164.821 900.103 166.371 898.332 166.371"/><polygon class="cls-1" points="886.817 165.928 887.703 164.599 889.031 164.378 891.467 164.599 892.575 166.592 892.796 169.25 892.353 171.021 891.024 171.686 889.474 171.464 887.703 171.021 886.596 169.693 886.374 167.7 886.817 165.928"/><polygon class="cls-1" points="885.046 163.492 884.603 162.385 886.153 162.163 886.817 163.492 885.046 163.492"/><polygon class="cls-1" points="867.552 171.965 866.224 163.329 878.181 162.665 879.51 170.637 867.552 171.965"/><polygon class="cls-1" points="868.881 165.543 867.995 164.436 868.66 163.772 870.209 163.772 870.431 164.658 869.988 165.543 868.881 165.543"/><polygon class="cls-1" points="853.492 164.989 853.492 164.103 854.377 164.103 854.599 165.21 853.492 164.989"/><polygon class="cls-1" points="839.984 167.867 839.763 166.76 842.198 166.76 842.198 167.867 839.984 167.867"/><rect class="cls-2" x="842.42" y="165.4315" width="0.664" height="1.993"/><polygon class="cls-1" points="849.506 165.21 849.506 164.103 853.049 164.103 853.27 164.989 849.506 165.21"/><polygon class="cls-1" points="846.184 165.21 846.184 164.324 849.506 164.103 849.506 165.21 846.184 165.21"/><polygon class="cls-1" points="842.42 165.431 842.42 164.546 845.963 164.324 845.963 165.21 843.084 165.431 842.42 165.431"/><polygon class="cls-1" points="789.331 174.511 789.552 174.289 789.773 174.289 790.216 174.289 790.659 174.732 790.438 176.061 789.109 176.061 789.331 174.732 789.331 174.511"/><polygon class="cls-1" points="788.888 177.832 789.109 176.947 789.995 176.947 789.773 177.832 788.888 177.832"/><polygon class="cls-1" points="774.494 177.832 774.494 162.11 784.902 161.888 784.68 177.389 774.494 177.832"/><polygon class="cls-1" points="777.595 166.982 777.595 166.317 778.702 166.539 778.702 166.982 777.595 166.982"/><polygon class="cls-1" points="776.93 175.396 776.709 174.068 777.816 174.068 778.481 174.289 778.481 175.396 776.93 175.396"/><polygon class="cls-1" points="756.573 165.874 755.687 165.21 757.015 164.546 757.458 165.21 756.573 165.874"/><polygon class="cls-1" points="752.144 166.096 751.037 165.431 751.922 164.546 752.587 164.767 752.366 164.989 752.144 166.096"/><polygon class="cls-1" points="753.251 165.874 753.251 164.989 754.801 165.21 754.58 165.874 753.251 165.874"/><polygon class="cls-1" points="749.93 165.653 749.93 165.21 750.373 165.653 750.151 166.096 749.93 165.653"/><polygon class="cls-1" points="749.044 161.888 749.044 161.445 750.151 161.667 750.151 162.331 749.93 162.553 749.044 161.888"/><polygon class="cls-1" points="747.494 162.11 747.273 161.445 747.937 161.003 748.823 161.888 748.601 162.331 747.494 162.11"/><polygon class="cls-1" points="744.394 163.771 744.394 163.106 745.722 163.328 745.722 163.992 745.722 164.214 745.058 163.992 745.058 163.771 744.394 163.771"/><polygon class="cls-1" points="739.301 174.179 739.301 168.421 745.058 168.421 745.28 173.957 739.301 174.179"/><polygon class="cls-1" points="745.944 181.043 749.044 180.822 749.044 181.929 745.722 182.151 745.944 181.043"/><polygon class="cls-1" points="741.737 182.593 741.958 181.043 743.951 181.043 743.951 182.593 741.737 182.593"/><polygon class="cls-1" points="744.837 186.579 744.394 184.808 745.501 184.808 747.494 185.251 747.494 186.801 746.165 187.687 744.837 186.579"/><polygon class="cls-1" points="742.18 179.493 741.294 178.386 742.18 177.943 742.622 178.607 742.18 179.493"/><polygon class="cls-1" points="740.851 178.165 740.851 177.279 741.958 177.057 742.18 177.943 740.851 178.165"/><polygon class="cls-1" points="742.844 177.943 742.401 177.279 742.844 177.279 742.844 177.057 743.287 177.057 743.287 177.943 742.844 177.943"/><polygon class="cls-1" points="725.669 195.437 725.669 194.551 726.776 194.33 726.997 195.437 725.669 195.437"/><polygon class="cls-1" points="725.669 193.223 725.447 192.558 726.333 192.558 726.333 193.223 725.669 193.223"/><polygon class="cls-1" points="725.447 192.115 725.89 190.565 727.219 190.122 726.776 192.337 725.447 192.115"/><polygon class="cls-1" points="725.89 190.344 726.776 188.13 727.883 188.13 727.44 189.901 725.89 190.344"/><polygon class="cls-1" points="716.59 177.5 715.483 168.864 727.219 168.642 727.219 178.386 716.59 177.5"/><polygon class="cls-1" points="720.354 167.092 721.462 164.878 723.676 167.535 720.354 167.092"/><polygon class="cls-1" points="719.026 167.314 719.248 166.871 719.69 166.649 719.69 166.871 719.026 167.314"/><polygon class="cls-1" points="710.611 161.999 709.726 161.556 710.39 161.113 710.611 161.999"/><polygon class="cls-1" points="709.726 162.885 709.504 161.999 710.39 161.999 710.169 162.442 709.726 162.885"/><polygon class="cls-1" points="708.619 162.885 709.062 162.221 709.726 163.106 709.504 163.549 709.062 163.106 708.619 162.885"/><polygon class="cls-1" points="707.954 163.328 707.954 162.885 708.397 162.885 708.84 163.328 707.954 163.328"/><polygon class="cls-1" points="706.847 163.106 706.405 162.663 707.29 161.999 707.511 162.442 707.29 162.885 706.847 163.106"/><polygon class="cls-1" points="706.405 161.999 706.626 161.556 706.847 161.999 706.405 162.663 706.405 162.442 706.405 161.999"/><polygon class="cls-1" points="707.29 163.771 706.626 163.549 707.29 162.885 707.733 163.328 707.29 163.771"/><polygon class="cls-1" points="706.847 164.878 706.405 164.656 706.847 164.435 707.29 164.435 706.847 164.878"/><polygon class="cls-1" points="705.518 164.214 706.405 163.992 706.183 164.878 705.518 164.214"/><polygon class="cls-1" points="704.854 163.992 704.633 162.221 705.74 162.442 706.405 163.106 704.854 163.992"/><polygon class="cls-1" points="699.54 165.542 698.654 163.328 699.318 162.885 700.869 163.106 701.09 164.878 699.54 165.542"/><polygon class="cls-1" points="697.99 173.293 698.211 172.407 699.983 172.186 700.869 173.071 699.983 174.621 699.097 175.064 697.99 173.293"/><polygon class="cls-1" points="703.526 174.179 703.304 173.957 703.747 173.293 704.19 173.514 704.19 173.957 703.526 174.179"/><polygon class="cls-1" points="715.04 159.342 715.04 158.677 716.147 158.456 716.147 159.342 715.704 159.785 715.261 159.563 715.04 159.342"/><polygon class="cls-1" points="742.622 195.659 741.516 191.894 745.722 191.673 746.609 195.88 742.622 195.659"/><polygon class="cls-1" points="787.116 169.417 787.116 169.196 787.559 169.196 787.781 169.196 787.781 169.417 787.781 169.639 787.559 169.86 787.338 169.86 787.116 169.86 787.116 169.639 787.116 169.417"/><polygon class="cls-1" points="793.317 167.203 793.538 166.539 795.088 165.653 795.531 166.317 795.531 166.539 795.531 166.76 795.309 167.203 795.309 167.646 794.645 168.089 794.424 167.867 794.645 167.203 794.424 166.982 793.317 167.203"/><polygon class="cls-1" points="792.431 163.217 791.988 161.667 792.874 161.224 794.202 162.11 793.095 162.996 792.431 163.217"/><polygon class="cls-1" points="831.569 169.417 831.569 168.753 832.677 168.975 832.677 169.196 832.455 169.639 831.569 169.417"/><polygon class="cls-1" points="883.495 134.04 883.495 130.275 893.681 129.39 893.903 135.147 886.153 134.04 883.495 134.04"/><polygon class="cls-1" points="890.803 137.805 890.803 136.476 892.575 136.919 892.575 137.805 890.803 137.805"/><polygon class="cls-1" points="888.367 138.69 888.367 137.805 890.803 137.805 890.581 138.69 888.367 138.69"/><polygon class="cls-1" points="884.603 137.362 885.046 136.254 886.817 136.697 886.374 138.247 884.603 137.362"/><polygon class="cls-1" points="885.488 136.476 886.153 135.147 888.146 135.812 888.146 136.476 885.488 136.476"/><polygon class="cls-1" points="886.596 137.583 886.817 136.476 888.146 136.476 890.803 136.476 890.803 137.805 888.367 137.805 886.596 137.583"/><polygon class="cls-1" points="790.593 139.12 790.814 136.906 791.7 137.127 791.478 139.12 790.593 139.12"/><polygon class="cls-1" points="792.143 139.785 792.143 138.899 793.472 138.235 794.136 138.899 792.143 139.785"/><polygon class="cls-1" points="783.728 140.006 783.728 139.342 784.393 139.342 784.393 139.785 783.728 140.006"/><polygon class="cls-1" points="97.187 164.45 97.851 163.564 98.737 164.893 97.187 165.114 97.187 164.45"/><polygon class="cls-1" points="98.515 164.229 98.073 163.786 98.515 163.343 99.401 163.564 98.958 164.229 98.515 164.229"/><polygon class="cls-1" points="147.895 168.215 147.895 167.772 148.338 167.329 148.781 167.107 149.223 168.215 148.781 168.657 147.895 168.215"/><polygon class="cls-1" points="149.223 167.329 149.445 166.886 150.331 167.329 150.552 167.772 150.552 168.215 150.109 168.657 149.445 168.657 149.223 167.329"/><polygon class="cls-1" points="843.749 173.182 843.306 173.182 843.97 172.296 844.413 172.739 843.749 173.403 843.749 173.182"/><polygon class="cls-1" points="843.527 173.625 843.084 173.403 843.306 173.182 843.527 173.182 843.749 173.403 843.527 173.625"/><polygon class="cls-1" points="823.266 145.169 823.266 144.948 825.259 145.169 825.037 145.612 823.266 145.169"/><polygon class="cls-1" points="821.273 144.948 821.273 144.505 823.266 144.726 822.823 145.169 821.273 144.948"/><polygon class="cls-1" points="477.303 136.877 477.303 134.884 480.403 134.441 480.625 136.434 478.411 153.928 476.418 154.15 477.303 136.877"/><polygon class="cls-1" points="464.239 137.099 464.017 131.563 468.889 131.563 469.11 136.877 469.332 138.649 468.668 144.628 465.125 144.849 464.46 138.87 464.239 137.099"/><polygon class="cls-1" points="457.374 137.099 457.153 122.04 463.796 122.483 464.017 137.099 464.239 139.092 464.239 163.008 457.153 163.229 457.153 139.092 457.374 137.099"/><polygon class="cls-1" points="452.282 138.649 452.946 136.434 456.931 137.099 456.931 138.87 456.267 159.243 450.51 159.686 450.289 151.714 452.282 138.649"/><polygon class="cls-1" points="352.979 137.169 350.1 126.983 358.957 124.768 362.943 136.062 370.472 151.341 361.172 154.22 353.864 140.269 352.979 137.169"/><polygon class="cls-1" points="323.833 143.357 326.712 122.763 333.133 122.763 330.033 128.742 331.141 133.835 336.455 141.364 336.677 143.136 339.998 153.544 325.826 156.201 322.947 145.129 323.833 143.357"/><polygon class="cls-1" points="268.924 146.893 268.481 141.579 277.117 139.807 280.66 144.9 279.331 148.001 277.56 154.422 269.145 154.865 268.924 149.329 268.924 146.893"/><polygon class="cls-1" points="234.38 148.886 223.309 144.9 224.194 139.586 225.301 136.928 227.516 129.178 230.394 125.413 236.152 131.614 242.794 137.15 239.473 139.807 235.487 141.357 234.38 148.886"/><polygon class="cls-1" points="46.257 141.198 46.036 140.534 46.921 140.534 47.143 140.534 48.029 140.091 48.25 140.313 48.693 140.313 48.914 140.534 48.693 140.977 48.25 140.977 47.143 141.198 46.921 141.198 46.257 141.198"/><polygon class="cls-1" points="683.613 142.512 683.835 141.848 685.384 141.848 685.384 142.733 683.613 142.512"/><polygon class="cls-1" points="685.606 142.733 685.606 141.848 686.713 141.848 686.935 142.733 685.606 142.733"/><polygon class="cls-1" points="464.46 129.57 464.46 124.919 465.346 125.141 465.346 125.584 465.346 129.791 464.903 130.012 464.903 129.791 464.903 129.57 464.46 129.57"/><polygon class="cls-1" points="782.507 121.454 782.507 119.24 784.057 117.247 786.714 115.032 791.807 114.147 795.571 115.254 798.671 116.361 801.771 118.576 804.871 121.233 807.528 124.776 809.3 128.762 809.079 130.755 808.414 132.748 806.643 134.962 804.429 136.734 801.107 137.62 797.342 138.063 793.578 136.512 790.035 134.962 787.378 132.748 784.942 130.533 783.171 127.876 782.507 124.555 782.507 121.454"/><polygon class="cls-1" points="709.726 167.535 709.504 166.428 710.611 166.649 710.833 167.314 709.726 167.535"/><polygon class="cls-1" points="777.152 165.653 776.709 164.546 777.373 164.546 777.595 164.989 777.152 165.653"/><polygon class="cls-1" points="779.366 166.539 779.145 165.874 779.809 165.874 779.809 166.539 779.366 166.539"/><polygon class="cls-1" points="871.538 139.202 871.317 138.538 874.86 137.874 875.081 138.759 871.538 139.202"/><polygon class="cls-1" points="873.088 137.874 872.867 136.102 874.417 136.102 874.638 137.874 873.088 137.874"/><polygon class="cls-1" points="871.981 137.874 871.538 136.766 872.645 136.323 872.867 137.874 871.981 137.874"/><polygon class="cls-1" points="872.203 138.095 872.424 136.766 873.753 136.988 873.753 138.095 872.203 138.095"/><polygon class="cls-1" points="873.531 138.981 873.531 137.874 874.638 137.874 874.638 139.202 873.531 138.981"/><polygon class="cls-1" points="871.76 139.424 871.76 138.095 873.088 137.874 873.088 139.202 871.76 139.424"/><polygon class="cls-1" points="718.646 139.009 717.981 133.695 725.067 133.252 725.51 138.566 718.646 139.009"/><polygon class="cls-1" points="704.916 140.781 704.252 134.802 714.217 134.137 714.66 140.338 704.916 140.781"/><polygon class="cls-1" points="729.053 126.608 717.76 127.494 717.981 131.923 715.767 131.923 715.767 127.494 703.588 128.158 703.588 133.695 701.374 133.695 700.931 128.38 693.624 128.823 694.066 134.58 691.631 134.802 690.745 126.165 731.267 123.951 731.489 133.03 729.053 133.03 729.053 126.608"/><polygon class="cls-1" points="818.394 172.186 818.394 171.964 818.616 171.964 819.059 171.964 819.28 171.964 819.502 171.964 819.502 173.071 819.28 173.293 819.059 173.293 818.837 173.514 818.616 173.514 818.394 173.514 818.173 173.514 818.173 173.293 818.173 173.071 818.173 172.85 818.173 172.407 818.173 172.186 818.394 172.186"/><polygon class="cls-1" points="814.187 172.186 814.409 171.964 814.63 171.964 815.073 171.743 815.294 171.743 815.516 171.964 815.737 172.186 815.737 172.407 815.737 172.85 815.737 173.071 815.516 173.293 815.294 173.514 815.073 173.514 814.851 173.514 814.63 173.293 814.409 173.293 814.409 173.071 814.409 172.85 814.409 172.628 814.409 172.407 814.187 172.186"/><polygon class="cls-1" points="806.88 170.193 807.101 169.971 807.322 169.971 807.544 169.75 807.987 169.75 808.208 169.75 808.43 169.75 808.43 170.193 808.43 170.414 808.651 171.743 808.873 172.407 808.651 172.628 808.43 172.628 808.208 172.628 807.765 172.628 807.544 172.628 807.322 172.628 807.101 172.186 807.101 171.743 807.101 171.521 807.101 171.078 807.101 170.857 807.101 170.635 806.88 170.414 806.88 170.193"/><polygon class="cls-1" points="804.223 161.999 804.223 161.778 804.444 161.778 804.665 161.556 804.887 161.556 805.33 161.556 805.551 161.556 805.994 161.556 806.216 161.556 806.437 161.556 806.658 161.556 806.88 161.556 806.88 161.778 807.101 161.778 807.101 161.999 806.88 162.442 806.88 162.663 806.437 162.885 805.33 162.885 804.887 162.885 804.665 162.885 804.444 162.663 804.223 162.663 804.223 162.442 804.223 162.221 804.223 161.999"/><polygon class="cls-1" points="806.216 163.549 806.437 163.328 806.658 163.328 806.88 163.106 807.101 163.106 807.322 163.106 807.544 163.106 807.765 163.106 807.987 163.106 807.987 163.328 808.208 163.771 807.987 163.992 807.987 164.214 807.765 164.214 807.544 164.435 807.322 164.435 807.101 164.435 806.88 164.435 806.658 164.435 806.437 164.435 806.216 164.214 806.216 163.992 806.216 163.771 806.216 163.549"/><polygon class="cls-1" points="815.737 163.328 815.959 163.328 816.402 163.328 816.623 163.549 816.623 164.214 816.402 164.214 815.959 164.214 815.737 164.214 815.737 163.549 815.737 163.328"/><polygon class="cls-1" points="820.387 163.106 820.608 162.885 821.051 162.885 821.937 162.663 822.159 162.885 822.159 163.106 822.159 164.214 821.716 164.214 821.495 164.435 821.273 164.435 821.051 164.435 820.83 164.435 820.608 164.435 820.608 164.214 820.387 164.214 820.387 163.992 820.387 163.771 820.387 163.549 820.387 163.328 820.387 163.106"/><polygon class="cls-1" points="821.051 167.978 813.301 167.978 813.301 174.4 811.973 174.179 811.751 165.321 823.044 165.099 823.044 173.514 821.051 173.514 821.051 167.978"/><polygon class="cls-1" points="808.651 168.2 806.437 168.2 806.437 169.528 805.33 169.528 805.551 173.293 803.115 173.071 802.894 165.542 811.751 165.321 811.973 174.179 810.201 174.179 809.98 169.528 808.651 169.528 808.651 168.2"/></g><g id="wegen_GIS_" data-name="wegen (GIS)"><g id="muur"><path class="cls-3" d="M901.7761,178.7764c-42.572,2.5355-86.572,2.5355-129.2714,2.9791"/><path class="cls-3" d="M682.88,206.1378l-.2132-8.2607a1.86,1.86,0,0,0-1.9281-1.8108l-55.8035,2.06-74.1956,1.2673-12.6432,2.263-11.5045,1.5688-1.0474-3.0574-20.9111.6427a2.2448,2.2448,0,0,0-1.9243,1.2113l-4.25,8.204a2.1692,2.1692,0,0,1-2.3329,1.133l-24.0779-4.5967-7-.1555-25.0446.7-46.9974,2.39-62.4324-3.7256-61.2151-8.5435L232.8335,201.19l-19.7519-1.646L187.5361,187.67"/><path class="cls-3" d="M153.43,183.0562c-45.2257.2557-90.2257,2.2557-135.051,1.0055"/><path class="cls-3" d="M18.5747,119.638c36.6294-.3261,73.6294-.3261,110.1774.034"/><path class="cls-3" d="M204.7778,75.1436a39.7213,39.7213,0,0,1,7.186-.2942l37.4052-.117,23.5627,3.0642,10.5663,9.8266,6.4454,9.721-.3377,14.3548a3.5138,3.5138,0,0,0,3.5239,3.5965l64.0153-.2,36.5592-1.0566,47.9709.2113,116.2107-.6976,30.4359-.2571,29.076-6.6369,32.6577-4.6353L657.64,105.5l5.8994,5.6888,115.83,4.3193,2.107-7.5324,45.0888,3.4765,38.0305,2.1069,8.3516-.39a3.0935,3.0935,0,0,0,2.949-3.06l.0769-7.9272"/><path class="cls-3" d="M898.722,103.3152c.1987,2.7764-.9832,8.6843,3.37,8.6764"/></g><g id="pad"><polyline class="cls-4" points="470.235 175.817 470.932 187.971 468.563 196.477 468.666 202.878"/></g><g id="weg"><path id="weg44" class="cls-5" d="M732.0249,192.2576l4.6483-.13c.4825,16.7352.1215,8.4272.604,25.1624-1.625.04-2.9805-.04-4.6055,0C732.2645,200.5586,732.4321,208.9892,732.0249,192.2576Z"/><path id="weg38" class="cls-5" d="M73.4049,292.0542l.1793-4.6475,79.6087,3.0788,23.4143-10.623,1.9209,4.2348-23.9147,10.85a2.3281,2.3281,0,0,1-1.05.2064Z"/><path id="weg36" class="cls-5" d="M171.3549,241.5931a2.2951,2.2951,0,0,1,.0248-.3379l13.2864-90.35,4.6006.6767-13.2413,90.0443,4.6141,39.1122,2.88,25.2536-4.62.5262L176.02,281.2738l-4.6492-39.4086A2.3751,2.3751,0,0,1,171.3549,241.5931Z"/><rect id="weg33" class="cls-5" x="139.3629" y="92.4611" width="113.189" height="4.6502" transform="translate(72.025 273.7401) rotate(-81.1094)"/><rect id="weg12" class="cls-5" x="787.2714" y="152.0007" width="8.1929" height="4.6501"/><rect id="weg05" class="cls-5" x="731.47" y="154.9815" width="4.6504" height="37.2194" transform="matrix(0.9996, -0.0298, 0.0298, 0.9996, -4.8528, 21.9719)"/><rect id="weg02" class="cls-5" x="884.9347" y="42.9905" width="4.6503" height="71.3081" transform="translate(-0.693 8.255) rotate(-0.5329)"/></g><g id="hoofdweg"><polygon class="cls-6" points="892.408 143.371 891.3 143.371 795.863 142.707 753.348 142.707 729.876 143.371 694.003 145.586 657.91 148.686 562.915 157.322 545.644 158.208 427.177 164.851 424.519 165.073 396.176 165.073 322.439 159.979 296.752 158.208 199.986 148.243 194.229 147.8 194.007 147.8 186.478 147.578 182.493 147.357 175.85 146.914 152.378 147.136 134.885 147.136 126.913 146.914 29.04 146.25 14.409 146.151 14.409 159.814 174.078 159.979 192.679 162.637 200.872 164.187 202.2 164.408 203.75 164.63 206.408 165.515 207.072 165.515 224.344 164.851 273.945 168.394 304.06 170.166 313.138 170.83 341.482 173.709 422.748 175.702 431.162 175.923 467.477 176.145 498.256 173.931 560.258 169.502 562.029 169.502 632.002 163.965 674.739 161.308 716.811 157.765 723.454 156.879 725.668 156.436 733.64 156.436 736.076 156.658 741.169 156.658 744.711 155.994 904.093 155.994 904.093 143.288 892.408 143.371"/></g></g><g id="monumenten_outline_GIS_" data-name="monumenten outline (GIS)"><polygon id="monumenten_outline_-_VI_-_archeologie_kleur" data-name="monumenten outline - VI - archeologie kleur" class="cls-1" points="227.436 100.021 229.65 96.921 232.307 96.478 234.3 94.264 238.064 90.942 240.943 88.949 242.936 87.399 244.707 85.406 249.8 83.856 255.779 84.52 261.536 84.742 266.851 87.62 271.279 91.606 274.379 95.149 277.037 99.578 278.586 103.343 279.251 107.772 280.137 111.979 279.251 116.851 278.143 121.28 276.372 125.266 273.494 129.03 271.279 131.245 268.844 132.795 266.186 134.788 263.308 136.117 257.993 136.338 252.679 136.781 248.915 136.338 243.6 135.231 240.943 133.459 236.293 130.359 233.857 128.145 232.307 125.487 230.757 122.83 229.428 120.394 228.321 117.515 228.321 115.301 227.657 113.086 227.214 110.872 226.328 107.329 226.107 103.564 227.436 100.021"/><path id="monumenten_outline_-_I_-_archeologie_kleur" data-name="monumenten outline - I - archeologie kleur" class="cls-1" d="M692.62,177.874v-.4429l.2212-.2215.4429-.2214.2216.2214.2212.2215v1.7715l.2217.4429v.2215l.2212.2214v.2214l-.2212.2215v.4429l-.2217.4429v1.3286l-.2212.4429-.2216.2215v.4428l-.2212.2215h-.6645l-.2212-.4429v-.6643l.2212-.4429v-2.8788l.2216-.6643V177.874Zm4.2073,8.4148v-.4429h.2212v-.2214l.2217-.2214h.2212v-.2215l-.2212-.2214v-.2215h.4428v-.2214h.2212l.2217.2214v.2215h.2212v.2214h-.2212v1.1072h0v.6644l-.2217.2214h-.2212l-.2216.2215-.2212-.2215h-.2217v-.4429h-.2212v-.4429Zm3.1,3.3217v-.2214h.2212v-.2215l.2216.2215h.4429v.4428h.2216v.2215l-.2216.2214h-.2212v.2215H700.37v-.2215h-.4428v-.2214h-.2217l.2217-.2215Zm-.6645,1.1072.2216-.2214v.2214h1.3286v1.1072h-1.3286l-.2216-.2214v-.8858Zm-6.2,19.2657h-.2217v.2214H692.62l-.2216-.2214v.2214h-3.1v-1.55h1.9931l.2212-.2214h1.7714v-.2215l.2216.2215v-.2215h.4429v-1.55h-.8857v.2214H692.62v-.2214h-.2216v.2214h-.2212v-.2214l-.2217.2214H689.52v-1.1072h.4428l.2212-.2214v.2214h.2217l.2212-.2214h2.6571v-.2215h.6645v-.8857l-.2217-.2215v-5.3146h-.2212v-5.979h-.2216v-5.5361h-.2212v-.2215l-.2217.2215h-2.6571v-.2215l-.2212-.2214h.2212v-.8858h.4429v-.2215h1.3285v-.2214h.4429v.2214h.4428l.4429-.2214h.2216v.2214h.2212v-.2214h.4429v0h.4428v.2214l.2217-.2214h.8857l.2216.2214v.8858h-.6645v.4429h.4429v-.2214h.2216v-.2215h.2212V186.51h.2217l.2212.2214V188.06l-.2212.2214h-.2217l-.2212.2215-.2216.2214h-.8857l-.2217.2215h-.2212v1.3286l.2212.2215v2.2144h.2217v2.2145h-.2217v.2214h.2217v1.7715h.2216l-.2216.2215v3.3217h.2216v.2214l-.2216.4429.2216.2214-.2216.4429.2216.8858v4.65l.2212.4429v3.986H694.17l-.2212-.2214v-1.55h-.2217l-.2212.2214v-.2214h-.4428Zm21.9217-21.923h-.2212v-.2215h-.2217v-.2214h.2217v-.2214h.2212v-.2215h.8857v-1.3287h.2216l-.2216-.2214v-3.3217h-.2212l-.2217-.2214h-.8857V181.86h-.2212v-.6643h2.2143v2.8788l.2212.2214v.2215h-.2212v.2214h.2212v2.2145h1.7718v.2214l-.2216.2215h.2216v.4428l-.2216.2215h-3.3216ZM692.62,223.0486v-.2215h.4429l.2212-.2214h.4428v-.2215h.4429v.4429l.2216.2215v.6643h.2212v.2214h-.2212l-.2216.2215h-.6641l-.4428.2214v-.2214Zm15.7218-5.979h.8857v-.2215h.4429l.2212.2215h.2216v1.1072h.2212v.2214h-.2212l-.2216.2215H708.785v-.2215h-.2217v-.8857l-.2212-.2215Zm11.2929,1.1072-.4428-9.7435h1.55l.4428,9.7435Zm-1.7714,1.3287v-1.1073h.8857V217.291l-.2212-.2214v-3.986h-.2216v-4.2075l-.2212-.2214.2212-.2214h-1.7714v.2214H713.878v1.3287h.2212v2.2144h.2216v.2214h0v.8858h0v.2215h-.2216l.2216.2214V215.52h-.4428l.2212.2214v.2215l-.2212.2214h0l.2212.2214V218.62h.8857v.4429h.2216v.6643l-.2216.2215h-.6641v.2214l-.2216.2214v.6644l.2216.2214v.4429l-.2216.2214v1.993h.2216v2.6574l-1.1073.2214h-.2212V226.37l.2212-.2214-.2212-.2215v-.2214h.2212l-.2212-.2214V219.284h-.2217v-3.5431h-2.8787v.2215h-3.1v.2214h-.6645l-.2212.2214v-.2214h-.6645l-.2212.2214h-.6644v-.2214h-2.8783l-.2217.2214h-1.993v-.2214h-.2212v-4.2074H698.82v-.4429h0v-1.1072l-.2212-.2215v-.6643h.2212l-.2212-.2215v-.2214l.2212-.2215h-.2212v-1.3286h.2212v-.2215h0v-2.8787h-.2212V203.34h.2212v-1.55l-.2212-.8857V195.59l-.2216-.2214v-3.1h1.55v-.2214h.2212l.2216.2214h.6645v-.4429h.2212v-.4429h-.2212v-2.8787h-.4428v.2214h-.6645v-.2214h-.2217v-.2215h-.2212V188.06h-.2216l.2216-.2215v-.2214l.2212-.2214V186.51l.2217-.2215v-.4429h1.1073v-.2214l.2212.2214h.6645v-.2214h.6641v-.4429h-.2212l.2212-.2214v-.2215h-.2212v-.2214h0v-.4429h.2212v-.2215h.2216v-.2214h1.7714V183.41h.8857v0h.664v.2214h.4433l.2212-.2214h1.1074v-.2215h.2212v-.2214h.4428v-.2215h.4429v.2215h.4428v.2214h.8857v.4429h-.2212v.6643h.2212v.8858l.2217.2215v.4428h-.2217v-.2214h-.4428v2.2144h.2216v.4429h-.2216v.6644l.2216.2214v2.6573H711.22v-.2214h.2217v.2214h.2212v-.2214h1.1073v.6643h.6645v.6644h-.2216v.2214h0v.2214h.2216l.2212.2215v.2214l-.2212.2215h.2212v5.3146l.2217.2215v2.6573h-.2217l.2217.2215-.2217.2214h.2217v.4429h-.2217v.2214l.2217.2215h-.2217l.2217.2214v3.3217h.664v.2214h2.2143l.4428-.2214h1.55v1.3287h.2217v1.55h.2212v.2214l-.2212.2215v.4428h.2212v3.7646l.2216.2214v3.5431H720.3l.2212-.2214h.2217l.2212.2214h.2216v.6644l-.2216.2214v.2215H718.971v.2214h-1.1074Zm-3.5428,4.8717v-4.4288h1.1069v-1.1073h1.55l.2212-.2214h.4429v1.1072h.2216l3.7645-.2214v.2214l.4428,6.4219-7.5289.4429Zm2.2143,3.7646h-.8857v.2214h-3.5428v.2215h-3.5433v.2214h-1.55v.2215h-3.7644l-.2217.2214h-6.6427v.2214H695.72v-.2214l-.2212.2214v-.2214l-.2217.2214h-.2212v-.2214l-.4433.2214v-.2214h-5.3142V227.92h.2217v-.2215h4.8713l.4429-.2215h4.8713l.2217-.2214h3.1v-.2214h.4429v.2214h.2216v-.2214h.6641l.2216.2214.2212-.2214h.2216v.2214h.6641l.2216-.2214H711.22l.2217-.2215h3.1v-.2214h3.1V226.37h.2216v.2215h2.2143l.4428-.2215h.6645l.2212.2215.2217.2214v.6643h-.2217v.443h-.2212l-.2216.2214h-4.4285Zm33.215-36.76.2212-25.0231,20.8148-.8858v25.2446Z"/><polygon id="monumenten_outline_-_V" data-name="monumenten outline - V" class="cls-7" points="625.129 119.005 626.015 117.234 628.008 115.684 630.444 115.462 642.623 114.355 644.616 114.576 647.051 117.455 649.709 118.784 651.258 120.777 651.923 123.656 651.258 139.821 650.816 142.7 647.937 142.921 627.344 144.693 626.237 144.693 621.365 142.7 624.908 121.663 625.129 119.005"/></g></svg>