<svg xmlns="http://www.w3.org/2000/svg" viewBox="0 0 952.7578 340.1575"><defs><style>.cls-1,.cls-2{fill:#d0d0d0;}.cls-1,.cls-3,.cls-4,.cls-7{fill-rule:evenodd;}.cls-3,.cls-4{fill:none;stroke-miterlimit:10;stroke-width:2px;}.cls-3{stroke:#b08a71;}.cls-4{stroke:#d0d0d0;}.cls-5{fill:#9d9d9c;}.cls-6{fill:#fbe100;}.cls-7{fill:#951b81;}</style></defs><g id="archeologie_GIS_" data-name="archeologie (GIS)"><polygon class="cls-1" points="521.998 191.46 523.769 194.561 525.984 194.339 525.541 196.111 523.105 196.111 521.998 196.775 521.777 197.218 521.555 198.547 521.555 199.432 521.777 200.318 522.219 201.204 522.662 202.09 523.327 203.861 524.212 205.854 523.548 207.183 517.126 206.519 516.462 203.861 517.791 199.211 514.912 195.446 521.998 191.46"/><polygon class="cls-1" points="528.42 194.561 530.191 194.561 530.855 191.682 531.962 191.239 532.627 191.018 533.734 190.575 536.391 191.239 535.063 202.533 534.62 208.29 527.534 204.969 529.527 202.311 530.191 196.554 528.641 195.889 528.42 194.561"/><polygon class="cls-1" points="370.981 184.374 371.423 185.924 369.431 185.703 369.873 184.153 370.981 184.374"/><polygon class="cls-1" points="367.659 185.039 366.109 187.253 365.445 187.032 366.552 184.596 367.659 185.039"/><polygon class="cls-1" points="363.009 190.575 362.788 192.125 358.58 192.346 358.58 190.575 363.009 190.575"/><polygon class="cls-1" points="358.802 193.232 358.58 193.675 356.145 193.232 355.923 193.011 358.802 193.232"/><polygon class="cls-1" points="361.459 203.418 366.773 203.197 366.552 197.439 365.223 197.661 365.223 196.775 367.659 196.554 367.659 204.083 360.795 204.526 360.573 202.09 361.459 201.868 361.459 203.418"/><polygon class="cls-1" points="348.616 188.582 348.837 189.246 348.394 189.467 348.173 188.582 348.616 188.582"/><polygon class="cls-1" points="337.544 186.589 336.88 187.474 336.437 186.589 336.88 186.367 337.544 186.589"/><polygon class="cls-1" points="336.88 185.703 336.88 185.924 336.437 186.589 336.437 186.146 336.88 185.703"/><polygon class="cls-1" points="308.758 185.26 308.758 186.146 307.651 186.367 307.872 185.26 308.758 185.26"/><polygon class="cls-1" points="305.215 190.353 305.436 191.018 304.772 191.46 304.551 190.796 305.215 190.353"/><polygon class="cls-1" points="301.008 187.032 300.786 187.917 299.901 188.139 299.901 187.253 301.008 187.032"/><polygon class="cls-1" points="255.393 179.502 255.835 180.388 253.621 181.053 253.178 179.945 255.393 179.502"/><polygon class="cls-1" points="246.757 183.71 246.978 185.039 243.657 185.481 243.657 184.374 246.757 183.71"/><polygon class="cls-1" points="236.792 191.018 236.128 191.903 235.242 191.239 235.464 190.575 236.792 191.018"/><polygon class="cls-1" points="233.913 183.71 233.692 184.153 232.806 183.931 233.028 183.046 233.913 183.71"/><polygon class="cls-1" points="245.207 190.132 246.314 198.547 240.556 198.104 240.556 191.903 245.207 190.132"/><polygon class="cls-1" points="240.556 191.903 240.556 193.011 239.449 192.568 239.006 191.903 240.556 191.903"/><polygon class="cls-1" points="224.17 190.132 224.835 198.104 219.077 198.325 219.52 189.91 224.17 190.132"/><polygon class="cls-1" points="208.227 191.903 208.227 193.011 207.12 192.568 206.899 191.903 208.227 191.903"/><polygon class="cls-1" points="206.677 191.903 206.677 192.789 205.349 192.789 205.349 191.682 206.677 191.903"/><polygon class="cls-1" points="188.298 195.004 188.298 195.668 184.312 195.889 184.312 195.004 184.534 194.339 186.084 194.339 186.748 194.339 188.298 194.339 188.298 195.004"/><polygon class="cls-1" points="188.298 194.339 188.298 195.004 186.527 195.004 186.748 194.339 188.298 194.339"/><polygon class="cls-1" points="186.084 194.339 186.084 195.004 184.312 195.004 184.534 194.339 186.084 194.339"/><polygon class="cls-1" points="178.555 187.917 178.555 188.803 177.669 189.025 177.448 188.36 178.555 187.917"/><polygon class="cls-1" points="140.247 185.703 138.476 190.132 138.033 190.132 138.254 189.91 138.254 189.689 138.254 189.467 138.254 189.246 137.811 188.803 137.147 188.36 136.483 188.139 135.819 187.917 135.819 187.253 132.719 187.032 132.94 185.924 140.247 185.703"/><polygon class="cls-1" points="141.133 204.747 141.797 208.512 139.362 208.733 138.476 205.19 141.133 204.747"/><polygon class="cls-1" points="141.354 198.99 142.683 200.983 140.912 201.647 139.14 203.197 140.026 200.983 141.354 198.99"/><polygon class="cls-1" points="127.404 210.726 130.283 210.505 130.504 209.397 136.704 210.062 139.362 210.062 140.69 210.505 140.912 210.948 142.24 211.169 142.019 211.612 127.626 211.833 127.404 210.726"/><polygon class="cls-1" points="131.168 199.432 134.49 199.432 134.711 195.446 136.483 195.446 137.369 195.004 137.811 194.339 138.033 193.453 138.254 193.011 138.254 192.568 139.362 192.568 138.697 195.446 136.483 195.889 135.819 199.432 136.04 201.425 135.597 201.425 134.933 209.84 134.047 209.84 134.49 201.425 131.168 201.204 131.168 199.432"/><polygon class="cls-1" points="126.74 210.505 125.633 216.041 112.347 216.041 113.011 212.941 115.668 200.761 118.325 187.032 123.418 187.032 120.761 200.097 118.99 209.619 126.74 210.505"/><polygon class="cls-1" points="79.916 185.849 79.695 186.513 79.252 186.513 79.031 186.513 78.809 186.292 79.031 185.627 79.916 185.849"/><polygon class="cls-1" points="82.352 186.956 81.909 187.62 80.138 186.734 80.359 186.07 82.352 186.956"/><polygon class="cls-1" points="80.581 187.399 81.466 188.727 80.359 189.392 79.695 188.063 80.581 187.399"/><polygon class="cls-1" points="82.573 187.842 83.016 188.727 82.573 189.392 82.131 188.506 82.573 187.842"/><polygon class="cls-1" points="94.632 211.612 92.861 224.677 76.475 220.47 73.817 204.083 74.703 200.097 79.575 200.983 82.01 209.176 94.632 211.612"/><polygon class="cls-1" points="85.553 203.197 89.318 203.861 89.539 202.09 91.532 202.311 91.311 204.083 104.154 203.197 105.925 188.582 109.69 188.582 106.147 206.962 103.711 206.74 90.425 206.519 89.539 207.404 88.21 207.183 88.432 206.076 85.11 205.411 85.553 203.197"/><polygon class="cls-1" points="27.509 184.969 27.288 186.52 26.181 186.52 26.402 184.969 27.509 184.969"/><polygon class="cls-1" points="38.138 188.513 38.359 192.277 35.481 194.27 31.495 193.606 29.281 191.613 30.831 188.07 33.488 187.405 38.138 188.513"/><polygon class="cls-1" points="46.11 191.613 45.888 192.277 45.224 192.941 44.338 193.163 43.895 193.384 43.452 193.384 42.788 192.72 42.567 192.499 42.345 191.834 42.567 191.17 42.788 190.506 43.009 190.284 43.674 189.841 44.56 189.398 45.224 189.177 45.667 189.841 45.888 190.506 46.11 191.613"/><polygon class="cls-1" points="56.738 193.827 55.853 195.377 54.745 196.042 53.417 196.042 52.753 195.82 51.203 194.934 50.981 194.27 50.981 194.049 50.317 192.277 50.538 191.391 51.203 190.727 52.088 190.284 53.195 189.841 53.86 189.841 54.524 190.063 55.853 190.948 55.853 192.056 56.738 193.163 56.738 193.827"/><polygon class="cls-1" points="52.088 183.641 52.088 185.191 49.874 184.748 49.874 183.419 52.088 183.641"/><polygon class="cls-1" points="49.874 182.755 48.545 184.748 47.217 183.862 48.545 182.091 49.874 182.755"/><polygon class="cls-1" points="49.874 182.312 50.538 183.198 50.538 183.419 49.874 182.755 49.874 182.312"/><polygon class="cls-1" points="51.867 182.312 52.088 182.976 51.424 182.976 51.203 182.312 51.867 182.312"/><polygon class="cls-1" points="58.51 184.748 58.067 186.077 56.296 185.855 56.738 184.748 58.51 184.748"/><polygon class="cls-1" points="61.831 186.077 61.61 187.184 58.51 186.077 58.731 184.969 61.831 186.077"/><polygon class="cls-1" points="63.16 186.962 62.938 187.184 62.717 187.627 62.496 187.627 62.274 187.627 62.053 187.405 62.053 187.184 61.831 186.741 61.831 186.52 62.053 186.077 62.274 186.077 62.496 185.634 62.717 185.634 63.16 186.077 63.16 186.52 63.16 186.962"/><polygon class="cls-1" points="64.488 186.298 64.488 187.184 63.16 186.741 63.381 186.298 64.488 186.298"/><polygon class="cls-1" points="66.26 185.855 66.26 186.962 64.488 186.962 64.488 186.077 66.26 185.855"/><polygon class="cls-1" points="68.474 186.077 68.474 186.962 66.481 186.962 66.481 186.298 68.474 186.077"/><polygon class="cls-1" points="68.917 186.298 68.917 186.962 68.696 186.962 68.474 186.52 68.917 186.298"/><polygon class="cls-1" points="392.017 183.267 392.017 184.153 390.91 184.374 390.91 183.488 392.017 183.267"/><polygon class="cls-1" points="403.753 175.295 403.974 176.402 402.203 176.845 401.981 175.738 403.753 175.295"/><polygon class="cls-1" points="412.389 175.959 412.389 177.067 411.06 177.288 410.839 176.402 412.389 175.959"/><polygon class="cls-1" points="412.389 181.717 411.503 183.267 410.839 183.046 411.281 181.495 412.389 181.717"/><polygon class="cls-1" points="413.717 193.896 413.274 194.782 413.053 194.118 413.053 193.896 413.717 193.896"/><polygon class="cls-1" points="432.76 184.374 432.982 185.703 430.989 185.481 431.432 184.374 432.76 184.374"/><polygon class="cls-1" points="436.968 184.153 436.968 185.703 434.975 185.481 434.532 184.153 436.968 184.153"/><polygon class="cls-1" points="442.061 183.488 441.618 185.039 439.182 184.817 438.961 183.267 442.061 183.488"/><polygon class="cls-1" points="444.939 183.931 444.939 185.26 442.946 185.26 443.168 183.71 444.939 183.931"/><polygon class="cls-1" points="450.918 183.931 450.918 185.703 449.146 185.703 449.368 184.153 450.918 183.931"/><polygon class="cls-1" points="458.004 187.917 457.782 197.218 452.468 196.997 452.689 188.582 458.004 187.917"/><polygon class="cls-1" points="485.24 188.582 486.569 197.661 477.047 196.997 479.261 188.36 485.24 188.582"/><polygon class="cls-1" points="495.647 185.703 495.647 187.032 492.326 187.253 492.769 185.481 495.647 185.703"/><rect class="cls-2" x="499.6332" y="185.26" width="1.3286" height="1.3287"/><polygon class="cls-1" points="502.512 184.596 502.29 186.367 500.962 186.589 500.962 185.26 502.512 184.596"/><rect class="cls-2" x="502.2904" y="184.8171" width="1.9929" height="1.5501"/><polygon class="cls-1" points="511.812 180.831 511.591 181.938 510.262 181.495 510.262 180.388 511.812 180.831"/><polygon class="cls-1" points="551.67 181.274 551.227 181.938 550.784 181.495 551.227 180.61 551.67 181.274"/><rect class="cls-2" x="580.4563" y="182.3812" width="1.7715" height="1.3287"/><polygon class="cls-1" points="592.635 181.274 592.414 181.938 590.421 181.938 590.421 181.274 592.635 181.274"/><polygon class="cls-1" points="599.5 181.053 599.5 182.381 597.507 182.603 597.507 180.831 599.5 181.053"/><polygon class="cls-1" points="630.722 182.16 631.386 183.267 630.279 184.153 629.614 183.267 630.722 182.16"/><polygon class="cls-1" points="649.765 182.16 649.986 183.931 648.658 184.153 648.436 182.603 649.765 182.16"/><polygon class="cls-1" points="647.772 184.374 647.993 185.924 646.001 185.924 644.672 185.26 644.672 184.817 647.772 184.374"/><polygon class="cls-1" points="647.993 180.167 648.215 180.831 647.329 181.053 647.329 180.388 647.993 180.167"/><polygon class="cls-1" points="672.13 184.817 672.13 197.218 656.629 197.439 656.186 185.703 672.13 184.817"/><polygon class="cls-1" points="666.372 182.824 665.93 184.596 662.387 184.153 662.608 182.824 666.372 182.824"/><polygon class="cls-1" points="669.694 183.046 669.472 184.596 665.93 184.374 666.372 182.824 669.694 183.046"/><polygon class="cls-1" points="667.037 183.931 667.258 185.039 665.265 185.039 665.265 183.931 667.037 183.931"/><polygon class="cls-1" points="677.223 177.067 677.223 178.395 673.237 178.395 673.458 177.067 677.223 177.067"/><polygon class="cls-1" points="686.08 182.16 686.08 183.931 682.537 183.488 682.98 182.16 686.08 182.16"/><polygon class="cls-1" points="745.424 192.789 745.424 193.896 744.317 193.675 744.317 192.568 745.424 192.789"/><rect class="cls-2" x="724.709" y="184.2526" width="1.1292" height="1.1291" transform="translate(401.8126 859.7631) rotate(-78.6905)"/><polygon class="cls-1" points="726.824 184.596 726.824 185.703 725.716 185.481 725.938 184.374 726.824 184.596"/><polygon class="cls-1" points="726.824 183.931 727.045 184.153 726.824 184.596 726.602 184.153 726.824 183.931"/><polygon class="cls-1" points="726.824 185.703 726.824 186.589 725.052 187.032 724.831 185.703 726.824 185.703"/><rect class="cls-2" x="800.118" y="179.0596" width="2.2143" height="1.5501"/><polygon class="cls-1" points="853.483 183.267 853.483 185.039 851.712 184.817 851.712 183.046 853.483 183.267"/><polygon class="cls-1" points="851.49 183.046 851.49 184.817 849.055 184.817 848.833 182.824 851.49 183.046"/><polygon class="cls-1" points="848.39 182.824 848.39 184.596 846.619 184.596 846.619 182.603 848.39 182.824"/><polygon class="cls-1" points="848.39 183.046 848.39 184.596 846.619 184.374 846.84 183.046 848.39 183.046"/><rect class="cls-2" x="844.8475" y="182.6027" width="1.3286" height="1.993"/><polygon class="cls-1" points="844.183 182.381 843.962 184.374 842.19 184.374 842.412 182.16 844.183 182.381"/><polygon class="cls-1" points="867.434 182.381 867.655 183.931 865.441 184.374 865.219 182.824 867.434 182.381"/><polygon class="cls-1" points="872.527 183.267 871.198 183.931 870.091 181.495 871.419 180.831 872.527 183.267"/><polygon class="cls-1" points="869.869 176.624 870.312 177.731 868.984 178.174 868.319 177.067 869.869 176.624"/><polygon class="cls-1" points="361.016 152.265 360.573 153.593 359.466 153.372 359.909 151.822 361.016 152.265"/><polygon class="cls-1" points="344.409 159.794 344.187 160.458 343.744 160.458 343.523 160.237 343.744 159.351 344.409 159.794"/><polygon class="cls-1" points="349.944 152.265 349.28 153.151 348.394 152.708 349.059 151.379 349.944 152.265"/><polygon class="cls-1" points="347.509 146.729 347.066 147.836 345.516 147.172 346.18 146.064 347.509 146.729"/><polygon class="cls-1" points="338.651 159.572 338.651 160.237 338.208 160.458 337.323 160.237 337.323 160.015 337.987 159.572 338.651 159.572"/><polygon class="cls-1" points="338.208 155.808 338.208 156.694 337.544 156.472 337.544 156.029 338.208 155.808"/><polygon class="cls-1" points="335.773 161.123 335.994 162.008 334.887 162.673 334.444 162.451 335.108 161.565 335.773 161.123"/><polygon class="cls-1" points="334.444 160.901 334.887 161.344 334.666 161.787 334.223 161.123 334.444 160.901"/><polygon class="cls-1" points="335.33 157.801 335.33 158.244 334.666 158.465 334.001 158.244 333.78 157.801 334.887 157.579 335.33 157.801"/><polygon class="cls-1" points="333.115 157.137 334.223 158.687 333.558 158.687 332.673 157.358 333.115 157.137"/><polygon class="cls-1" points="333.115 147.172 332.008 152.486 326.694 153.593 322.708 151.6 322.044 145.843 325.144 142.521 331.344 143.186 333.115 147.172"/><polygon class="cls-1" points="314.072 156.472 314.072 156.915 312.744 156.694 312.965 156.251 314.072 156.472"/><polygon class="cls-1" points="310.972 158.244 310.087 159.794 308.315 158.908 308.979 157.358 310.972 158.244"/><polygon class="cls-1" points="306.322 159.13 306.101 159.794 305.215 160.015 303.665 156.694 304.551 155.808 306.322 159.13"/><polygon class="cls-1" points="304.551 158.244 304.108 158.908 302.336 158.687 302.336 156.915 303.886 156.915 304.551 158.244"/><polygon class="cls-1" points="280.193 152.486 279.972 153.815 279.529 154.036 277.536 153.372 277.757 151.822 280.193 152.486"/><polygon class="cls-1" points="275.543 150.272 275.321 150.493 275.1 150.715 274.436 150.493 274.879 150.05 275.543 150.272"/><polygon class="cls-1" points="272.443 146.95 272.443 147.393 271.114 147.836 271.336 146.95 272.443 146.95"/><polygon class="cls-1" points="268.457 146.95 267.793 149.607 265.136 152.043 258.935 150.715 257.607 146.95 258.05 144.957 266.464 145.179 268.457 146.95"/><polygon class="cls-1" points="266.907 147.614 266.686 148.722 266.464 148.5 266.686 147.614 266.907 147.614"/><polygon class="cls-1" points="262.7 154.701 262.921 155.144 260.707 155.586 260.928 154.479 261.814 154.258 262.7 154.701"/><polygon class="cls-1" points="259.378 146.286 259.378 146.729 258.493 146.729 258.935 146.064 259.378 146.286"/><polygon class="cls-1" points="243.214 148.057 243.435 148.5 242.328 148.722 243.214 148.057"/><polygon class="cls-1" points="236.792 150.715 236.571 151.379 235.906 150.936 237.014 150.272 236.792 150.715"/><polygon class="cls-1" points="235.242 148.057 236.349 148.943 235.242 149.386 235.242 148.057"/><polygon class="cls-1" points="211.992 153.151 211.992 154.479 210.442 153.815 211.327 152.708 211.992 153.151"/><polygon class="cls-1" points="201.584 156.694 202.913 157.137 202.027 157.579 201.584 156.694"/><polygon class="cls-1" points="201.584 154.258 202.027 154.922 201.141 155.365 200.92 154.701 201.584 154.258"/><polygon class="cls-1" points="194.277 152.043 194.056 152.929 193.17 152.708 194.277 152.043"/><polygon class="cls-1" points="193.17 150.05 192.727 151.158 192.284 150.493 192.727 149.829 193.17 150.05"/><polygon class="cls-1" points="185.198 152.265 185.42 154.701 181.877 154.701 181.655 152.043 185.198 152.265"/><polygon class="cls-1" points="161.283 152.043 161.726 153.151 160.619 153.593 159.733 152.265 161.283 152.043"/><polygon class="cls-1" points="195.163 149.386 195.163 150.272 194.498 149.607 194.72 148.943 195.163 149.386"/><polygon class="cls-1" points="156.633 161.344 156.412 162.23 155.083 161.787 155.526 160.458 156.633 161.344"/><polygon class="cls-1" points="154.862 160.458 154.862 162.451 153.755 162.451 153.312 160.901 154.862 160.458"/><polygon class="cls-1" points="148.219 158.465 149.769 160.015 147.112 162.23 146.005 160.901 148.219 158.465"/><polygon class="cls-1" points="141.797 156.251 141.133 157.358 139.362 156.251 140.247 154.922 141.797 156.251"/><polygon class="cls-1" points="142.019 152.486 142.462 153.151 142.24 153.372 141.354 152.929 142.019 152.486"/><polygon class="cls-1" points="141.133 153.151 140.69 154.479 139.362 154.258 138.919 153.151 139.14 152.708 141.133 153.151"/><polygon class="cls-1" points="700.916 146.286 700.473 147.172 699.809 146.95 699.145 145.843 700.473 144.736 700.916 146.286"/><polygon class="cls-1" points="693.83 149.165 694.494 150.493 692.723 151.379 692.28 150.272 693.83 149.165"/><polygon class="cls-1" points="691.837 149.829 692.501 151.379 690.73 151.822 690.509 150.493 691.837 149.829"/><polygon class="cls-1" points="690.066 150.493 690.509 152.486 687.187 152.929 686.744 151.6 690.066 150.493"/><polygon class="cls-1" points="701.137 154.036 700.473 156.472 699.145 156.251 698.923 154.036 701.137 154.036"/><polygon class="cls-1" points="696.266 153.593 697.373 155.144 695.602 156.251 695.159 154.479 696.266 153.593"/><polygon class="cls-1" points="692.944 153.815 694.494 155.808 692.723 156.694 691.394 155.144 692.944 153.815"/><polygon class="cls-1" points="690.951 158.465 690.509 159.572 688.959 158.908 689.18 158.244 690.066 158.022 690.951 158.465"/><polygon class="cls-1" points="687.63 157.358 688.737 159.13 686.966 160.015 686.301 158.244 686.744 157.358 687.63 157.358"/><polygon class="cls-1" points="686.744 158.687 686.744 159.794 686.08 159.794 685.637 158.908 685.859 158.244 686.744 158.687"/><polygon class="cls-1" points="681.208 155.144 680.101 156.915 678.994 156.915 678.994 155.144 681.208 155.144"/><polygon class="cls-1" points="684.53 155.365 683.866 156.472 682.537 155.808 682.98 154.922 684.53 155.365"/><polygon class="cls-1" points="684.973 152.929 685.416 153.372 684.53 154.036 684.087 153.372 684.973 152.929"/><polygon class="cls-1" points="687.63 154.479 687.851 155.808 686.301 155.808 686.08 154.701 687.63 154.479"/><polygon class="cls-1" points="688.959 152.708 691.173 154.036 690.509 154.479 688.073 153.151 688.959 152.708"/><polygon class="cls-1" points="748.524 138.978 749.631 140.307 747.417 139.642 748.524 138.978"/><polygon class="cls-1" points="794.804 154.036 795.246 155.586 793.918 156.694 792.368 155.808 792.811 154.258 793.475 153.372 794.804 154.036"/><polygon class="cls-1" points="789.711 154.479 792.811 156.251 791.925 157.137 789.711 156.029 789.711 154.479"/><polygon class="cls-1" points="785.503 155.144 787.718 155.808 786.168 157.358 785.503 155.144"/><polygon class="cls-1" points="784.396 155.586 783.732 157.358 782.182 156.915 782.625 154.922 784.396 155.586"/><polygon class="cls-1" points="782.182 154.258 782.403 154.922 781.739 155.365 782.182 154.258"/><polygon class="cls-1" points="780.41 152.929 780.853 154.479 779.525 155.144 778.418 153.815 780.41 152.929"/><polygon class="cls-1" points="780.632 155.808 779.968 157.358 778.418 156.251 779.968 155.144 780.632 155.808"/><polygon class="cls-1" points="777.532 156.251 776.646 157.358 775.539 155.586 776.203 155.144 777.532 156.251"/><polygon class="cls-1" points="774.653 153.815 775.982 154.922 774.875 156.251 773.767 154.701 774.653 153.815"/><polygon class="cls-1" points="776.646 153.372 776.646 154.701 774.21 153.593 775.317 152.265 776.646 153.372"/><polygon class="cls-1" points="773.325 153.151 773.546 155.144 771.996 155.365 771.553 154.258 773.325 153.151"/><polygon class="cls-1" points="771.553 154.479 771.11 155.365 770.003 154.922 770.003 153.372 770.889 153.372 771.553 154.479"/><polygon class="cls-1" points="769.117 152.708 769.782 153.815 767.346 154.922 766.903 153.593 769.117 152.708"/><polygon class="cls-1" points="764.689 152.486 766.239 153.151 764.689 154.479 763.803 154.036 764.689 152.486"/><polygon class="cls-1" points="762.696 152.708 762.917 155.144 762.253 155.586 760.481 154.701 760.481 152.486 762.696 152.708"/><polygon class="cls-1" points="763.803 157.801 764.024 159.351 762.253 159.572 761.81 158.465 763.803 157.801"/><polygon class="cls-1" points="757.824 157.137 758.046 158.908 756.274 158.687 756.274 157.579 757.824 157.137"/><polygon class="cls-1" points="753.838 156.251 753.174 157.358 752.067 156.472 751.846 155.808 753.396 154.701 753.838 156.251"/><rect class="cls-2" x="750.9598" y="157.8009" width="1.55" height="1.1072"/><polygon class="cls-1" points="750.738 152.708 752.288 154.479 750.738 155.365 749.41 154.036 750.738 152.708"/><polygon class="cls-1" points="747.417 150.936 746.531 154.036 744.317 153.372 745.203 150.272 747.417 150.936"/><polygon class="cls-1" points="800.561 154.922 800.782 156.472 796.797 156.915 796.797 155.365 800.561 154.922"/><polygon class="cls-1" points="801.004 156.472 801.004 157.579 796.797 157.801 796.797 156.915 801.004 156.472"/><rect class="cls-2" x="807.6467" y="154.9221" width="1.9929" height="1.7716"/><polygon class="cls-1" points="836.212 155.144 836.654 155.586 835.769 156.251 835.326 155.586 836.212 155.144"/><polygon class="cls-1" points="836.654 154.258 836.433 155.144 835.99 154.922 836.433 154.036 836.654 154.258"/><polygon class="cls-1" points="836.433 152.708 835.99 154.922 834.662 154.701 834.662 153.151 836.433 152.708"/><polygon class="cls-1" points="833.776 152.486 834.662 153.815 833.776 154.479 832.226 154.036 833.776 152.486"/><polygon class="cls-1" points="830.454 155.808 830.454 156.029 829.569 155.808 828.683 153.815 830.454 152.929 831.562 154.258 830.454 155.808"/><polygon class="cls-1" points="829.126 152.929 829.569 153.372 829.126 153.815 828.461 153.372 829.126 152.929"/><polygon class="cls-1" points="829.79 150.715 830.897 152.043 830.011 152.929 828.683 152.265 828.461 151.6 829.79 150.715"/><polygon class="cls-1" points="831.119 148.057 831.119 149.386 829.126 150.493 827.354 149.165 827.797 148.057 831.119 148.057"/><polygon class="cls-1" points="857.912 146.507 858.576 152.265 850.826 152.265 851.269 145.843 857.912 146.507"/><polygon class="cls-1" points="845.069 148.5 845.733 154.479 838.647 154.922 838.647 148.943 845.069 148.5"/><rect class="cls-2" x="855.9192" y="157.358" width="1.3286" height="0.2215"/><path class="cls-1" d="M850.3833,157.58h0Z"/><polygon class="cls-1" points="875.627 144.957 877.177 147.393 875.627 148.5 874.077 145.843 875.627 144.957"/><polygon class="cls-1" points="876.734 151.822 877.177 153.151 875.848 153.372 875.405 152.708 876.734 151.822"/><polygon class="cls-1" points="876.734 154.036 876.955 154.479 876.291 154.479 876.291 154.036 876.734 154.036"/><polygon class="cls-1" points="874.077 147.393 874.077 152.929 868.762 153.151 868.541 147.393 874.077 147.393"/><polygon class="cls-1" points="868.762 153.151 869.205 153.815 868.098 154.036 867.877 153.151 868.762 153.151"/><polygon class="cls-1" points="867.877 152.708 867.434 153.815 864.998 153.372 865.219 152.265 866.991 152.265 867.877 152.708"/><polygon class="cls-1" points="895.777 155.144 895.777 156.251 894.891 156.251 894.67 155.365 895.777 155.144"/><polygon class="cls-1" points="894.006 152.265 894.449 153.815 892.013 153.815 892.013 153.151 892.456 152.486 894.006 152.265"/><polygon class="cls-1" points="893.784 151.379 894.006 152.265 893.341 152.486 893.341 151.379 893.784 151.379"/><polygon class="cls-1" points="890.02 174.409 890.684 176.845 889.798 176.845 888.47 175.074 890.02 174.409"/><polygon class="cls-1" points="888.913 175.738 889.134 176.402 887.141 177.067 888.913 175.738"/><polygon class="cls-1" points="885.813 179.502 886.477 180.61 885.591 181.495 884.484 180.388 885.813 179.502"/><polygon class="cls-1" points="888.248 179.724 888.47 180.388 887.584 181.053 887.141 180.831 887.584 179.06 888.248 179.724"/><polygon class="cls-1" points="890.02 179.281 889.577 180.388 888.47 180.167 889.134 179.06 890.02 179.281"/><polygon class="cls-1" points="888.691 180.388 888.913 180.831 888.47 181.053 888.027 180.831 888.691 180.388"/><polygon class="cls-1" points="890.241 180.831 890.241 181.717 889.356 182.16 889.134 181.274 890.241 180.831"/><polygon class="cls-1" points="891.348 179.724 892.013 179.945 891.127 180.831 891.348 179.724"/><polygon class="cls-1" points="119.654 148.5 119.654 148.722 119.211 149.165 118.768 149.165 118.768 148.943 118.768 148.722 119.211 148.279 119.654 148.5"/><polygon class="cls-1" points="128.29 158.022 128.733 159.351 126.961 160.015 126.076 158.908 127.626 158.022 128.29 158.022"/><polygon class="cls-1" points="133.161 155.365 132.719 156.029 132.276 155.808 131.611 155.586 131.39 154.922 131.833 154.258 132.276 154.036 132.719 154.479 133.161 154.701 133.161 155.365"/><polygon class="cls-1" points="121.425 150.715 121.425 150.936 121.204 151.158 120.983 151.158 120.761 151.158 120.54 151.158 120.318 150.936 120.318 150.715 120.318 150.493 120.54 150.272 120.761 150.05 120.983 150.05 121.204 150.272 121.204 150.493 121.425 150.493 121.425 150.715"/><polygon class="cls-1" points="412.61 154.701 412.61 156.251 410.396 156.251 410.617 154.701 412.61 154.701"/><polygon class="cls-1" points="410.174 155.808 409.51 157.358 407.296 158.022 402.424 158.022 397.331 157.579 393.124 157.579 390.245 157.137 389.581 154.922 390.91 153.593 394.231 153.372 398.217 152.929 401.538 153.593 404.86 153.372 406.853 153.593 409.51 154.479 410.174 155.808"/><polygon class="cls-1" points="412.389 157.579 412.167 157.801 411.946 157.801 411.724 157.801 411.724 157.579 411.503 157.579 411.503 157.358 411.503 157.137 411.724 156.915 411.946 156.915 412.167 156.915 412.389 157.137 412.389 157.358 412.389 157.579"/><polygon class="cls-1" points="452.468 148.943 452.911 151.158 450.697 152.043 449.811 149.607 452.468 148.943"/><polygon class="cls-1" points="451.582 145.621 452.247 147.614 449.811 148.5 449.146 146.729 451.582 145.621"/><polygon class="cls-1" points="512.033 156.472 511.812 156.915 511.369 157.579 510.705 157.579 510.262 157.137 510.483 156.251 510.705 156.029 511.591 156.029 512.033 156.472"/><polygon class="cls-1" points="515.134 151.822 515.134 152.043 514.691 152.265 514.469 152.265 514.026 152.043 513.805 151.822 513.805 151.379 514.026 150.936 514.469 150.715 514.691 150.715 515.134 150.936 515.355 151.158 515.576 151.379 515.134 151.822"/><polygon class="cls-1" points="515.134 149.165 515.134 149.607 514.912 150.05 514.469 150.272 514.026 150.272 513.584 150.05 513.362 149.607 513.362 149.165 513.805 148.722 514.026 148.5 514.691 148.5 514.912 148.722 515.134 149.165"/><polygon class="cls-1" points="511.591 148.722 511.591 149.165 511.369 149.607 510.926 149.607 510.483 149.386 510.262 149.165 510.041 148.943 510.041 148.722 510.262 148.5 510.483 148.057 510.705 148.057 511.369 148.057 511.591 148.279 511.591 148.722"/><polygon class="cls-1" points="495.869 155.586 495.205 156.694 494.54 156.694 494.097 156.472 493.655 156.029 493.655 155.365 493.876 154.701 494.319 154.258 494.983 154.036 495.426 154.258 495.869 154.479 495.869 154.922 495.869 155.586"/><polygon class="cls-1" points="496.533 148.943 496.09 149.607 495.205 149.829 494.762 149.607 494.54 148.722 494.983 147.836 495.426 147.836 496.312 148.057 496.533 148.943"/><polygon class="cls-1" points="493.212 142.078 495.426 145.4 494.097 146.286 491.883 143.186 493.212 142.078"/><polygon class="cls-1" points="484.133 157.801 484.133 158.908 482.804 159.572 482.361 158.465 484.133 157.801"/><polygon class="cls-1" points="484.133 155.365 483.911 156.029 482.361 155.808 482.583 154.701 484.133 155.365"/><polygon class="cls-1" points="481.697 156.694 481.919 157.579 481.033 158.022 480.59 156.472 481.697 156.694"/><polygon class="cls-1" points="468.411 156.472 469.961 156.694 469.075 157.579 467.968 157.358 468.411 156.472"/><polygon class="cls-1" points="517.791 159.572 517.348 160.237 516.905 160.901 516.241 161.344 515.576 161.565 515.134 161.344 514.691 160.901 514.469 160.237 514.026 159.572 514.912 158.244 516.019 157.579 516.905 157.801 517.791 158.465 517.791 159.572"/><polygon class="cls-1" points="589.978 137.207 589.978 139.421 564.956 139.642 564.735 137.428 589.978 137.207"/><polygon class="cls-1" points="620.979 149.607 620.093 150.715 618.986 149.386 619.65 148.279 620.757 148.5 620.979 149.607"/><polygon class="cls-1" points="622.75 147.393 621.864 148.943 620.536 147.836 621.421 146.729 622.75 147.393"/><polygon class="cls-1" points="622.086 142.521 622.529 144.514 621.2 145.4 618.986 144.514 618.986 142.743 622.086 142.521"/><polygon class="cls-1" points="617.214 141.635 617.657 143.628 615.664 144.071 615.221 142.964 617.214 141.635"/><polygon class="cls-1" points="614.778 140.971 614.778 142.964 611.9 144.071 610.571 143.407 612.343 140.528 614.778 140.971"/><polygon class="cls-1" points="611.236 140.75 611.457 141.857 610.571 141.857 610.571 140.971 611.236 140.75"/><polygon class="cls-1" points="610.35 140.971 609.907 141.635 609.021 141.857 608.357 140.75 609.464 140.307 610.35 140.971"/><polygon class="cls-1" points="608.578 141.635 607.914 143.407 606.143 142.521 606.364 140.971 608.578 141.635"/><polygon class="cls-1" points="605.921 141.193 605.7 142.743 605.035 142.743 604.593 140.971 605.921 141.193"/><polygon class="cls-1" points="604.814 142.743 605.7 142.964 605.257 143.628 604.593 143.186 604.814 142.743"/><polygon class="cls-1" points="605.035 144.736 605.921 145.4 604.814 146.064 604.371 144.957 605.035 144.736"/><polygon class="cls-1" points="604.371 142.3 604.371 143.186 603.707 143.186 603.264 142.078 603.928 141.857 604.371 142.3"/><polygon class="cls-1" points="602.6 140.085 603.043 142.521 600.828 142.3 602.6 140.085"/><polygon class="cls-1" points="596.621 143.186 595.957 143.85 594.849 143.628 594.185 142.964 594.185 141.414 595.957 141.414 596.621 143.186"/><polygon class="cls-1" points="597.728 141.414 597.285 142.743 596.178 141.193 597.728 141.414"/><polygon class="cls-1" points="634.707 156.694 635.372 158.687 634.265 159.572 633.379 158.687 634.043 156.472 634.707 156.694"/><polygon class="cls-1" points="642.236 154.922 642.236 156.029 638.25 155.808 638.25 155.144 642.236 154.922"/><polygon class="cls-1" points="634.929 146.064 634.265 149.165 632.493 148.057 633.6 145.621 634.929 146.064"/><polygon class="cls-1" points="637.365 147.614 637.365 148.722 636.257 148.943 635.372 147.172 637.365 147.614"/><polygon class="cls-1" points="640.022 149.165 640.686 151.379 638.915 151.158 637.365 151.379 637.808 149.165 640.022 149.165"/><polygon class="cls-1" points="637.143 150.272 637.143 151.379 636.257 152.043 634.929 151.158 635.593 150.05 637.143 150.272"/><polygon class="cls-1" points="642.236 154.922 644.893 155.808 642.236 156.029 642.236 154.922"/><polygon class="cls-1" points="650.651 153.593 650.872 154.701 649.765 155.808 648.436 155.808 650.651 153.593"/><polygon class="cls-1" points="647.108 151.6 647.772 152.265 647.772 151.158 649.101 151.158 648.879 153.593 648.436 155.808 647.108 155.144 645.336 153.151 642.679 151.379 640.243 150.272 640.022 149.165 638.029 149.165 638.25 147.836 641.35 148.279 644.451 149.829 647.108 151.6"/><polygon class="cls-1" points="643.122 147.614 643.122 148.722 641.793 148.722 642.458 147.393 643.122 147.614"/><polygon class="cls-1" points="646.886 149.386 646.443 150.05 645.115 149.165 645.779 148.5 646.886 149.386"/><polygon class="cls-1" points="648.879 150.936 648.658 151.158 648.436 151.158 648.215 151.158 648.215 150.936 647.993 150.936 647.993 150.715 647.772 150.493 647.993 150.272 648.215 150.272 648.436 150.272 648.658 150.272 648.879 150.493 648.879 150.715 648.879 150.936"/><polygon class="cls-1" points="616.993 161.565 617.214 162.673 615.443 162.673 615.443 161.787 616.993 161.565"/><polygon class="cls-1" points="388.474 154.036 388.695 155.586 386.924 155.586 386.924 154.036 388.474 154.036"/><polygon class="cls-1" points="105.039 156.472 104.818 156.694 104.818 156.915 104.597 156.915 104.375 156.915 104.375 157.137 103.932 157.137 103.711 157.137 103.711 156.915 103.489 156.915 103.489 156.694 103.711 156.472 103.932 156.251 104.154 156.029 104.375 156.029 104.597 155.808 104.597 156.029 104.818 156.029 104.818 156.251 105.039 156.251 105.039 156.472"/><polygon class="cls-1" points="101.939 157.137 101.718 157.358 101.496 157.579 101.275 157.358 101.054 157.358 100.832 157.358 100.832 157.137 100.832 156.915 101.054 156.915 101.275 156.694 101.496 156.694 101.718 156.694 101.718 156.915 101.939 156.915 101.939 157.137"/><polygon class="cls-1" points="102.825 155.365 103.046 156.472 101.275 156.915 101.054 155.144 102.382 154.922 102.382 155.144 102.604 155.144 102.825 155.365"/><polygon class="cls-1" points="101.054 155.144 101.054 156.915 98.618 157.137 98.396 155.365 101.054 155.144"/><polygon class="cls-1" points="102.161 156.694 102.161 156.915 101.718 156.915 100.832 157.137 100.389 157.137 99.946 157.137 99.504 157.137 99.282 157.137 99.061 157.137 98.839 157.137 98.618 156.915 98.618 156.694 98.618 156.251 98.618 155.586 98.618 155.365 101.718 155.144 101.939 155.144 102.161 155.144 102.161 155.808 102.161 156.694"/><polygon class="cls-1" points="93.746 161.787 93.525 162.008 93.303 162.23 93.082 162.23 92.861 162.008 92.861 161.787 92.861 161.565 93.303 161.344 93.525 161.344 93.746 161.565 93.746 161.787"/><polygon class="cls-1" points="85.541 158.443 85.541 158.665 85.319 158.665 84.876 159.107 84.434 159.107 83.991 159.107 83.548 158.665 83.769 158.443 84.212 158 84.434 157.779 84.655 157.779 84.876 157.779 85.098 158 85.319 158 85.541 158.443"/><polygon class="cls-1" points="84.364 157.444 84.364 157.665 84.142 157.665 84.142 157.887 83.921 157.887 83.921 158.108 83.7 158.33 83.478 158.33 83.478 158.108 83.478 157.444 83.7 157.444 83.7 157.222 83.921 157.222 84.142 157.222 84.364 157.444"/><polygon class="cls-1" points="92.639 148.279 92.639 148.5 92.418 148.722 91.975 148.943 91.753 148.943 91.532 148.943 91.311 148.722 91.311 148.5 91.532 148.057 92.196 148.057 92.639 148.057 92.639 148.279"/><polygon class="cls-1" points="93.968 148.722 93.746 148.943 93.303 148.722 93.082 148.5 93.525 148.279 93.746 148.279 93.746 148.5 93.968 148.5 93.968 148.722"/><polygon class="cls-1" points="77.753 155.511 77.31 155.511 77.088 155.511 77.31 155.068 77.088 154.846 77.088 154.625 77.31 154.404 77.531 154.404 77.753 154.404 77.974 154.625 77.974 154.846 77.974 155.068 77.753 155.511"/><polygon class="cls-1" points="77.753 158.168 77.531 158.39 77.31 158.611 77.088 158.832 76.645 158.832 76.424 158.832 76.202 158.611 76.202 158.168 76.424 157.947 76.645 157.947 76.867 157.725 77.088 157.504 77.31 157.504 77.31 157.725 77.753 157.725 77.753 158.168"/><polygon class="cls-1" points="70.667 153.961 70.667 154.182 70.224 154.182 70.002 154.404 69.781 154.404 69.781 153.739 69.781 153.518 69.781 153.296 70.002 153.075 70.224 153.075 70.445 153.075 70.445 153.739 70.445 153.961 70.667 153.961"/><polygon class="cls-1" points="61.831 156.403 61.61 156.625 61.167 156.625 59.838 156.403 60.06 154.853 60.281 154.632 60.503 154.632 60.724 154.632 61.167 154.632 61.61 154.853 61.831 155.075 61.831 155.517 61.831 155.96 61.831 156.403"/><polygon class="cls-1" points="59.396 154.853 59.174 156.403 57.624 156.182 57.624 154.632 59.396 154.853"/><polygon class="cls-1" points="61.61 156.625 61.388 156.625 60.724 156.846 58.731 156.625 57.846 156.403 58.067 155.075 61.61 155.075 61.831 155.739 61.61 156.182 61.61 156.625"/><polygon class="cls-1" points="49.874 152.196 49.874 152.417 50.095 152.196 50.317 151.974 50.538 151.753 50.76 151.974 50.76 152.196 50.538 152.417 50.317 152.639 50.095 152.86 49.874 153.082 49.652 153.082 49.431 152.86 49.431 152.639 49.431 152.417 49.652 152.417 49.652 152.196 49.874 152.196"/><polygon class="cls-1" points="45.667 148.431 46.11 157.732 35.924 158.396 35.481 149.096 45.667 148.431"/><polygon class="cls-1" points="35.924 160.611 35.924 160.832 35.702 160.832 35.481 160.832 35.038 160.611 35.259 160.168 35.924 160.389 35.924 160.611"/><polygon class="cls-1" points="36.809 163.268 32.159 163.268 32.159 163.047 32.159 162.825 32.381 162.604 32.381 162.161 32.602 161.939 32.602 161.718 36.809 161.939 36.809 162.382 36.809 162.604 36.809 162.825 36.809 163.047 36.809 163.268"/><polygon class="cls-1" points="32.602 150.867 32.381 150.646 30.831 150.424 27.066 150.424 26.845 150.646 26.181 150.646 25.738 150.867 25.295 150.867 25.073 151.531 25.073 155.517 24.852 155.739 24.852 156.182 24.727 156.306 24.727 157.828 24.852 157.953 31.052 157.953 31.716 157.289 32.159 157.067 32.602 155.739 32.381 155.296 32.602 154.632 32.602 153.967 32.381 153.524 32.602 152.639 32.602 150.867"/><polygon class="cls-1" points="32.602 149.538 32.381 150.646 30.831 150.424 27.066 150.424 26.845 150.646 26.181 150.646 25.738 150.867 25.516 150.867 25.295 150.867 25.516 149.317 32.602 149.538"/><polygon class="cls-1" points="29.059 143.781 28.838 144.224 28.173 144.002 28.616 143.559 29.059 143.781"/><polygon class="cls-1" points="29.945 143.117 29.945 143.338 29.502 143.338 29.502 143.117 29.723 142.895 29.945 143.117"/><rect class="cls-2" x="770.6314" y="179.2451" width="1.4005" height="1.4005" transform="translate(356.7169 854.799) rotate(-71.5661)"/><polygon class="cls-1" points="773.546 179.06 773.546 180.388 771.996 180.167 772.439 179.06 773.546 179.06"/><polygon class="cls-1" points="776.646 181.717 776.646 182.603 762.032 182.603 762.032 181.495 776.646 181.717"/><polygon class="cls-1" points="767.567 182.824 767.567 184.817 765.574 185.26 765.353 187.917 762.474 188.139 762.696 182.603 767.567 182.824"/><polygon class="cls-1" points="775.982 182.603 775.76 190.353 773.325 190.132 773.325 185.26 771.775 185.039 770.889 182.824 775.982 182.603"/><path class="cls-1" d="M774.7511,182.5814h0a.7574.7574,0,0,1-.7895.6492l-3.5156-.1851.1159-.6957a.7575.7575,0,0,1,.7471-.6329h2.6924A.7573.7573,0,0,1,774.7511,182.5814Z"/><polygon class="cls-1" points="549.234 178.617 549.234 179.724 548.57 180.388 547.906 180.388 547.02 179.945 545.691 179.945 544.806 179.724 543.477 179.502 543.034 179.502 541.927 179.06 541.927 178.395 542.591 177.952 543.698 177.509 544.806 177.067 545.913 177.067 547.241 177.288 548.349 177.731 549.234 178.617"/><path id="_Pad_" data-name="&lt;Pad&gt;" class="cls-2" d="M694.938,150.4928a.4375.4375,0,0,1-.0234.14.4431.4431,0,0,1-.2217.2568l-1.7714.8866a.442.442,0,0,1-.6091-.2316l-.4433-1.1073a.44.44,0,0,1,.1532-.5253l1.55-1.1074a.4439.4439,0,0,1,.6542.1622l.6649,1.3281A.4473.4473,0,0,1,694.938,150.4928Zm-1.9822.2748.9442-.473-.2342-.4685-.8452.6046Z"/></g><g id="wegen_GIS_" data-name="wegen (GIS)"><g id="muur"><path class="cls-3" d="M26.4825,132.5754c87.3406-1.2635,174.3406.7365,261.3406-1.2635h64c47,2,94,0,141-3,3-4,1-9,1.27-14.3635"/><polyline class="cls-3" points="716.958 200.003 674.23 201.047 622.25 202.393 561.315 202.426 537.739 202.133"/><polyline class="cls-3" points="502.043 202.657 493.52 202.811 463.58 203.494 429.988 204.586 384.893 205.9 332.5 207.444 257.327 206.069 189.643 205.179 145.802 204.273"/><path class="cls-3" d="M75.2722,224.1612c-6.4491.1507-11.4491,2.1507-17.4491,2.1507-6-1-11-1-17-2-4-1-7-3-11-3-1,0-2-2-2-3,0-4-1-9-1.5449-13.2733"/></g><g id="pad"><polyline class="cls-4" points="605.28 163.584 602.424 140.543 601.281 129.308 600.615 120.834 603.947 91.224 614.992 67.882 630.284 57.04"/><path class="cls-4" d="M732.1957,161.0129l2.6659-25.4212.0952-31.8955-6.0935-21.0415-9.9019-14.7576c-1.9857-2.8985-13.4857-14.7939-18.8726-18.298"/></g><g id="weg"><rect id="weg41" class="cls-5" x="438.9874" y="101.448" width="132.8678" height="4.6504" transform="translate(360.7218 599.0323) rotate(-85.316)"/><rect id="weg32" class="cls-5" x="899.4584" y="28.9754" width="8.4146" height="134.6698" transform="translate(-4.8953 76.2021) rotate(-4.8156)"/><path class="cls-5" d="M923.5619,228.4876l-3.3015-6.603-4.8782-19.51-1.31-30.7962-8.4062.3567,1.3279,31.2244a4.136,4.136,0,0,0,.1218.8415l5.0932,20.3728a4.1994,4.1994,0,0,0,.3182.8614l9.61,19.2214,1.4248-.7124Z"/></g><g id="hoofdweg"><polygon class="cls-6" points="919.878 160.734 901.056 156.748 900.834 156.748 864.741 157.412 846.583 157.855 794.325 158.963 756.681 160.07 740.738 160.513 718.152 161.177 670.765 162.063 650.837 162.506 610.757 163.17 569.349 164.056 567.135 164.056 529.934 164.499 468.154 164.499 447.339 164.72 426.082 165.163 414.124 164.942 384.452 164.277 368.509 164.499 338.394 164.942 306.729 165.385 297.872 165.385 282.593 165.606 265.986 165.606 234.542 165.827 204.649 166.049 176.748 166.27 173.427 166.492 141.983 166.935 54.517 166.935 30.824 167.156 24.727 167.204 24.727 177.393 33.259 177.343 56.731 177.121 102.568 176.235 102.789 176.235 150.619 176.9 192.913 176.457 195.791 176.457 224.135 176.014 251.592 175.792 283.7 175.792 306.951 175.571 316.03 175.349 404.16 175.128 414.789 174.907 428.296 174.685 469.483 174.464 517.091 175.571 562.485 174.685 593.485 174.021 654.158 172.914 730.995 171.585 768.417 171.142 802.075 170.699 838.39 170.256 867.177 170.699 901.499 171.364 913.899 172.028 923.562 172.243 923.562 161.758 919.878 160.734"/></g></g><g id="monumenten_outline_GIS_" data-name="monumenten outline (GIS)"><path id="monumenten_outline_-_IV" data-name="monumenten outline - IV" class="cls-7" d="M693.6278,149.468l.6643,1.3287-1.7715.8858-.4429-1.1072Zm0,0-1.9929.6644.6643,1.55-1.7715.4429-.2214-1.3287h-.4429l.4429,1.993-3.3215.4429-.4429-1.3287L673.92,154.5613l-10.1859-.2215-6.8644-1.7715-6.8644-3.5431.4428-1.1073-7.75-4.8717-6.8645-6.4219-5.0929-7.7506-2.8787-7.0862-7.0858,1.7716-3.9858-17.7156,2.6572-13.0652,8.4144-15.7225,1.3286-.8858h.8858l5.3144,3.986,2.6572-3.5431,7.0858-5.979,8.4145-4.4289,8.8573-2.4359,9.3-.6643,9.3,1.3287,8.8573,3.1,7.9716,5.0932,6.643,6.4219,5.3144,7.7505,3.5429,8.6364,1.55,9.3006-.4429,9.3007-2.2143,9.0792-3.9858,8.4149-5.7573,7.3076-3.9858,3.3217,1.7715,2.8788.4428,1.55-.4428.8858-.6643-.2215-.6643-1.1072Z"/></g></svg>