<svg xmlns="http://www.w3.org/2000/svg" viewBox="0 0 717.2372 340.1575"><defs><style>.cls-1,.cls-2{fill:#d0d0d0;}.cls-1,.cls-3,.cls-6{fill-rule:evenodd;}.cls-3{fill:none;stroke:#b08a71;stroke-miterlimit:10;stroke-width:2px;}.cls-4{fill:#9d9d9c;}.cls-5{fill:#fbe100;}.cls-6{fill:#c00d0d;}</style></defs><g id="archeologie_GIS_" data-name="archeologie (GIS)"><polygon class="cls-1" points="693.64 189.369 688.017 189.506 688.238 193.714 693.64 194.237 693.64 189.369"/><polygon class="cls-1" points="690.674 190.613 690.01 191.499 688.903 190.613 690.231 189.728 690.674 190.613"/><polygon class="cls-1" points="693.64 196.577 693.11 196.451 693.11 209.073 686.467 209.516 686.246 207.301 684.252 206.194 684.917 200.658 687.353 200.437 687.353 196.672 680.931 196.229 681.595 211.287 693.64 211.966 693.64 196.577"/><polygon class="cls-1" points="668.31 207.744 681.374 207.523 682.26 209.294 682.26 213.945 679.824 213.723 680.045 210.845 671.852 211.287 670.745 219.259 667.423 219.259 668.31 207.744"/><polygon class="cls-1" points="655.909 206.637 661.002 205.973 661.666 199.994 663.881 199.772 664.545 205.973 669.638 206.416 670.302 201.765 672.295 201.765 671.852 209.073 655.688 209.073 655.909 206.637"/><polygon class="cls-1" points="668.531 206.637 668.531 207.08 665.209 207.08 665.209 206.416 668.531 206.637"/><polygon class="cls-1" points="659.895 189.807 660.338 191.136 659.009 191.8 657.681 191.357 657.459 190.472 659.895 189.807"/><polygon class="cls-1" points="661.002 195.786 661.002 196.672 659.673 196.451 659.673 195.565 661.002 195.786"/><polygon class="cls-1" points="658.566 195.565 658.566 196.229 658.124 196.229 657.681 195.786 657.681 195.343 658.566 195.565"/><rect class="cls-2" x="656.1366" y="195.7079" width="1.9807" height="1.4855" transform="translate(-18.5009 314.5) rotate(-26.5552)"/><polygon class="cls-1" points="659.895 200.215 659.452 200.88 658.566 200.437 659.009 199.551 659.895 200.215"/><polygon class="cls-1" points="650.152 196.451 650.816 198.001 649.487 197.779 649.266 196.451 650.152 196.451"/><polygon class="cls-1" points="648.38 197.779 649.266 199.551 647.495 199.994 646.83 198.222 648.38 197.779"/><polygon class="cls-1" points="647.716 196.672 647.273 197.558 646.83 196.451 647.273 196.008 647.716 196.672"/><polygon class="cls-1" points="646.83 198.887 647.273 199.772 646.166 200.437 644.616 198.665 646.166 197.336 646.609 198.222 646.83 198.887"/><polygon class="cls-1" points="662.331 214.831 662.109 215.495 661.888 214.831 662.331 214.831"/><polygon class="cls-1" points="661.666 214.388 661.666 215.052 661.002 215.052 661.002 214.166 661.666 214.388"/><polygon class="cls-1" points="643.951 194.901 643.73 196.451 642.623 196.008 642.623 194.679 643.951 194.901"/><polygon class="cls-1" points="642.623 194.679 642.402 196.451 640.409 196.451 640.409 194.679 642.623 194.679"/><polygon class="cls-1" points="643.951 193.129 643.73 194.015 641.294 193.793 641.294 193.35 643.951 193.129"/><polygon class="cls-1" points="641.073 193.572 641.073 194.236 639.745 194.458 639.966 192.686 640.409 192.686 640.63 193.35 641.073 193.572"/><polygon class="cls-1" points="643.509 199.772 643.951 200.437 643.287 200.88 642.845 199.772 643.509 199.772"/><polygon class="cls-1" points="642.623 201.322 653.031 203.98 651.48 210.402 645.28 210.402 644.395 216.824 640.852 216.824 642.623 201.322"/><polygon class="cls-1" points="644.838 205.53 644.838 207.966 643.73 208.187 643.509 209.959 642.402 209.737 642.845 205.087 644.838 205.53"/><polygon class="cls-1" points="639.08 205.308 639.302 210.402 637.973 210.623 637.752 205.308 639.08 205.308"/><polygon class="cls-1" points="639.302 210.402 639.08 213.28 638.194 213.723 637.973 210.623 639.302 210.402"/><polygon class="cls-1" points="633.766 204.423 633.323 207.523 631.994 207.301 632.437 204.201 633.766 204.423"/><rect class="cls-2" x="629.5217" y="209.3959" width="5.388" height="1.3471" transform="translate(321.0288 799.1268) rotate(-80.5338)"/><polygon class="cls-1" points="632.437 212.838 631.994 215.052 631.773 215.052 631.773 214.831 630.887 214.609 631.108 212.616 632.437 212.838"/><polygon class="cls-1" points="630.444 217.488 631.551 217.931 631.551 217.488 631.773 217.709 631.551 219.481 630.223 219.038 630.444 217.488"/><polygon class="cls-1" points="639.523 190.25 635.095 222.802 630.887 223.688 635.98 190.472 639.523 190.25"/><polygon class="cls-1" points="636.423 196.451 636.423 197.336 635.759 197.115 635.759 196.451 636.423 196.451"/><polygon class="cls-1" points="629.78 195.565 629.78 196.451 629.116 196.451 629.116 195.786 629.78 195.565"/><polygon class="cls-1" points="625.573 199.551 625.13 200.88 624.466 200.88 624.687 199.551 625.573 199.551"/><polygon class="cls-1" points="626.015 201.987 626.458 202.873 625.794 203.094 624.909 202.651 625.13 201.987 626.015 201.987"/><polygon class="cls-1" points="627.344 203.537 627.344 205.308 624.909 205.751 624.466 204.201 627.344 203.537"/><polygon class="cls-1" points="630.887 205.53 630.444 206.194 629.559 205.751 630.223 204.866 630.887 205.53"/><polygon class="cls-1" points="589.922 197.779 590.365 198.222 589.036 198.887 588.815 198.001 589.922 197.779"/><polygon class="cls-1" points="588.151 196.894 588.372 197.336 587.708 197.558 587.708 197.115 588.151 196.894"/><polygon class="cls-1" points="589.258 196.008 589.922 196.229 589.479 196.672 588.594 196.894 588.372 196.451 589.258 196.008"/><polygon class="cls-1" points="592.801 196.894 592.801 198.001 591.251 198.222 591.251 196.894 592.801 196.894"/><polygon class="cls-1" points="597.451 196.894 597.451 197.779 593.687 198.001 593.244 197.779 593.244 197.115 597.451 196.894"/><polygon class="cls-1" points="597.451 194.236 597.451 195.565 595.901 195.786 595.679 194.236 597.451 194.236"/><polygon class="cls-1" points="599.444 197.336 599.444 198.001 598.78 198.444 598.115 198.222 598.558 197.336 599.444 197.336"/><polygon class="cls-1" points="619.816 162.57 620.037 163.455 619.594 163.898 618.708 163.677 618.487 163.013 618.487 162.57 618.708 162.57 618.93 162.348 619.373 162.127 619.816 162.57"/><polygon class="cls-1" points="630.444 161.462 630.223 162.348 629.559 162.127 629.116 161.905 629.116 161.241 629.337 160.798 630.002 161.02 630.444 161.462"/><polygon class="cls-1" points="632.659 161.241 632.88 162.127 630.666 162.348 630.666 161.02 632.659 161.241"/><polygon class="cls-1" points="634.209 159.691 634.209 160.798 632.659 160.798 632.659 159.912 634.209 159.691"/><polygon class="cls-1" points="633.101 171.206 632.659 172.092 631.773 172.313 631.551 170.763 632.659 170.32 633.101 171.206"/><polygon class="cls-1" points="639.745 168.106 639.523 169.213 637.752 169.213 637.53 168.106 639.745 168.106"/><rect class="cls-2" x="644.7131" y="169.753" width="0.9131" height="0.913" transform="translate(323.4388 754.7644) rotate(-75.9513)"/><polygon class="cls-1" points="646.387 171.427 645.723 172.313 644.173 172.313 644.395 170.985 645.723 170.763 646.387 171.427"/><polygon class="cls-1" points="648.602 171.427 648.38 172.535 647.495 172.756 646.609 171.87 647.052 170.985 648.159 170.985 648.602 171.427"/><polygon class="cls-1" points="647.273 169.213 647.716 169.877 646.83 170.32 646.387 169.656 647.273 169.213"/><polygon class="cls-1" points="650.373 170.985 649.93 172.313 648.823 171.87 648.823 171.206 650.373 170.985"/><polygon class="cls-1" points="650.152 169.434 650.373 170.542 649.487 170.32 650.152 169.434"/><polygon class="cls-1" points="652.366 171.206 652.145 172.092 650.816 172.313 650.816 171.206 651.702 170.763 652.366 171.206"/><polygon class="cls-1" points="652.145 170.099 652.145 170.763 651.038 170.542 651.48 169.877 652.145 170.099"/><polygon class="cls-1" points="652.809 157.034 653.252 157.698 651.702 158.141 651.48 157.476 651.923 157.034 652.809 157.034"/><polygon class="cls-1" points="657.459 157.698 657.681 159.027 655.245 159.027 655.466 157.255 656.352 157.034 657.459 157.698"/><polygon class="cls-1" points="655.688 167.884 656.352 168.549 655.909 168.992 655.245 168.549 655.688 167.884"/><polygon class="cls-1" points="661.002 169.877 661.002 171.427 659.452 171.427 659.452 170.099 661.002 169.877"/><polygon class="cls-1" points="668.088 169.656 668.088 170.763 666.759 171.206 666.095 170.763 666.316 169.656 667.202 169.213 668.088 169.656"/><polygon class="cls-1" points="660.781 155.705 660.781 156.148 659.673 156.369 659.452 155.926 660.781 155.705"/><polygon class="cls-1" points="660.781 157.034 660.781 157.698 660.116 157.919 660.116 157.034 660.781 157.034"/><polygon class="cls-1" points="670.302 157.255 669.859 157.698 669.638 157.255 669.859 157.034 670.302 157.255"/><polygon class="cls-1" points="673.845 156.369 674.067 157.698 672.295 157.919 672.516 156.812 673.845 156.369"/><polygon class="cls-1" points="679.824 153.712 679.381 157.476 675.617 157.476 679.824 153.712"/><polygon class="cls-1" points="685.138 165.891 684.917 166.334 684.253 166.556 684.031 165.67 684.695 165.448 685.138 165.891"/><polygon class="cls-1" points="686.688 165.006 687.574 165.67 686.91 166.556 686.024 165.67 686.688 165.006"/><polygon class="cls-1" points="579.957 222.802 578.629 225.46 574.864 224.574 575.529 221.031 576.857 218.374 577.965 219.481 579.957 220.367 579.957 222.802"/><polygon class="cls-1" points="557.813 208.318 557.37 210.975 554.713 212.525 551.835 210.975 550.506 207.875 552.056 203.889 557.592 204.111 557.813 208.318"/><polygon class="cls-1" points="565.316 200.567 565.981 202.339 564.652 202.782 564.21 202.56 565.316 200.567"/><polygon class="cls-1" points="557.149 201.232 557.149 202.56 555.378 202.782 553.828 203.003 553.828 201.232 557.149 201.232"/><polygon class="cls-1" points="548.689 199.199 548.689 199.641 547.581 199.42 547.803 198.756 548.689 199.199"/><polygon class="cls-1" points="548.91 202.52 548.91 204.292 547.36 204.292 547.139 202.742 548.91 202.52"/><polygon class="cls-1" points="546.031 205.399 545.367 206.728 544.482 206.949 542.931 206.949 542.046 205.842 541.603 204.735 542.046 203.627 543.153 202.299 545.146 202.299 546.031 202.742 546.475 203.406 546.475 204.07 546.031 205.399"/><polygon class="cls-1" points="542.046 199.863 542.267 201.413 540.274 201.856 540.053 200.306 542.046 199.863"/><polygon class="cls-1" points="524.774 205.842 524.995 206.949 523.446 206.949 523.888 205.62 524.774 205.842"/><polygon class="cls-1" points="519.902 202.742 520.124 204.292 517.466 204.513 517.245 202.963 519.902 202.742"/><polygon class="cls-1" points="513.1 204.996 513.322 206.325 511.55 206.546 511.107 204.996 513.1 204.996"/><polygon class="cls-1" points="507.897 205.481 506.79 215.889 500.147 215.889 499.039 206.588 507.897 205.481"/><polygon class="cls-1" points="502.804 204.153 505.018 204.153 502.361 204.817 502.804 204.153"/><polygon class="cls-1" points="505.018 204.153 505.461 205.481 502.361 206.367 502.14 204.817 505.018 204.153"/><polygon class="cls-1" points="497.268 203.488 497.047 204.817 495.054 204.374 495.275 203.267 497.268 203.488"/><polygon class="cls-1" points="497.933 205.26 497.711 206.146 493.946 205.703 493.946 204.595 497.933 205.26"/><polygon class="cls-1" points="493.061 206.588 493.504 211.46 488.189 212.346 487.082 207.474 493.061 206.588"/><polygon class="cls-1" points="490.847 202.602 491.068 205.703 487.304 206.367 487.747 204.595 489.075 202.824 490.847 202.602"/><polygon class="cls-1" points="492.618 203.267 492.397 204.153 491.289 204.153 491.732 203.267 492.618 203.267"/><polygon class="cls-1" points="481.546 211.46 481.768 212.346 481.103 212.346 480.882 211.46 481.546 211.46"/><polygon class="cls-1" points="474.018 211.903 475.125 211.903 475.125 211.46 476.01 211.46 475.789 212.346 474.682 212.789 474.239 212.789 474.018 211.903"/><polygon class="cls-1" points="480.874 212.346 480.431 215.225 475.338 214.118 475.56 212.346 475.781 211.46 477.774 207.696 480.431 207.253 480.653 211.46 480.874 212.346"/><polygon class="cls-1" points="479.997 201.938 480.218 205.703 475.568 205.924 475.346 202.16 479.997 201.938"/><polygon class="cls-1" points="470.807 207.211 471.028 211.197 461.728 210.754 462.171 204.332 464.828 204.332 465.935 204.332 466.6 203.889 467.928 203.889 468.15 204.332 468.371 204.775 470.807 207.211"/><polygon class="cls-1" points="468.371 204.996 468.371 206.546 466.6 206.546 468.371 204.996"/><polygon class="cls-1" points="466.821 205.218 466.821 205.439 466.157 206.104 465.935 205.661 466.821 205.218"/><polygon class="cls-1" points="468.15 204.332 468.371 204.775 464.385 205.218 464.164 204.332 464.828 204.332 465.492 204.553 465.935 204.332 466.378 204.111 467.485 204.332 468.15 204.332"/><polygon class="cls-1" points="459.248 204.845 459.026 205.952 457.698 205.952 457.477 204.402 459.248 204.402 459.248 204.845"/><polygon class="cls-1" points="474.682 220.318 474.682 223.861 470.696 223.861 470.696 220.539 474.682 220.318"/><polygon class="cls-1" points="429.011 213.067 429.011 214.396 427.682 214.839 426.354 214.617 423.918 214.839 423.918 213.953 422.811 210.188 428.125 209.746 429.011 213.067"/><polygon class="cls-1" points="426.133 213.732 426.354 214.617 423.918 214.839 423.697 213.953 426.133 213.732"/><polygon class="cls-1" points="428.79 213.067 428.79 214.174 427.461 214.174 427.24 213.51 428.79 213.067"/><polygon class="cls-1" points="428.568 221.704 429.233 224.361 420.597 224.804 421.925 218.16 422.368 217.053 422.811 216.389 425.911 218.603 427.461 220.153 428.568 221.704"/><polygon class="cls-1" points="426.354 205.095 426.133 205.981 423.918 205.981 424.14 204.652 426.354 205.095"/><polygon class="cls-1" points="419.932 204.874 419.49 206.202 415.282 205.317 415.504 204.209 419.49 204.874 419.932 204.874"/><polygon class="cls-1" points="418.825 208.638 418.825 211.739 417.939 212.624 415.725 212.846 413.954 210.41 415.947 207.531 418.825 208.638"/><polygon class="cls-1" points="413.954 197.689 413.732 198.353 412.403 198.132 412.846 196.581 413.511 196.803 413.954 197.689"/><polygon class="cls-1" points="412.403 196.581 412.182 198.574 411.075 198.353 411.296 197.024 411.739 196.581 412.403 196.581"/><polygon class="cls-1" points="412.846 204.652 412.625 206.202 411.518 205.76 412.846 204.652"/><polygon class="cls-1" points="415.282 204.652 415.282 205.317 414.618 205.538 413.954 206.424 413.289 206.424 413.289 205.76 413.068 205.538 412.846 204.874 415.282 204.652"/><rect class="cls-2" x="408.6395" y="204.4309" width="1.3285" height="1.1072"/><rect class="cls-2" x="405.0962" y="204.4309" width="3.5432" height="0.6643"/><polygon class="cls-1" points="409.968 205.538 410.189 209.081 407.31 209.967 405.096 214.839 401.553 213.953 402.218 209.081 405.539 205.317 408.639 205.095 408.639 205.538 409.968 205.538"/><polygon class="cls-1" points="412.182 209.967 413.068 211.739 411.075 212.624 410.189 211.074 412.182 209.967"/><polygon class="cls-1" points="413.954 215.282 415.725 218.603 411.518 219.711 408.197 218.16 406.204 215.503 410.189 213.289 413.954 215.282"/><polygon class="cls-1" points="405.318 215.946 404.875 222.589 401.111 222.811 402.439 215.725 405.318 215.946"/><polygon class="cls-1" points="398.232 207.974 398.675 211.96 394.689 214.174 390.26 211.96 392.475 207.974 395.575 206.867 398.232 207.974"/><polygon class="cls-1" points="385.61 212.957 382.731 217.828 378.081 216.278 379.853 210.078 382.51 209.635 385.61 212.957"/><polygon class="cls-1" points="380.739 205.427 380.739 206.313 380.296 206.756 378.524 206.535 378.746 205.427 380.739 205.427"/><polygon class="cls-1" points="371.438 204.985 371.438 205.649 369.888 205.427 370.11 204.763 371.438 204.985"/><polygon class="cls-1" points="372.102 205.649 371.881 206.535 370.774 206.313 370.553 205.87 372.102 205.649"/><polygon class="cls-1" points="373.431 210.964 373.431 214.728 364.352 214.95 365.017 210.521 366.567 208.749 370.774 206.978 373.431 210.964"/><polygon class="cls-1" points="353.502 217.676 353.502 218.562 352.838 219.226 351.952 219.004 352.174 217.454 353.502 217.676"/><polygon class="cls-1" points="349.738 214.797 349.738 215.904 347.524 216.126 347.524 214.797 349.738 214.797"/><polygon class="cls-1" points="348.409 215.461 348.188 216.126 347.302 215.461 347.745 214.797 348.409 215.461"/><polygon class="cls-1" points="351.509 215.24 351.288 215.904 350.624 216.347 350.181 215.683 350.845 215.018 351.509 215.24"/><polygon class="cls-1" points="346.859 203.725 346.638 205.275 346.195 203.946 346.859 203.725"/><polygon class="cls-1" points="344.867 203.282 345.309 203.725 344.424 204.611 343.759 204.168 344.867 203.282"/><polygon class="cls-1" points="344.867 204.389 345.531 205.718 344.645 206.382 343.538 205.275 344.867 204.389"/><polygon class="cls-1" points="345.088 208.154 344.867 208.597 343.759 208.154 343.98 207.268 344.645 207.489 345.088 208.154"/><polygon class="cls-1" points="341.323 207.046 341.988 208.154 341.545 208.597 340.438 207.711 341.323 207.046"/><polygon class="cls-1" points="338.002 205.496 337.559 206.825 337.116 206.825 336.895 205.496 338.002 205.496"/><polygon class="cls-1" points="340.216 209.039 339.774 212.361 336.895 214.797 335.566 211.697 336.009 209.482 338.445 208.154 340.216 209.039"/><polygon class="cls-1" points="340.88 222.99 341.988 223.655 341.323 224.098 340.438 223.212 340.88 222.99"/><polygon class="cls-1" points="332.909 209.704 332.909 213.468 328.259 212.804 328.702 209.704 332.909 209.704"/><polygon class="cls-1" points="330.03 202.396 330.916 202.618 330.473 203.282 330.03 202.396"/><polygon class="cls-1" points="331.58 215.683 331.359 217.011 330.252 216.569 330.694 215.683 331.137 215.24 331.58 215.683"/><polygon class="cls-1" points="328.48 217.897 328.037 218.562 326.709 218.34 327.152 217.233 328.48 217.897"/><polygon class="cls-1" points="319.844 215.461 321.616 217.676 319.844 219.89 316.08 218.119 317.187 215.683 319.844 215.461"/><polygon class="cls-1" points="321.173 208.818 321.837 212.804 317.851 214.354 316.08 214.133 313.423 212.14 314.751 208.154 318.516 207.711 321.173 208.818"/><polygon class="cls-1" points="325.159 207.489 325.159 208.154 324.495 208.375 324.273 207.268 325.159 207.489"/><polygon class="cls-1" points="319.844 206.604 319.623 207.711 318.073 207.489 318.294 206.604 319.844 206.604"/><polygon class="cls-1" points="318.294 206.604 318.073 207.489 316.302 207.489 316.302 206.382 318.294 206.604"/><polygon class="cls-1" points="320.066 203.061 320.066 204.832 319.402 204.611 318.294 204.611 318.073 203.503 318.516 202.839 320.066 203.061"/><polygon class="cls-1" points="319.18 203.282 319.402 204.611 318.294 204.611 318.073 203.503 319.18 203.282"/><polygon class="cls-1" points="310.15 204.824 311.036 205.931 310.372 206.374 309.043 206.153 308.379 205.267 310.15 204.824"/><polygon class="cls-1" points="310.372 207.039 310.372 207.924 308.6 207.924 307.936 207.039 310.372 207.039"/><polygon class="cls-1" points="308.6 207.924 308.822 208.589 306.608 208.589 306.386 207.26 306.608 206.817 307.936 206.817 307.936 207.039 308.6 207.924"/><polygon class="cls-1" points="306.386 207.26 306.608 208.589 305.279 208.589 304.836 207.924 305.058 207.039 305.722 207.039 306.386 207.26"/><polygon class="cls-1" points="304.836 207.924 304.836 208.81 303.507 209.032 303.507 207.481 304.615 207.26 305.058 207.039 304.836 207.924"/><polygon class="cls-1" points="303.507 207.481 303.507 209.032 303.286 207.924 303.064 207.039 303.507 207.481"/><polygon class="cls-1" points="302.843 206.817 302.622 208.367 301.736 208.589 301.736 207.481 302.179 207.039 302.843 206.817"/><polygon class="cls-1" points="316.744 220.333 316.523 220.776 315.859 220.555 315.859 220.112 316.523 219.89 316.744 220.333"/><polygon class="cls-1" points="313.866 219.669 313.866 219.89 313.201 220.112 312.537 219.447 312.758 219.004 313.866 219.226 313.866 219.669"/><polygon class="cls-1" points="312.094 220.997 312.758 221.662 312.094 222.105 311.43 221.662 312.094 220.997"/><polygon class="cls-1" points="302.179 218.554 301.293 221.211 300.186 220.99 300.629 217.889 302.179 218.554"/><polygon class="cls-1" points="299.743 218.775 298.415 221.654 297.307 221.654 298.193 217.446 299.3 217.668 299.743 218.775"/><polygon class="cls-1" points="300.407 214.568 300.629 216.118 297.086 216.339 296.865 215.011 300.407 214.568"/><polygon class="cls-1" points="302.179 211.91 301.736 213.239 300.629 214.346 300.407 214.568 296.865 215.011 295.979 214.789 295.093 213.682 295.093 211.689 296.2 209.696 297.971 208.146 300.186 208.367 301.958 209.696 302.179 211.91"/><polygon class="cls-1" points="301.072 207.039 301.072 208.146 299.522 208.146 299.522 207.26 301.072 207.039"/><polygon class="cls-1" points="299.3 207.26 299.3 207.924 297.086 208.146 297.086 207.481 299.3 207.26"/><polygon class="cls-1" points="294.872 201.06 295.093 202.167 294.429 202.167 293.986 201.724 293.986 201.06 294.872 201.06"/><polygon class="cls-1" points="293.986 201.502 293.543 202.388 292.879 202.388 292.879 201.281 293.986 201.502"/><polygon class="cls-1" points="294.65 204.603 295.093 205.71 293.765 205.931 293.543 205.267 293.986 204.824 294.65 204.603"/><polygon class="cls-1" points="294.872 206.817 294.872 208.367 293.765 208.367 293.986 207.039 294.872 206.817"/><polygon class="cls-1" points="293.322 206.817 293.543 207.481 292.879 207.924 292.436 206.817 293.322 206.817"/><polygon class="cls-1" points="292.214 208.146 291.993 209.696 289.114 209.474 289.114 207.924 292.214 208.146"/><polygon class="cls-1" points="292.657 210.36 293.1 210.803 291.772 212.353 290 212.796 289.336 211.025 291.993 210.139 292.657 210.36"/><polygon class="cls-1" points="282.25 205.931 282.028 206.817 281.143 206.596 280.922 205.71 281.586 205.488 282.25 205.931"/><polygon class="cls-1" points="288.229 214.789 287.343 216.561 286.236 217.004 281.143 217.446 279.15 216.782 277.378 214.568 276.493 212.353 276.493 209.917 278.043 207.703 279.814 206.596 280.922 206.817 283.357 207.481 284.686 208.146 285.793 208.81 287.343 210.139 287.786 211.689 288.007 213.239 288.229 214.789"/><polygon class="cls-1" points="287.564 217.004 287.564 218.111 285.35 218.332 285.128 217.225 287.564 217.004"/><polygon class="cls-1" points="284.907 217.446 285.128 218.332 282.25 218.332 282.028 217.446 284.907 217.446"/><polygon class="cls-1" points="282.028 217.446 282.25 218.332 279.371 218.554 279.371 217.446 282.028 217.446"/><polygon class="cls-1" points="279.371 217.446 279.371 218.554 277.378 218.554 277.157 217.225 279.15 217.004 279.371 217.446"/><polygon class="cls-1" points="277.157 217.225 277.378 218.554 275.164 218.554 275.164 217.004 277.157 217.225"/><polygon class="cls-1" points="282.25 218.332 283.136 218.775 282.471 219.661 282.25 219.882 281.807 219.661 280.257 219.439 280.035 218.997 280.478 218.111 281.143 217.668 282.25 218.332"/><polygon class="cls-1" points="282.471 219.661 283.357 220.104 282.471 220.768 281.807 220.768 281.586 220.104 281.807 219.661 282.471 219.661"/><polygon class="cls-1" points="280.257 218.554 280.922 219.661 279.371 219.661 279.593 218.554 280.257 218.554"/><polygon class="cls-1" points="274.943 204.381 276.271 205.488 275.164 206.817 274.278 205.931 274.278 205.71 274.943 204.381"/><polygon class="cls-1" points="272.072 219.275 270.965 220.825 269.193 221.49 267.2 221.047 265.207 220.825 263.436 219.94 262.107 218.168 261.886 216.175 262.107 214.404 263.214 212.632 264.986 211.968 268.529 212.632 270.3 213.075 271.629 214.182 272.515 215.954 272.736 217.725 272.072 219.275"/><polygon class="cls-1" points="267.865 204.881 268.086 206.432 266.315 206.432 266.315 204.881 267.865 204.881"/><polygon class="cls-1" points="261 219.275 260.336 221.711 258.565 222.818 256.572 223.261 254.136 223.261 251.7 222.376 249.928 221.047 248.6 219.718 247.936 218.168 247.714 215.954 247.936 213.518 248.379 211.525 249.707 209.753 252.143 208.867 254.579 208.646 257.015 208.867 259.672 210.639 260.557 212.411 261.222 214.404 261.222 216.839 261 219.275"/><polygon class="cls-1" points="241.621 218.439 241.4 219.103 240.735 219.103 240.514 218.66 241.178 217.996 241.621 218.218 241.621 218.439"/><polygon class="cls-1" points="222.799 217.553 231.878 217.332 232.099 210.246 237.856 209.803 237.856 216.667 237.856 225.082 219.256 224.861 218.592 217.553 218.813 209.581 222.356 208.695 222.799 217.553"/><polygon class="cls-1" points="227.449 208.031 227.228 209.36 224.792 208.917 224.792 207.588 227.006 207.588 227.449 208.031"/><polygon class="cls-1" points="209.513 209.041 209.292 210.591 207.742 210.591 207.742 209.484 209.513 209.041"/><polygon class="cls-1" points="207.521 209.262 207.742 209.927 206.413 209.927 206.192 209.262 207.521 209.262"/><polygon class="cls-1" points="197.392 217.578 197.17 218.243 196.949 218.021 196.506 218.021 196.727 217.357 197.392 217.578"/><polygon class="cls-1" points="193.406 207.613 193.185 208.056 192.52 207.835 192.299 207.613 192.077 207.392 192.299 206.949 192.963 206.949 193.406 207.613"/><polygon class="cls-1" points="190.306 206.949 190.528 207.392 190.085 208.056 189.42 207.392 189.199 207.17 189.42 206.506 189.863 206.506 190.306 206.949"/><polygon class="cls-1" points="176.364 212.813 176.806 214.142 173.485 215.249 173.264 213.478 176.364 212.813"/><polygon class="cls-1" points="172.821 217.021 173.707 218.349 172.599 219.014 171.935 218.792 172.821 217.021"/><polygon class="cls-1" points="171.935 213.035 171.935 213.478 169.72 213.699 169.72 213.256 171.935 213.035"/><polygon class="cls-1" points="152.67 212.92 152.449 213.363 152.227 213.584 151.563 213.363 151.563 212.699 152.67 212.477 152.67 212.92"/><polygon class="cls-1" points="151.342 208.491 152.006 209.377 151.12 210.263 150.456 209.598 150.456 208.713 151.342 208.491"/><polygon class="cls-1" points="150.899 205.17 150.899 205.612 150.456 205.612 150.235 205.17 150.899 205.17"/><polygon class="cls-1" points="109.27 210.413 109.048 211.742 107.498 211.742 107.719 210.192 109.27 210.413"/><polygon class="cls-1" points="107.712 209.092 107.047 210.421 105.94 209.978 106.604 208.428 107.712 209.092"/><polygon class="cls-1" points="105.719 210.643 106.383 212.193 105.054 212.636 104.611 211.085 105.719 210.643"/><polygon class="cls-1" points="99.518 210.2 99.518 211.307 98.411 211.528 98.633 210.2 99.518 210.2"/><polygon class="cls-1" points="60.546 211.085 60.989 211.971 59.661 212.636 59.439 211.971 60.546 211.085"/><polygon class="cls-1" points="552.056 175.543 551.392 176.207 550.728 175.322 552.056 175.543"/><polygon class="cls-1" points="550.949 178.643 551.171 179.308 549.62 178.865 550.285 178.643 550.949 178.643"/><polygon class="cls-1" points="552.721 180.636 552.278 181.301 551.835 180.858 552.278 180.415 552.721 180.636"/><polygon class="cls-1" points="557.813 179.972 557.592 180.415 557.37 180.636 556.928 180.858 556.263 180.415 556.263 179.308 557.592 179.529 557.813 179.972"/><polygon class="cls-1" points="557.592 177.315 556.706 178.422 556.042 177.979 555.378 176.872 556.706 175.765 557.592 177.315"/><polygon class="cls-1" points="556.263 172.443 558.257 173.993 556.263 174.879 555.599 174.214 556.263 172.443"/><polygon class="cls-1" points="562.242 173.55 562.463 174.879 561.135 175.1 560.471 174.657 560.249 174.214 560.249 173.993 560.914 173.329 562.242 173.55"/><polygon class="cls-1" points="566.576 173.551 566.798 174.659 565.469 174.88 564.584 174.216 564.584 173.551 565.026 173.33 566.576 173.551"/><polygon class="cls-1" points="569.012 173.33 569.012 174.437 567.462 174.437 567.462 172.666 568.126 172.666 569.012 173.33"/><polygon class="cls-1" points="585.05 174.749 585.05 174.971 583.501 173.642 583.943 172.978 584.386 173.199 585.05 173.42 585.05 174.749"/><polygon class="cls-1" points="194.07 173.954 194.07 175.725 192.742 175.504 192.963 173.954 194.07 173.954"/><polygon class="cls-1" points="197.17 173.732 197.17 175.504 194.292 175.283 194.292 173.954 197.17 173.732"/><polygon class="cls-1" points="200.049 173.954 200.049 175.504 197.17 175.504 197.17 173.732 200.049 173.954"/><polygon class="cls-1" points="203.371 173.732 203.149 175.283 200.271 175.504 200.271 173.732 203.371 173.732"/><polygon class="cls-1" points="203.149 175.504 203.149 178.383 202.042 178.383 201.599 175.504 203.149 175.504"/><polygon class="cls-1" points="202.706 178.604 202.706 181.04 201.378 181.04 201.599 178.604 202.706 178.604"/><polygon class="cls-1" points="194.07 176.833 194.07 177.718 192.742 177.497 192.963 175.725 193.849 175.947 194.07 176.833"/><polygon class="cls-1" points="194.07 178.604 194.292 181.262 192.742 181.262 192.742 178.604 194.07 178.604"/><rect class="cls-2" x="197.6132" y="180.1543" width="3.7644" height="1.1072"/><polygon class="cls-1" points="199.385 179.711 199.385 181.483 196.285 181.262 196.506 179.49 199.385 179.711"/><polygon class="cls-1" points="13.824 182.298 14.266 183.183 12.495 183.848 12.052 182.741 12.274 182.076 13.16 181.855 13.381 182.076 13.602 182.298 13.602 182.076 13.824 182.298"/><polygon class="cls-1" points="11.831 176.54 24.452 178.09 24.01 169.675 43.496 166.132 44.382 182.519 40.396 182.519 31.096 182.962 24.895 183.626 12.717 180.969 11.831 176.762 11.831 176.54"/><polygon class="cls-1" points="33.31 182.962 31.096 182.962 31.096 182.519 33.31 182.076 33.31 182.962"/><polygon class="cls-1" points="34.417 182.741 33.31 182.962 33.31 182.076 34.417 182.076 34.417 182.741"/><polygon class="cls-1" points="37.296 181.855 37.296 182.741 34.638 182.741 34.638 182.076 37.296 181.855"/><polygon class="cls-1" points="38.846 181.633 38.846 182.519 37.296 182.519 37.296 181.855 38.846 181.633"/><polygon class="cls-1" points="26.445 184.734 26.003 185.619 24.452 184.734 25.117 184.069 26.445 184.734"/><polygon class="cls-1" points="55.232 181.412 55.453 182.741 53.46 182.741 53.46 181.19 55.232 181.412"/><polygon class="cls-1" points="60.989 181.855 60.546 182.741 58.996 182.298 59.661 180.969 60.767 181.19 60.989 181.855"/><polygon class="cls-1" points="64.753 163.253 65.86 177.647 51.91 178.976 50.36 165.025 64.753 163.253"/><polygon class="cls-1" points="64.311 181.412 64.532 182.519 62.76 182.519 62.982 181.412 64.311 181.412"/><polygon class="cls-1" points="65.418 181.19 65.418 182.298 64.753 182.298 64.975 181.19 65.418 181.19"/><polygon class="cls-1" points="66.303 181.19 66.303 182.298 65.639 182.519 65.418 181.19 66.303 181.19"/><polygon class="cls-1" points="67.853 180.748 67.853 181.855 66.746 181.855 66.525 181.19 67.853 180.748"/><polygon class="cls-1" points="70.289 180.969 70.289 181.633 68.518 182.076 68.518 181.19 70.289 180.969"/><polygon class="cls-1" points="71.618 180.748 71.618 181.412 70.289 181.633 70.289 180.969 71.618 180.748"/><polygon class="cls-1" points="73.832 180.305 73.832 180.969 71.618 181.412 71.618 180.748 73.832 180.305"/><polygon class="cls-1" points="73.611 179.862 73.832 181.412 73.611 181.633 73.389 181.855 72.946 182.076 72.504 182.076 72.282 182.076 71.618 182.298 71.175 182.298 71.175 180.305 73.611 179.862"/><polygon class="cls-1" points="71.175 180.305 70.953 182.298 68.518 182.298 68.518 180.305 71.175 180.305"/><polygon class="cls-1" points="73.389 174.99 73.611 179.64 68.518 180.083 68.296 175.211 73.389 174.99"/><polygon class="cls-1" points="80.697 180.305 80.918 181.412 79.59 181.633 78.925 181.19 78.925 180.526 80.697 180.305"/><polygon class="cls-1" points="80.254 180.083 80.475 181.412 78.704 181.855 78.704 180.526 80.254 180.083"/><polygon class="cls-1" points="81.804 179.862 81.804 181.19 80.475 181.412 80.254 180.083 81.804 179.862"/><polygon class="cls-1" points="85.347 184.291 85.347 185.619 83.354 185.619 83.354 184.512 85.347 184.291"/><polygon class="cls-1" points="83.575 179.862 83.796 180.526 82.025 181.412 82.247 179.419 82.468 179.197 82.69 179.197 82.69 179.419 82.911 179.419 83.132 179.419 83.354 179.64 83.575 179.862"/><polygon class="cls-1" points="79.368 177.426 80.475 177.426 80.918 177.204 81.361 178.755 79.147 178.976 79.147 177.869 79.368 177.869 79.368 177.647 79.368 177.426"/><polygon class="cls-1" points="86.454 178.755 86.011 180.083 84.683 180.305 84.904 178.755 86.454 178.755"/><polygon class="cls-1" points="85.347 174.547 86.011 174.547 86.675 176.097 85.125 176.097 85.125 174.99 85.568 174.769 85.347 174.547"/><polygon class="cls-1" points="87.561 168.79 87.561 170.561 86.675 170.783 86.675 169.897 86.454 169.011 87.561 168.79"/><polygon class="cls-1" points="105.276 181.855 104.833 182.519 103.947 182.298 103.947 180.969 104.833 181.19 105.276 181.855"/><polygon class="cls-1" points="103.726 180.526 103.726 182.076 99.74 182.741 99.74 180.969 103.726 180.526"/><polygon class="cls-1" points="102.176 179.64 101.733 180.526 100.847 180.083 100.626 176.319 100.626 175.654 101.954 177.426 101.954 177.869 102.176 178.09 102.176 178.755 102.176 179.197 102.176 179.64"/><polygon class="cls-1" points="101.733 172.333 101.954 174.326 100.626 174.547 100.404 173.44 100.847 172.554 101.733 172.333"/><polygon class="cls-1" points="162.848 166.868 162.848 180.597 152.22 181.04 151.334 166.868 162.848 166.868"/><polygon class="cls-1" points="160.855 179.933 161.298 181.262 159.305 181.926 159.084 180.819 160.855 179.933"/><polygon class="cls-1" points="158.198 181.04 158.862 181.704 155.541 182.147 155.319 181.262 158.198 181.04"/><polygon class="cls-1" points="165.505 179.49 165.284 180.597 164.177 179.933 164.62 179.047 165.505 179.49"/><rect class="cls-2" x="149.7837" y="181.9259" width="1.5502" height="1.7716"/><polygon class="cls-1" points="149.562 181.04 149.562 181.704 149.12 181.262 149.562 181.04"/><polygon class="cls-1" points="129.855 169.968 130.741 169.968 130.741 170.632 130.297 170.632 130.076 172.404 130.519 172.404 130.519 172.847 129.855 173.068 129.855 169.968"/><polygon class="cls-1" points="147.791 168.861 147.791 175.725 141.591 175.283 141.591 169.082 129.412 168.196 123.876 168.639 123.655 166.203 148.234 166.646 147.791 168.861"/><polygon class="cls-1" points="122.769 165.76 124.762 178.604 115.24 180.154 113.469 167.089 122.769 165.76"/><polygon class="cls-1" points="106.161 182.298 106.161 182.962 105.054 182.962 105.054 182.298 105.719 182.076 106.161 182.298"/><polygon class="cls-1" points="107.712 182.741 107.712 183.183 107.047 183.405 106.383 183.405 106.383 182.741 107.712 182.741"/><polygon class="cls-1" points="109.04 180.969 109.483 181.633 109.04 181.855 108.819 181.633 109.04 180.969"/><polygon class="cls-1" points="108.819 181.855 108.597 181.855 107.933 182.298 107.933 181.633 108.155 181.412 108.597 181.412 108.819 181.633 108.819 181.855"/><polygon class="cls-1" points="81.582 177.869 82.247 179.197 81.361 179.64 81.582 177.869"/><polygon class="cls-1" points="168.163 173.29 167.941 173.954 167.277 173.732 167.72 173.29 168.163 173.29"/><polygon class="cls-1" points="191.192 171.075 189.863 183.033 182.113 178.604 180.784 172.404 191.192 171.075"/><polygon class="cls-1" points="209.464 172.904 209.021 179.99 205.035 179.99 204.371 171.797 209.464 172.904"/><rect class="cls-2" x="212.8348" y="180.3506" width="1.1069" height="0.8858"/><polygon class="cls-1" points="217.263 180.351 217.263 181.458 215.049 181.679 215.27 180.351 215.713 179.908 217.263 180.351"/><polygon class="cls-1" points="217.042 179.465 217.263 180.129 215.713 179.908 215.713 179.465 217.042 179.465"/><polygon class="cls-1" points="219.035 181.015 219.256 181.901 218.592 182.122 217.485 181.901 217.706 181.015 219.035 181.015"/><polygon class="cls-1" points="221.249 181.015 221.249 182.344 220.142 181.901 220.142 181.015 221.249 181.015"/><rect class="cls-2" x="229.2206" y="180.5721" width="2.6571" height="0.6643"/><polygon class="cls-1" points="265.872 167.457 266.093 169.008 265.429 168.786 264.986 167.457 265.872 167.457"/><polygon class="cls-1" points="265.65 171.001 265.429 172.994 264.101 172.994 264.101 171.001 265.65 171.001"/><polygon class="cls-1" points="266.315 171.665 264.986 181.851 257.679 181.408 255.021 172.551 266.315 171.665"/><polygon class="cls-1" points="260.336 180.966 260.336 181.851 259.229 181.851 259.229 180.744 260.336 180.966"/><polygon class="cls-1" points="262.107 180.523 262.107 182.073 260.336 181.851 260.779 180.966 261.443 180.523 262.107 180.523"/><polygon class="cls-1" points="264.322 180.523 264.322 181.851 262.329 182.073 262.772 181.187 264.322 180.523"/><polygon class="cls-1" points="262.772 177.422 262.772 180.301 261.222 180.301 261 178.087 261.886 177.422 262.772 177.422"/><polygon class="cls-1" points="278.215 166.957 278.436 168.95 276.443 168.286 276.222 166.514 278.215 166.957"/><polygon class="cls-1" points="279.15 176.151 278.929 180.137 278.043 180.359 278.043 176.151 279.15 176.151"/><polygon class="cls-1" points="279.593 180.359 279.814 181.909 278.264 182.352 277.821 180.801 279.593 180.359"/><polygon class="cls-1" points="306.337 175.151 305.008 177.587 302.572 177.808 299.472 178.251 296.151 178.251 292.829 177.808 291.279 174.486 291.501 170.5 292.386 168.507 299.251 167.622 305.894 168.064 306.78 169.836 306.78 172.05 306.337 175.151"/><polygon class="cls-1" points="288.179 180.687 287.958 180.908 287.293 180.908 286.851 180.465 287.293 179.801 288.179 180.687"/><polygon class="cls-1" points="292.829 179.358 292.608 180.465 289.951 180.465 289.951 179.137 292.829 179.358"/><polygon class="cls-1" points="296.151 179.137 296.151 180.022 292.608 180.465 292.829 179.358 296.151 179.137"/><polygon class="cls-1" points="297.922 178.915 298.587 180.244 296.151 180.022 296.151 179.137 297.922 178.915"/><polygon class="cls-1" points="296.151 180.022 296.372 180.908 293.272 181.13 293.272 180.244 296.151 180.022"/><polygon class="cls-1" points="323.387 179.587 325.159 181.138 323.387 180.916 323.387 179.587"/><polygon class="cls-1" points="326.709 179.587 326.709 181.138 325.159 180.916 324.716 179.587 326.709 179.587"/><polygon class="cls-1" points="345.309 168.072 346.195 181.359 333.13 181.359 332.245 169.18 345.309 168.072"/><polygon class="cls-1" points="326.93 177.152 326.93 178.037 325.823 178.259 325.823 176.93 325.823 175.159 327.152 175.159 326.93 177.152"/><rect class="cls-2" x="336.4519" y="179.8089" width="2.4359" height="1.5501"/><polygon class="cls-1" points="342.652 179.809 342.652 181.359 340.216 181.359 340.216 179.366 341.766 179.366 342.652 179.809"/><polygon class="cls-1" points="342.431 177.816 342.652 179.145 340.438 179.366 340.659 177.816 342.431 177.816"/><polygon class="cls-1" points="353.945 178.259 353.059 179.587 351.731 179.809 349.295 179.587 348.188 177.594 347.966 174.937 348.409 173.166 349.738 172.501 351.288 172.723 353.059 173.166 354.166 174.494 354.388 176.487 353.945 178.259"/><polygon class="cls-1" points="355.717 180.695 356.159 181.802 354.609 182.023 353.945 180.695 355.717 180.695"/><polygon class="cls-1" points="373.21 172.221 374.539 180.858 362.581 181.522 361.253 173.55 373.21 172.221"/><polygon class="cls-1" points="371.881 178.643 372.767 179.751 372.103 180.415 370.553 180.415 370.331 179.529 370.774 178.643 371.881 178.643"/><polygon class="cls-1" points="387.271 179.198 387.271 180.084 386.385 180.084 386.164 178.977 387.271 179.198"/><polygon class="cls-1" points="400.778 176.319 400.999 177.427 398.564 177.427 398.564 176.319 400.778 176.319"/><rect class="cls-2" x="397.6782" y="176.7622" width="0.664" height="1.993"/><polygon class="cls-1" points="391.257 178.977 391.257 180.084 387.713 180.084 387.492 179.198 391.257 178.977"/><polygon class="cls-1" points="394.578 178.977 394.578 179.862 391.257 180.084 391.257 178.977 394.578 178.977"/><polygon class="cls-1" points="398.342 178.755 398.342 179.641 394.799 179.862 394.799 178.977 397.678 178.755 398.342 178.755"/><polygon class="cls-1" points="451.432 169.676 451.21 169.897 450.989 169.897 450.546 169.897 450.103 169.455 450.324 168.126 451.653 168.126 451.432 169.455 451.432 169.676"/><polygon class="cls-1" points="451.874 166.354 451.653 167.24 450.767 167.24 450.989 166.354 451.874 166.354"/><polygon class="cls-1" points="466.268 166.354 466.268 182.077 455.86 182.298 456.082 166.797 466.268 166.354"/><polygon class="cls-1" points="463.167 177.205 463.167 177.869 462.06 177.648 462.06 177.205 463.167 177.205"/><polygon class="cls-1" points="463.832 168.79 464.053 170.119 462.946 170.119 462.282 169.897 462.282 168.79 463.832 168.79"/><polygon class="cls-1" points="484.19 178.312 485.075 178.977 483.747 179.641 483.304 178.977 484.19 178.312"/><polygon class="cls-1" points="488.618 178.091 489.725 178.755 488.84 179.641 488.175 179.42 488.396 179.198 488.618 178.091"/><polygon class="cls-1" points="487.511 178.312 487.511 179.198 485.961 178.977 486.182 178.312 487.511 178.312"/><polygon class="cls-1" points="490.832 178.534 490.832 178.977 490.389 178.534 490.611 178.091 490.832 178.534"/><polygon class="cls-1" points="491.718 182.298 491.718 182.741 490.611 182.52 490.611 181.855 490.832 181.634 491.718 182.298"/><polygon class="cls-1" points="493.268 182.077 493.489 182.741 492.825 183.184 491.94 182.298 492.161 181.855 493.268 182.077"/><polygon class="cls-1" points="496.368 180.416 496.368 181.08 495.04 180.859 495.04 180.195 495.04 179.973 495.704 180.195 495.704 180.416 496.368 180.416"/><polygon class="cls-1" points="501.461 170.008 501.461 175.766 495.704 175.766 495.483 170.23 501.461 170.008"/><polygon class="cls-1" points="494.818 163.143 491.718 163.365 491.718 162.258 495.04 162.036 494.818 163.143"/><polygon class="cls-1" points="499.025 161.593 498.804 163.143 496.811 163.143 496.811 161.593 499.025 161.593"/><polygon class="cls-1" points="495.926 157.607 496.368 159.379 495.261 159.379 493.268 158.936 493.268 157.386 494.597 156.5 495.926 157.607"/><polygon class="cls-1" points="498.583 164.694 499.468 165.801 498.583 166.244 498.14 165.579 498.583 164.694"/><polygon class="cls-1" points="499.911 166.022 499.911 166.908 498.804 167.129 498.583 166.244 499.911 166.022"/><polygon class="cls-1" points="497.918 166.244 498.361 166.908 497.918 166.908 497.918 167.129 497.475 167.129 497.475 166.244 497.918 166.244"/><polygon class="cls-1" points="515.093 148.75 515.093 149.635 513.986 149.857 513.765 148.75 515.093 148.75"/><polygon class="cls-1" points="515.093 150.964 515.315 151.628 514.429 151.628 514.429 150.964 515.093 150.964"/><polygon class="cls-1" points="515.315 152.071 514.872 153.621 513.544 154.064 513.986 151.85 515.315 152.071"/><polygon class="cls-1" points="514.872 153.843 513.986 156.057 512.879 156.057 513.322 154.286 514.872 153.843"/><polygon class="cls-1" points="524.172 166.687 525.279 175.323 513.543 175.544 513.543 165.801 524.172 166.687"/><polygon class="cls-1" points="520.408 177.094 519.3 179.309 517.086 176.652 520.408 177.094"/><polygon class="cls-1" points="521.736 176.873 521.515 177.316 521.072 177.537 521.072 177.316 521.736 176.873"/><polygon class="cls-1" points="530.151 182.188 531.037 182.631 530.372 183.073 530.151 182.188"/><polygon class="cls-1" points="531.037 181.302 531.258 182.188 530.372 182.188 530.594 181.745 531.037 181.302"/><polygon class="cls-1" points="532.143 181.302 531.701 181.966 531.037 181.08 531.258 180.638 531.701 181.08 532.143 181.302"/><polygon class="cls-1" points="532.808 180.859 532.808 181.302 532.365 181.302 531.922 180.859 532.808 180.859"/><polygon class="cls-1" points="533.915 181.08 534.358 181.523 533.472 182.188 533.251 181.745 533.472 181.302 533.915 181.08"/><polygon class="cls-1" points="534.358 182.188 534.136 182.631 533.915 182.188 534.358 181.523 534.358 181.745 534.358 182.188"/><polygon class="cls-1" points="533.472 180.416 534.136 180.638 533.472 181.302 533.029 180.859 533.472 180.416"/><polygon class="cls-1" points="533.915 179.309 534.358 179.53 533.915 179.752 533.472 179.752 533.915 179.309"/><polygon class="cls-1" points="535.244 179.973 534.358 180.195 534.579 179.309 535.244 179.973"/><polygon class="cls-1" points="535.908 180.195 536.13 181.966 535.022 181.745 534.358 181.08 535.908 180.195"/><polygon class="cls-1" points="541.223 178.645 542.108 180.859 541.444 181.302 539.894 181.08 539.672 179.309 541.223 178.645"/><polygon class="cls-1" points="542.772 170.894 542.551 171.78 540.78 172.001 539.894 171.115 540.78 169.565 541.665 169.122 542.772 170.894"/><polygon class="cls-1" points="537.236 170.008 537.458 170.23 537.015 170.894 536.572 170.673 536.572 170.23 537.236 170.008"/><path class="cls-1" d="M260.5573,187.83h0Z"/><polygon class="cls-1" points="525.722 184.845 525.722 185.509 524.615 185.731 524.615 184.845 525.058 184.402 525.501 184.624 525.722 184.845"/><polygon class="cls-1" points="498.14 148.528 499.247 152.293 495.04 152.514 494.154 148.307 498.14 148.528"/><polygon class="cls-1" points="453.646 174.769 453.646 174.991 453.203 174.991 452.981 174.991 452.981 174.769 452.981 174.548 453.203 174.326 453.424 174.326 453.646 174.326 453.646 174.548 453.646 174.769"/><polygon class="cls-1" points="447.446 176.984 447.224 177.648 445.674 178.534 445.231 177.869 445.231 177.648 445.231 177.427 445.453 176.984 445.453 176.541 446.117 176.098 446.339 176.319 446.117 176.984 446.339 177.205 447.446 176.984"/><polygon class="cls-1" points="448.331 180.97 448.775 182.52 447.888 182.963 446.56 182.077 447.667 181.191 448.331 180.97"/><polygon class="cls-1" points="409.193 174.769 409.193 175.434 408.085 175.212 408.085 174.991 408.307 174.548 409.193 174.769"/><polygon class="cls-1" points="357.267 210.147 357.267 213.911 347.081 214.797 346.859 209.039 354.609 210.147 357.267 210.147"/><polygon class="cls-1" points="349.96 206.382 349.96 207.711 348.188 207.268 348.188 206.382 349.96 206.382"/><polygon class="cls-1" points="352.395 205.496 352.395 206.382 349.96 206.382 350.181 205.496 352.395 205.496"/><polygon class="cls-1" points="356.159 206.825 355.717 207.932 353.945 207.489 354.388 205.939 356.159 206.825"/><polygon class="cls-1" points="355.274 207.711 354.609 209.039 352.617 208.375 352.617 207.711 355.274 207.711"/><polygon class="cls-1" points="354.166 206.604 353.945 207.711 352.617 207.711 349.96 207.711 349.96 206.382 352.395 206.382 354.166 206.604"/><polygon class="cls-1" points="9.819 214.741 9.819 223.667 10.724 223.486 11.167 214.629 9.819 214.741"/><polygon class="cls-1" points="23.346 218.836 22.238 220.608 20.024 221.05 17.588 220.386 16.924 220.165 16.481 218.172 17.367 216.179 20.024 215.957 21.795 216.179 23.124 216.4 23.346 218.836"/><polygon class="cls-1" points="39.289 214.629 40.174 215.293 39.731 215.957 38.846 215.293 39.289 214.629"/><polygon class="cls-1" points="63.425 220.165 62.982 221.715 60.767 222.601 57.889 222.601 56.782 222.379 56.339 220.386 56.782 218.172 58.553 217.729 60.989 217.729 63.203 217.95 63.425 220.165"/><polygon class="cls-1" points="62.318 210.864 62.982 211.528 61.654 212.414 61.21 211.528 62.318 210.864"/><polygon class="cls-1" points="69.404 211.528 69.404 213.3 66.746 213.078 66.968 211.307 69.404 211.528"/><polygon class="cls-1" points="72.504 211.307 72.282 212.857 69.625 212.857 69.404 211.528 72.504 211.307"/><polygon class="cls-1" points="67.853 211.307 67.632 213.078 66.303 212.857 66.303 211.528 67.853 211.307"/><polygon class="cls-1" points="75.161 211.971 74.497 213.521 72.504 213.3 72.725 211.528 75.161 211.971"/><polygon class="cls-1" points="75.604 211.75 75.604 213.3 73.389 213.3 73.832 211.307 75.604 211.75"/><polygon class="cls-1" points="73.832 211.307 73.389 213.3 67.632 213.078 67.853 211.307 73.832 211.307"/><polygon class="cls-1" points="75.825 214.629 74.054 231.901 65.418 232.123 68.075 214.407 75.825 214.629"/><polygon class="cls-1" points="79.368 211.971 79.147 213.521 77.375 213.521 76.489 211.971 79.368 211.971"/><polygon class="cls-1" points="88.889 214.407 88.447 219.057 83.132 219.057 82.911 215.957 88.889 214.407"/><polygon class="cls-1" points="103.062 214.186 102.397 220.165 91.768 220.386 91.99 213.964 103.062 214.186"/><polygon class="cls-1" points="101.511 212.414 101.29 213.3 99.075 213.078 99.297 212.193 101.511 212.414"/><polygon class="cls-1" points="99.297 212.193 99.075 213.078 96.197 213.078 96.418 212.193 99.297 212.193"/><polygon class="cls-1" points="130.527 225.764 130.306 227.314 117.684 226.65 117.684 224.214 130.527 225.764"/><polygon class="cls-1" points="117.684 224.214 117.684 226.65 110.155 224.435 109.712 213.363 117.241 213.363 117.684 218.456 117.462 220.449 117.684 224.214"/><polygon class="cls-1" points="118.791 218.678 119.012 220.228 117.462 220.449 117.684 218.456 118.791 218.678"/><polygon class="cls-1" points="131.413 225.542 131.191 227.535 130.306 227.535 130.527 225.764 131.413 225.542"/><polygon class="cls-1" points="134.513 225.1 133.848 231.3 129.863 231.521 130.527 227.535 130.97 225.542 134.513 225.1"/><polygon class="cls-1" points="127.427 211.149 127.427 211.813 126.763 211.813 126.763 210.927 127.427 211.149"/><polygon class="cls-1" points="133.184 211.813 132.963 212.477 131.856 212.256 132.077 211.37 133.184 211.813"/><polygon class="cls-1" points="140.934 216.463 140.27 217.128 139.606 216.685 140.049 215.799 140.934 216.463"/><polygon class="cls-1" points="146.47 211.37 146.47 212.699 145.142 212.92 145.142 211.591 146.47 211.37"/><polygon class="cls-1" points="148.684 211.149 148.463 211.37 147.577 211.149 147.799 210.927 148.684 211.149"/><polygon class="cls-1" points="151.342 211.37 151.342 212.034 150.456 211.813 150.677 211.149 151.342 211.37"/><polygon class="cls-1" points="179.021 213.256 179.021 218.792 178.135 219.014 178.135 213.256 179.021 213.256"/><polygon class="cls-1" points="171.714 219.9 171.935 220.785 171.271 220.785 171.271 219.9 171.714 219.9"/><polygon class="cls-1" points="450.169 205.066 449.948 207.281 449.062 207.059 449.284 205.066 450.169 205.066"/><polygon class="cls-1" points="448.619 204.402 448.619 205.288 447.291 205.952 446.626 205.288 448.619 204.402"/><polygon class="cls-1" points="457.034 204.181 457.034 204.845 456.369 204.845 456.369 204.402 457.034 204.181"/><polygon class="cls-1" points="156.213 216.02 154.885 224.878 152.892 225.1 154.442 216.02 149.57 215.799 149.57 213.142 156.435 213.584 156.213 216.02"/><polygon class="cls-1" points="253.029 182.737 252.807 183.623 252.586 183.623 252.364 183.18 251.922 182.959 252.143 182.294 252.586 182.073 253.029 182.737"/><polygon class="cls-1" points="251.479 181.851 251.7 182.294 251.036 182.737 250.593 182.294 250.593 181.63 250.593 181.187 251.7 180.966 251.479 181.63 251.479 181.851"/><polygon class="cls-1" points="397.014 171.005 397.457 171.005 396.792 171.89 396.35 171.448 397.014 170.783 397.014 171.005"/><polygon class="cls-1" points="397.235 170.562 397.678 170.783 397.457 171.005 397.235 171.005 397.014 170.783 397.235 170.562"/><polygon class="cls-1" points="417.496 199.017 417.496 199.239 415.503 199.017 415.725 198.574 417.496 199.017"/><polygon class="cls-1" points="419.49 199.239 419.49 199.682 417.496 199.46 417.939 199.017 419.49 199.239"/><polygon class="cls-1" points="557.149 201.675 556.928 202.339 555.378 202.339 555.378 201.453 557.149 201.675"/><polygon class="cls-1" points="555.156 201.453 555.156 202.339 554.049 202.339 553.828 201.453 555.156 201.453"/><polygon class="cls-1" points="458.255 222.732 458.255 224.947 456.706 226.94 454.049 229.154 448.956 230.04 445.191 228.933 442.091 227.826 438.991 225.611 435.891 222.954 433.234 219.411 431.462 215.425 431.684 213.432 432.348 211.439 434.119 209.224 436.334 207.453 439.655 206.567 443.42 206.124 447.184 207.674 450.727 209.224 453.384 211.439 455.82 213.653 457.591 216.311 458.255 219.632 458.255 222.732"/><polygon class="cls-1" points="531.037 176.652 531.258 177.759 530.151 177.537 529.929 176.873 531.037 176.652"/><polygon class="cls-1" points="463.61 178.534 464.053 179.641 463.389 179.641 463.167 179.198 463.61 178.534"/><polygon class="cls-1" points="461.396 177.648 461.618 178.312 460.953 178.312 460.953 177.648 461.396 177.648"/><polygon class="cls-1" points="237.856 209.803 237.635 212.46 236.085 212.46 236.085 210.024 237.856 209.803"/><polygon class="cls-1" points="243.392 208.474 243.392 210.024 239.185 210.024 239.407 208.695 240.514 207.367 241.4 206.702 242.728 207.145 243.392 208.474"/><polygon class="cls-1" points="369.224 204.985 369.445 205.649 365.903 206.313 365.681 205.427 369.224 204.985"/><polygon class="cls-1" points="367.674 206.313 367.896 208.085 366.345 208.085 366.124 206.313 367.674 206.313"/><polygon class="cls-1" points="368.781 206.313 369.224 207.42 368.117 207.863 367.896 206.313 368.781 206.313"/><polygon class="cls-1" points="368.56 206.092 368.338 207.42 367.009 207.199 367.009 206.092 368.56 206.092"/><polygon class="cls-1" points="367.231 205.206 367.231 206.313 366.124 206.313 366.124 204.985 367.231 205.206"/><polygon class="cls-1" points="369.002 204.763 369.002 206.092 367.674 206.313 367.674 204.985 369.002 204.763"/><polygon class="cls-1" points="522.117 205.178 522.781 210.492 515.695 210.935 515.252 205.62 522.117 205.178"/><polygon class="cls-1" points="535.846 203.406 536.51 209.385 526.545 210.049 526.103 203.849 535.846 203.406"/><polygon class="cls-1" points="511.709 217.578 523.002 216.693 522.781 212.264 524.995 212.264 524.995 216.693 537.174 216.028 537.174 210.492 539.389 210.492 539.831 215.807 547.139 215.364 546.696 209.606 549.132 209.385 550.017 218.021 509.495 220.236 509.273 211.156 511.709 211.156 511.709 217.578"/><polygon class="cls-1" points="422.368 172.001 422.368 172.223 422.146 172.223 421.704 172.223 421.482 172.223 421.261 172.223 421.261 171.115 421.482 170.894 421.704 170.894 421.925 170.673 422.146 170.673 422.368 170.673 422.589 170.673 422.589 170.894 422.589 171.115 422.589 171.337 422.589 171.78 422.589 172.001 422.368 172.001"/><polygon class="cls-1" points="426.575 172.001 426.354 172.223 426.132 172.223 425.69 172.444 425.468 172.444 425.246 172.223 425.025 172.001 425.025 171.78 425.025 171.337 425.025 171.115 425.246 170.894 425.468 170.673 425.69 170.673 425.911 170.673 426.132 170.894 426.354 170.894 426.354 171.115 426.354 171.337 426.354 171.558 426.354 171.78 426.575 172.001"/><polygon class="cls-1" points="433.883 173.994 433.661 174.216 433.44 174.216 433.218 174.437 432.775 174.437 432.554 174.437 432.332 174.437 432.332 173.994 432.332 173.773 432.111 172.444 431.89 171.78 432.111 171.558 432.332 171.558 432.554 171.558 432.997 171.558 433.218 171.558 433.44 171.558 433.661 172.001 433.661 172.444 433.661 172.666 433.661 173.108 433.661 173.33 433.661 173.551 433.883 173.773 433.883 173.994"/><polygon class="cls-1" points="436.54 182.188 436.54 182.409 436.318 182.409 436.097 182.631 435.875 182.631 435.432 182.631 435.211 182.631 434.768 182.631 434.547 182.631 434.325 182.631 434.104 182.631 433.883 182.631 433.883 182.409 433.661 182.409 433.661 182.188 433.883 181.745 433.883 181.523 434.325 181.302 435.432 181.302 435.875 181.302 436.097 181.302 436.318 181.523 436.54 181.523 436.54 181.745 436.54 181.966 436.54 182.188"/><polygon class="cls-1" points="434.547 180.638 434.325 180.859 434.104 180.859 433.883 181.08 433.661 181.08 433.44 181.08 433.218 181.08 432.997 181.08 432.775 181.08 432.775 180.859 432.554 180.416 432.775 180.195 432.775 179.973 432.997 179.973 433.218 179.752 433.44 179.752 433.661 179.752 433.883 179.752 434.104 179.752 434.325 179.752 434.547 179.973 434.547 180.195 434.547 180.416 434.547 180.638"/><polygon class="cls-1" points="425.025 180.859 424.803 180.859 424.361 180.859 424.139 180.638 424.139 179.973 424.361 179.973 424.803 179.973 425.025 179.973 425.025 180.638 425.025 180.859"/><polygon class="cls-1" points="420.375 181.08 420.154 181.302 419.711 181.302 418.825 181.523 418.604 181.302 418.604 181.08 418.604 179.973 419.046 179.973 419.268 179.752 419.489 179.752 419.711 179.752 419.932 179.752 420.154 179.752 420.154 179.973 420.375 179.973 420.375 180.195 420.375 180.416 420.375 180.638 420.375 180.859 420.375 181.08"/><polygon class="cls-1" points="419.711 176.209 427.461 176.209 427.461 169.787 428.79 170.008 429.011 178.866 417.718 179.087 417.718 170.673 419.711 170.673 419.711 176.209"/><polygon class="cls-1" points="432.111 175.987 434.325 175.987 434.325 174.659 435.432 174.659 435.211 170.894 437.647 171.115 437.868 178.645 429.011 178.866 428.79 170.008 430.561 170.008 430.782 174.659 432.111 174.659 432.111 175.987"/></g><g id="wegen_GIS_" data-name="wegen (GIS)"><g id="muur"><path class="cls-3" d="M10.8405,160.6789q7.2866-.4467,14.5639-1.0311a2.1738,2.1738,0,0,0-2.4275-.2506,5.1944,5.1944,0,0,0,2.4275.2506l-5.3132-3.9357"/><path class="cls-3" d="M39.6029,153.4349l4.6952,3.9684L83.014,150.6"/><path class="cls-3" d="M89.0041,142.6149v-6.5441"/><path class="cls-3" d="M103.2651,140.6116l-.4072-5.9643"/><path class="cls-3" d="M103.3942,147.7922l.4358,5.2353.8644,6.65a2.4526,2.4526,0,0,0,1.0065,1.6794l2.38,1.7a3.0868,3.0868,0,0,0,1.8349.5749l88.7148-1.15,60.4039-.7129a2.6659,2.6659,0,0,0,2.634-2.6246l.1254-8.1512"/><path class="cls-3" d="M278.2936,156.0024l-.0555,7.35a2.7041,2.7041,0,0,0,2.7152,2.7244l37.7182-.1556,149.586-3.49"/><path class="cls-3" d="M557.8827,138.0489c-.1673,3.263-1.1673,6.263.8327,9.263,3,3,7,1,11,1,41-3,81-1,122.0354-3.8279"/><path class="cls-3" d="M691.6471,230.5814c-14.9317-.2695-28.9317-1.2695-43.9317.7305-10,2-19,5-29,7s-19,3-28,4c-5,0-8-5-12-8-3-1-6-2-9-2-36-1-72-4-108-3-2,0-1,6-3,6-30-1-60-4-90-4-6-1-4,7-3.9266,10.6935"/><path class="cls-3" d="M342.04,240.8715c-.3248-2.56.6752-5.56-1.3248-8.56-41-2-83-1-124-1-9,0-19,0-28,3-59,0-118,0-177.2213-.4411"/></g><g id="weg"><path id="weg46" class="cls-4" d="M119.0579,142.2286v4.651H100.2423l-7.1315,4.8186L90.72,156.1123l-1.721,15.493-4.6222-.5136,1.7714-15.9444a2.3319,2.3319,0,0,1,.2667-.8505l2.8788-5.3142a2.3224,2.3224,0,0,1,.7424-.8191l8.1929-5.5358a2.3222,2.3222,0,0,1,1.302-.3991Z"/><path id="weg44" class="cls-4" d="M508.7373,151.9291l-4.6483.13c-.4825-16.7352-.1215-8.4272-.604-25.1624,1.625-.04,2.9805.04,4.6055,0C508.4977,143.6281,508.33,135.1975,508.7373,151.9291Z"/><polygon id="weg43" class="cls-4" points="272.424 141.325 272.469 163.762 267.819 163.699 267.793 141.053 272.424 141.325"/><rect id="weg12" class="cls-4" x="445.2979" y="187.5359" width="8.1929" height="4.6501"/><rect id="weg09" class="cls-4" x="139.9764" y="216.906" width="45.1793" height="4.5186" transform="translate(-58.9001 378.5828) rotate(-89.1812)"/><rect id="weg08" class="cls-4" x="267.819" y="163.7306" width="4.6501" height="26.7948"/><rect id="weg05" class="cls-4" x="504.6418" y="151.9858" width="4.6504" height="37.2194" transform="matrix(0.9996, -0.0298, 0.0298, 0.9996, -4.8644, 15.2026)"/><rect id="weg04" class="cls-4" x="73.4323" y="181.7381" width="26.1341" height="4.6499" transform="translate(-99.0031 267.431) rotate(-89.029)"/><path id="weg03" class="cls-4" d="M164.5245,241.5339l-3.2937,19.5834a2.3842,2.3842,0,0,1-.0577.2455l-3.764,12.8435a2.3256,2.3256,0,0,1-.2126.5l-6.2,10.8509a2.3286,2.3286,0,0,1-.5807.6735L136.9079,296.86a2.328,2.328,0,0,1-.2874.1932l-15.943,9.0791-2.3012-4.041,15.7921-8.9931,13.0151-10.2418,5.84-10.22,3.6513-12.46,3.2995-18.4771Z"/><rect id="weg02" class="cls-4" x="351.1771" y="229.8881" width="4.6503" height="71.3081" transform="translate(-2.4543 3.2991) rotate(-0.5329)"/><path id="weg01" class="cls-4" d="M92.084,147.8738l-1.8948,4.2474L75.7959,145.7a2.32,2.32,0,0,1-.9059-.72l-5.5359-7.3081a2.3362,2.3362,0,0,1-.4649-1.5849l.6977-8.2608,4.5068.9013-.4994,6.84,4.642,6.1278Z"/></g><g id="hoofdweg"><polygon class="cls-5" points="693.64 173.747 680.504 174.685 678.733 174.685 608.76 180.221 566.023 182.879 523.951 186.422 517.308 187.307 515.094 187.75 507.122 187.75 504.686 187.529 499.594 187.529 496.051 188.193 275.06 188.193 268.86 187.972 260.667 187.972 249.153 187.75 224.795 187.75 182.944 187.972 176.523 188.193 121.828 188.415 117.178 188.193 110.314 187.75 91.935 185.979 79.756 185.757 77.542 185.979 73.778 186.643 9.819 186.643 9.819 203.025 63.149 202.809 148.622 202.587 161.244 202.809 168.108 203.251 172.537 203.251 176.301 202.587 210.845 201.923 256.46 201.037 317.132 201.037 348.355 200.816 349.462 200.816 444.9 201.48 487.414 201.48 510.886 200.816 546.759 198.601 582.852 195.501 677.847 186.865 693.64 186.055 693.64 173.747"/></g></g><g id="monumenten_outline_GIS_" data-name="monumenten outline (GIS)"><polygon id="monumenten_outline_-_V_-_archeologie_kleur" data-name="monumenten outline - V - archeologie kleur" class="cls-1" points="615.633 225.171 614.747 226.942 612.754 228.492 610.319 228.714 598.14 229.821 596.147 229.6 593.711 226.721 591.054 225.392 589.504 223.399 588.839 220.52 589.504 204.355 589.947 201.476 592.825 201.255 613.419 199.483 614.525 199.483 619.397 201.476 615.854 222.513 615.633 225.171"/><path id="monumenten_outline_-_I" data-name="monumenten outline - I" class="cls-6" d="M548.1419,166.3234v.4429l-.2212.2215-.4429.2214-.2216-.2214-.2212-.2215v-1.7715l-.2217-.4429V164.33l-.2212-.2214v-.2214l.2212-.2215v-.4429l.2217-.4429v-1.3286l.2212-.4429.2216-.2215v-.4428l.2212-.2215h.6645l.2212.4429v.6643l-.2212.4429v2.8788l-.2216.6643v1.1072Zm-4.2073-8.4148v.4429h-.2212v.2214l-.2217.2214h-.2212v.2215l.2212.2214v.2215h-.4428v.2214h-.2212l-.2217-.2214v-.2215h-.2212v-.2214h.2212v-1.1072h0v-.6644l.2217-.2214h.2212l.2216-.2215.2212.2215h.2217v.4429h.2212v.4429Zm-3.1-3.3217v.2214h-.2212v.2215l-.2216-.2215h-.4429v-.4428h-.2216v-.2215l.2216-.2214h.2212v-.2215h.2217v.2215h.4428v.2214h.2217l-.2217.2215Zm.6645-1.1072-.2216.2214V153.48h-1.3286v-1.1072h1.3286l.2216.2214v.8858Zm6.2-19.2657h.2217v-.2214h.2212l.2216.2214v-.2214h3.1v1.55H549.47l-.2212.2214h-1.7714v.2215l-.2216-.2215v.2215h-.4429v1.55h.8857v-.2214h.4429v.2214h.2216v-.2214h.2212v.2214l.2217-.2214h2.4354v1.1072h-.4428l-.2212.2214v-.2214h-.2217l-.2212.2214h-2.6571v.2215h-.6645v.8857l.2217.2215v5.3146h.2212v5.979h.2216v5.5361h.2212v.2215l.2217-.2215h2.6571v.2215l.2212.2214h-.2212v.8858h-.4429v.2215h-1.3285v.2214h-.4429v-.2214h-.4428l-.4429.2214h-.2216v-.2214h-.2212v.2214h-.4429v0h-.4428v-.2214l-.2217.2214h-.8857l-.2216-.2214v-.8858h.6645v-.4429h-.4429v.2214H544.82v.2215h-.2212v.2214h-.2217l-.2212-.2214V156.137l.2212-.2214h.2217l.2212-.2215.2216-.2214h.8857l.2217-.2215h.2212v-1.3286l-.2212-.2215v-2.2144h-.2217v-2.2145h.2217v-.2214h-.2217v-1.7716h-.2216l.2216-.2214v-3.3217h-.2216v-.2214l.2216-.4429-.2216-.2214.2216-.4429-.2216-.8858v-4.65l-.2212-.4429v-3.986h1.1073l.2212.2214v1.55h.2217l.2212-.2214v.2214h.4428Zm-21.9217,21.923h.2212v.2215h.2217v.2214h-.2217v.2214h-.2212v.2215h-.8857v1.3287H524.67l.2216.2214v3.3217h.2212l.2217.2214h.8857v.2215h.2212v.6643h-2.2143V160.123l-.2212-.2214V159.68h.2212v-.2214h-.2212v-2.2145h-1.7718v-.2214l.2216-.2215h-.2216v-.4428l.2216-.2215h3.3216Zm22.3646-34.9882v.2215h-.4429l-.2212.2214h-.4428v.2214h-.4429V121.37l-.2216-.2215v-.6643h-.2212v-.2214h.2212l.2216-.2215h.6641l.4428-.2214v.2214Zm-15.7218,5.979h-.8857v.2215h-.4429l-.2212-.2215h-.2216v-1.1072h-.2212v-.2214h.2212l.2216-.2215h1.1069v.2215h.2217v.8857l.2212.2215Zm-11.2929-1.1072.4428,9.7435h-1.55l-.4428-9.7435Zm1.7714-1.3287v1.1073h-.8857v1.1072l.2212.2214v3.986h.2216v4.2075l.2212.2214-.2212.2214h1.7714v-.2214h2.6571V134.214h-.2212V132h-.2216v-.2214h0v-.8858h0v-.2215h.2216l-.2216-.2214v-1.7716h.4428l-.2212-.2214v-.2215l.2212-.2214h0l-.2212-.2214v-2.2145h-.8857v-.4429h-.2216v-.6643l.2216-.2215h.6641v-.2214l.2216-.2214v-.6644l-.2216-.2214v-.4429l.2216-.2214v-1.993h-.2216v-2.6574l1.1073-.2214h.2212v.4429l-.2212.2214.2212.2214v.2215h-.2212l.2212.2214v6.2h.2217v3.5431H530.87v-.2215h3.1v-.2214h.6645l.2212-.2214v.2214h.6644l.2212-.2214h.6645v.2214h2.8783l.2217-.2214h1.993v.2214h.2212v4.2074h.2217v.4429h0v1.1072l.2212.2215v.6643h-.2212l.2212.2215V135.1l-.2212.2215h.2212V136.65h-.2212v.2215h0V139.75h.2212v1.1073h-.2212v1.55l.2212.8857v5.3147l.2216.2214v3.1h-1.55v.2214h-.2212l-.2216-.2214h-.6645v.4429h-.2212v.4429h.2212v2.8787h.4428v-.2214h.6645v.2214h.2217v.2215h.2212v.2214h.2216l-.2216.2215v.2214l-.2212.2214v.8858l-.2217.2215v.4429h-1.1073v.2214l-.2212-.2214h-.6645v.2214h-.6641v.4429h.2212l-.2212.2214v.2215h.2212v.2214h0v.4429h-.2212v.2215h-.2216v.2214h-1.7714v.2214h-.8857v0h-.664v-.2214h-.4433l-.2212.2214h-1.1074v.2215h-.2212v.2214h-.4428v.2215h-.4429V161.23h-.4428v-.2214h-.8857v-.4429h.2212v-.6643h-.2212v-.8858l-.2217-.2215v-.4428h.2217v.2214h.4428v-2.2144h-.2216v-.4429h.2216v-.6644l-.2216-.2214v-2.6573h-1.1069v.2214H529.32v-.2214h-.2212v.2214h-1.1073V151.93h-.6645v-.6644h.2216v-.2214h0v-.2215h-.2216l-.2212-.2214V150.38l.2212-.2215h-.2212v-5.3146l-.2217-.2215v-2.6573h.2217l-.2217-.2215.2217-.2214h-.2217v-.4429h.2217v-.2214l-.2217-.2215h.2217l-.2217-.2214v-3.3217h-.664v-.2214h-2.2143l-.4428.2214h-1.55v-1.3287h-.2217v-1.55H521.57v-.2214l.2212-.2215v-.4428H521.57v-3.7646l-.2216-.2214v-3.5431h-.8857l-.2212.2214H520.02l-.2212-.2214h-.2216v-.6644l.2216-.2214v-.2215h1.9926v-.2214h1.1074Zm3.5428-4.8717v4.4288h-1.1069v1.1073h-1.55l-.2212.2214H523.12v-1.1072h-.2216l-3.7645.2214v-.2214l-.4428-6.4219,7.5289-.4429Zm-2.2143-3.7646h.8857v-.2214h3.5428v-.2215h3.5433v-.2214h1.55V115.17h3.7644l.2217-.2214h6.6427v-.2215h.6645v.2215l.2212-.2215v.2215l.2217-.2215h.2212v.2215l.4433-.2215v.2215h5.3142v1.3286h-.2217v.2215h-4.8713l-.4429.2215h-4.8713l-.2217.2214h-3.1v.2214h-.4429v-.2214H537.07v.2214h-.6641l-.2216-.2214-.2212.2214h-.2217v-.2214h-.664l-.2216.2214h-5.3142l-.2217.2215h-3.1v.2214h-3.1v.2215h-.2216v-.2215h-2.2143l-.4428.2215h-.6645l-.2212-.2215-.2217-.2214V116.72h.2217v-.443h.2212l.2216-.2214h4.4285Zm-33.215,36.76-.2212,25.0231-20.8148.8858V153.48Z"/></g></svg>