<svg xmlns="http://www.w3.org/2000/svg" viewBox="0 0 448.5003 340.1575"><defs><style>.cls-1,.cls-2{fill:#d0d0d0;}.cls-1,.cls-3,.cls-6{fill-rule:evenodd;}.cls-3{fill:none;stroke:#b08a71;stroke-miterlimit:10;stroke-width:2px;}.cls-4{fill:#9d9d9c;}.cls-5{fill:#fbe100;}.cls-6{fill:#d6ad00;}</style></defs><g id="archeologie_GIS_" data-name="archeologie (GIS)"><polygon class="cls-1" points="380.204 135.702 380.425 134.374 381.532 133.488 382.196 135.26 380.204 135.702"/><rect class="cls-2" x="391.0538" y="136.8096" width="4.6501" height="1.3287"/><polygon class="cls-1" points="401.461 138.138 402.347 136.81 405.004 136.81 404.783 138.138 401.461 138.138"/><polygon class="cls-1" points="417.737 138.098 417.737 136.548 420.172 136.548 419.951 138.098 417.737 138.098"/><polygon class="cls-1" points="337.91 54.654 338.353 51.775 339.017 51.332 339.681 51.996 340.124 52.218 341.01 52.661 341.231 54.432 341.231 54.875 337.91 54.654"/><polygon class="cls-1" points="368.246 135.481 368.246 134.595 371.346 134.817 371.346 135.702 368.246 135.481"/><polygon class="cls-1" points="368.468 139.688 368.689 137.917 371.568 138.581 371.346 139.91 368.468 139.688"/><polygon class="cls-1" points="368.246 137.917 368.025 136.81 368.468 136.367 370.239 136.588 370.46 136.81 370.46 137.917 368.246 137.917"/><polygon class="cls-1" points="370.46 137.917 370.46 136.367 371.789 136.367 372.011 137.917 370.46 137.917"/><polygon class="cls-1" points="410.983 138.138 410.983 136.588 412.533 136.367 413.861 137.474 414.083 137.917 410.983 138.138"/><polygon class="cls-1" points="428.144 178.401 429.03 174.636 429.251 176.187 429.473 176.408 429.473 182.83 429.694 182.83 429.473 185.266 428.366 185.487 428.144 182.387 427.923 179.73 428.144 178.401"/><polygon class="cls-1" points="427.701 175.965 425.708 175.079 425.487 173.308 425.708 172.201 425.044 171.979 425.044 171.093 424.601 170.65 424.601 169.986 425.487 169.765 426.594 169.543 426.594 170.208 427.037 171.093 427.258 171.315 428.587 171.315 428.808 173.972 428.144 174.194 427.923 174.636 427.701 175.965"/><polygon class="cls-1" points="426.594 170.208 426.594 169.543 426.815 169.322 428.366 169.322 428.587 171.315 427.258 171.315 427.037 171.093 426.594 170.208"/><polygon class="cls-1" points="425.487 169.765 425.265 169.322 425.487 169.322 426.373 169.322 426.594 169.543 425.487 169.765"/><polygon class="cls-1" points="429.03 169.986 429.03 169.765 429.473 169.543 429.916 170.208 429.473 170.429 429.03 170.65 429.03 169.986"/><polygon class="cls-1" points="426.815 179.73 426.815 179.065 427.923 179.508 427.923 179.73 427.037 179.951 426.815 179.73"/><polygon class="cls-1" points="393.047 166.04 392.825 165.376 393.268 164.933 395.704 164.933 395.925 165.597 395.704 166.04 393.268 166.04 393.047 166.04"/><polygon class="cls-1" points="384.632 167.147 384.854 166.483 385.961 165.597 386.404 165.819 387.068 166.483 387.289 167.369 387.068 167.812 385.739 168.255 384.854 167.812 384.632 167.147"/><polygon class="cls-1" points="385.518 181.098 385.297 180.656 385.961 179.991 386.625 180.434 386.404 181.098 385.518 181.098"/><polygon class="cls-1" points="374.446 179.548 374.225 178.441 375.332 178.663 375.775 179.105 375.775 179.77 375.111 179.991 374.446 179.548"/><polygon class="cls-1" points="371.125 171.133 370.682 169.583 374.446 169.362 374.889 171.355 371.125 171.133"/><polygon class="cls-1" points="373.118 167.812 372.896 166.926 373.782 166.926 374.003 168.476 373.118 168.919 373.118 167.812"/><polygon class="cls-1" points="374.225 182.427 374.225 181.541 374.889 181.32 375.775 181.541 375.775 182.427 374.889 182.87 374.225 182.427"/><polygon class="cls-1" points="365.368 165.819 365.146 165.597 365.811 165.154 366.032 165.597 366.032 165.819 365.811 165.819 365.589 166.04 365.368 165.819"/><polygon class="cls-1" points="364.039 166.04 364.482 164.933 364.925 164.49 365.589 164.712 364.925 166.483 364.039 166.04"/><polygon class="cls-1" points="363.153 166.04 363.817 164.712 364.039 164.712 364.26 164.712 364.482 164.712 363.817 166.483 363.153 166.04"/><polygon class="cls-1" points="363.817 166.483 364.039 166.483 364.26 166.262 364.482 166.483 364.039 166.705 363.817 166.483"/><polygon class="cls-1" points="350.753 175.562 351.196 175.119 351.639 174.898 352.303 175.119 352.524 175.784 351.639 176.005 350.974 176.005 350.753 175.562"/><polygon class="cls-1" points="342.339 168.476 342.56 167.59 344.774 167.59 344.553 168.476 342.339 168.476"/><polygon class="cls-1" points="293.845 171.576 293.402 171.576 293.402 171.798 292.516 171.798 292.516 170.691 292.516 170.469 292.959 170.026 293.18 170.026 294.287 170.026 294.509 170.248 294.509 171.576 293.845 171.576"/><polygon class="cls-1" points="292.516 175.562 292.516 174.012 293.402 174.234 293.623 174.677 294.066 175.562 294.287 178.884 293.845 181.541 292.959 181.32 292.738 178.884 292.516 175.562"/><polygon class="cls-1" points="294.066 175.562 293.623 174.677 294.73 174.677 295.173 176.005 294.066 175.562"/><polygon class="cls-1" points="283.659 171.798 283.659 170.912 286.537 170.691 286.759 172.241 283.88 172.462 283.659 171.798"/><polygon class="cls-1" points="281.666 172.241 281.666 171.798 282.773 170.912 283.437 171.576 282.994 172.684 282.33 172.684 281.887 172.462 281.666 172.241"/><polygon class="cls-1" points="280.337 173.126 279.894 172.241 280.559 171.798 281.002 171.576 281.444 172.684 280.337 173.126"/><polygon class="cls-1" points="269.708 167.812 269.487 166.483 269.93 166.483 270.373 166.705 270.373 166.926 270.373 167.147 270.151 167.59 269.708 167.812"/><polygon class="cls-1" points="270.151 166.705 270.151 165.154 271.258 164.933 271.258 165.376 271.48 165.154 271.923 165.376 271.923 166.262 271.701 166.705 270.151 166.705"/><polygon class="cls-1" points="272.144 166.262 272.144 165.597 272.809 165.376 273.03 166.262 272.144 166.705 272.144 166.483 272.144 166.262"/><polygon class="cls-1" points="272.144 167.59 271.923 166.926 272.809 166.483 273.03 166.483 273.251 166.705 273.473 167.812 273.251 167.812 272.144 167.59"/><polygon class="cls-1" points="273.03 168.476 273.03 167.812 273.251 167.59 273.473 167.59 273.694 167.812 273.916 167.59 274.58 167.812 274.137 168.698 273.916 168.919 273.03 168.476"/><polygon class="cls-1" points="271.923 169.805 271.923 168.255 272.144 168.255 272.587 168.255 273.03 168.698 273.03 169.14 272.809 169.583 272.366 170.026 271.923 169.805"/><polygon class="cls-1" points="272.809 169.583 273.03 169.362 273.694 168.919 273.916 169.362 274.359 169.583 274.359 170.026 273.916 170.248 273.03 170.469 272.587 170.026 272.587 169.805 272.809 169.583"/><polygon class="cls-1" points="273.473 169.14 273.473 168.919 273.916 168.698 274.137 168.919 274.137 169.14 273.916 169.362 273.473 169.14"/><polygon class="cls-1" points="274.137 168.919 274.359 168.476 274.58 168.033 274.801 168.033 275.023 168.255 275.023 169.14 274.801 169.362 274.359 169.14 274.137 168.919"/><polygon class="cls-1" points="274.801 172.462 275.244 170.912 275.909 170.912 276.794 171.576 276.13 172.905 275.909 172.684 275.466 172.462 275.023 172.462 274.801 172.462"/><polygon class="cls-1" points="269.487 171.355 269.044 170.691 269.93 170.026 270.594 171.133 269.93 171.355 269.487 171.355"/><polygon class="cls-1" points="267.937 172.241 267.051 171.798 268.158 170.912 268.38 171.133 268.601 171.576 268.38 172.019 267.937 172.241"/><polygon class="cls-1" points="267.051 174.455 267.273 172.684 267.716 172.684 268.158 172.905 268.601 172.905 268.823 173.126 268.823 173.791 269.044 174.234 269.044 174.677 268.601 174.677 267.051 174.455"/><polygon class="cls-1" points="247.565 177.112 247.787 175.562 249.558 175.562 249.558 177.112 247.565 177.112"/><polygon class="cls-1" points="242.915 175.784 242.472 175.119 243.136 174.898 244.687 174.677 245.129 175.784 243.579 176.005 242.915 175.784"/><polygon class="cls-1" points="238.929 182.206 239.372 181.098 240.922 180.434 249.336 180.213 250.887 181.32 251.33 183.534 251.33 185.306 250.665 186.413 248.229 187.299 238.708 186.635 238.929 182.206"/><polygon class="cls-1" points="230.736 185.749 230.515 185.084 231.179 184.642 231.843 184.863 232.286 185.084 232.286 186.413 230.736 186.413 230.736 185.749"/><polygon class="cls-1" points="228.079 185.97 227.858 185.97 227.858 186.413 227.858 186.635 227.415 186.635 225.865 185.306 226.972 184.199 228.743 185.527 228.743 185.749 228.3 185.97 228.079 185.97"/><polygon class="cls-1" points="184.851 176.702 184.851 175.595 186.18 175.374 186.18 176.481 186.18 176.702 184.851 176.702"/><polygon class="cls-1" points="186.401 176.481 186.623 175.374 187.73 175.152 187.73 176.702 187.066 176.924 186.401 176.481"/><polygon class="cls-1" points="188.394 176.038 188.615 174.266 191.051 174.488 191.715 175.152 191.273 176.259 188.394 176.038"/><polygon class="cls-1" points="192.601 175.817 191.937 174.488 193.266 173.602 194.373 174.488 192.601 175.817"/><polygon class="cls-1" points="196.366 180.024 196.366 178.474 198.801 178.252 199.023 179.803 196.366 180.024"/><polygon class="cls-1" points="196.587 179.803 196.587 178.252 197.251 178.252 197.473 179.803 196.587 179.803"/><polygon class="cls-1" points="197.694 179.581 197.251 178.031 198.359 178.031 198.137 178.474 198.359 178.474 198.58 179.36 198.137 179.581 197.694 179.581"/><rect class="cls-2" x="195.037" y="180.2454" width="0.8857" height="1.3287"/><polygon class="cls-1" points="192.823 181.574 192.823 180.245 193.487 180.245 193.266 181.574 192.823 181.574"/><polygon class="cls-1" points="201.237 192.203 187.951 191.982 188.173 181.353 189.723 180.91 189.501 189.546 198.137 189.989 198.137 181.796 197.473 181.796 196.144 181.131 196.144 180.024 199.909 180.245 199.687 191.096 202.344 191.096 202.566 192.425 204.116 192.425 204.116 193.311 201.237 193.754 201.237 192.203"/><polygon class="cls-1" points="204.337 193.532 204.116 185.117 212.973 185.117 212.973 186.667 206.109 186.667 206.109 191.761 213.416 191.539 213.416 193.311 204.337 193.532"/><polygon class="cls-1" points="220.329 148.325 220.55 147.66 221.215 147.439 221.658 147.66 222.1 148.768 220.772 148.989 220.329 148.325"/><polygon class="cls-1" points="222.543 148.989 222.543 147.439 223.65 147.439 224.093 148.989 222.543 148.989"/><polygon class="cls-1" points="224.315 148.768 224.757 147.218 225.422 147.218 225.865 148.546 224.315 148.768"/><polygon class="cls-1" points="226.307 148.546 226.086 147.218 228.079 147.218 228.079 148.325 226.307 148.546"/><polygon class="cls-1" points="231.4 147.218 231.622 145.446 233.393 145.446 233.615 145.667 235.829 145.889 235.608 146.775 235.386 146.996 234.279 147.439 233.836 147.66 232.729 147.66 232.286 147.439 231.4 147.218"/><polygon class="cls-1" points="238.929 147.882 238.708 146.11 242.029 145.889 241.808 147.66 238.929 147.882"/><polygon class="cls-1" points="239.151 147.882 238.929 145.889 241.586 145.446 241.586 147.218 239.151 147.882"/><polygon class="cls-1" points="251.772 148.103 251.33 147.66 251.994 146.775 254.872 146.775 254.872 147.882 251.772 148.103"/><polygon class="cls-1" points="268.823 147.439 268.38 146.332 272.587 145.889 272.809 146.996 268.823 147.439"/><polygon class="cls-1" points="275.687 145.889 275.687 144.117 279.23 144.117 279.23 145.667 278.787 145.889 275.687 145.889"/><polygon class="cls-1" points="271.923 145.225 272.144 144.339 273.251 144.117 274.58 145.003 274.359 145.667 273.473 145.446 273.03 145.446 272.587 145.667 272.144 145.446 271.923 145.225"/><polygon class="cls-1" points="269.487 145.225 269.708 144.56 271.48 144.56 271.923 145.446 271.258 145.889 269.708 145.889 269.487 145.225"/><polygon class="cls-1" points="268.158 145.225 268.38 144.56 269.266 145.003 269.266 145.446 268.823 145.667 268.158 145.225"/><polygon class="cls-1" points="266.165 144.339 266.387 143.896 267.937 144.117 268.158 145.003 267.494 145.889 266.387 145.446 266.165 144.339"/><polygon class="cls-1" points="268.158 143.232 268.38 142.567 269.708 143.674 269.266 144.339 268.158 143.232"/><polygon class="cls-1" points="266.387 143.896 266.165 143.01 267.494 142.567 267.716 143.453 266.387 143.896"/><polygon class="cls-1" points="268.158 142.567 267.937 141.017 270.151 140.574 270.151 142.567 268.158 142.567"/><polygon class="cls-1" points="270.373 142.124 270.373 140.574 272.587 139.688 273.251 141.239 270.373 142.124"/><polygon class="cls-1" points="270.594 140.131 270.151 139.024 273.473 137.695 274.137 139.246 270.594 140.131"/><polygon class="cls-1" points="266.387 141.017 266.165 139.91 270.151 139.246 270.373 140.353 266.387 141.017"/><polygon class="cls-1" points="260.187 141.017 260.187 139.91 265.944 140.131 265.944 141.017 260.187 141.017"/><polygon class="cls-1" points="232.508 143.01 232.729 141.681 235.829 141.681 235.829 143.01 232.508 143.01"/><polygon class="cls-1" points="233.393 141.017 233.393 139.688 236.936 139.688 236.715 141.017 233.393 141.017"/><polygon class="cls-1" points="236.493 141.017 236.936 139.688 238.044 140.131 238.044 141.017 237.379 141.239 236.493 141.017"/><polygon class="cls-1" points="236.493 138.581 236.272 137.253 237.379 137.031 237.601 138.803 236.715 138.803 236.493 138.581"/><polygon class="cls-1" points="236.715 136.81 235.829 134.152 236.715 133.931 237.158 136.588 236.715 136.81"/><polygon class="cls-1" points="236.051 133.488 236.272 133.267 236.936 133.045 237.158 133.488 236.715 133.931 236.272 133.931 236.051 133.488"/><polygon class="cls-1" points="234.058 135.26 234.501 134.152 235.165 134.374 234.943 135.481 234.058 135.26"/><polygon class="cls-1" points="232.286 134.152 232.286 133.045 235.829 133.488 235.829 134.374 232.286 134.152"/><polygon class="cls-1" points="232.286 134.152 232.286 133.045 234.279 133.267 234.279 134.152 232.286 134.152"/><polygon class="cls-1" points="233.172 139.688 232.508 139.688 232.508 134.374 233.393 134.595 233.615 138.581 233.172 139.024 233.172 139.688"/><polygon class="cls-1" points="232.508 139.024 232.508 134.374 232.951 134.374 233.172 139.024 232.508 139.024"/><polygon class="cls-1" points="234.722 137.253 234.943 136.588 235.829 136.81 235.829 137.474 235.608 137.695 234.943 137.695 234.722 137.253"/><polygon class="cls-1" points="215.679 122.859 220.107 109.129 227.636 108.465 228.079 117.323 228.965 117.323 230.293 123.523 230.736 123.523 231.179 133.488 232.065 133.488 232.286 137.917 217.672 137.917 215.679 122.859"/><polygon class="cls-1" points="230.958 138.581 230.958 137.917 232.286 137.917 232.508 138.803 230.958 138.581"/><polygon class="cls-1" points="228.079 139.688 228.079 138.581 232.508 138.803 232.286 139.246 228.079 139.688"/><polygon class="cls-1" points="224.536 139.688 224.536 138.581 227.858 138.138 227.858 139.467 224.536 139.688"/><polygon class="cls-1" points="222.986 139.688 222.986 139.246 224.315 139.024 224.536 139.688 222.986 139.688"/><polygon class="cls-1" points="219.886 138.138 219.886 136.367 228.522 135.702 228.522 137.695 219.886 138.138"/><polygon class="cls-1" points="288.087 65.062 287.423 63.733 290.745 62.404 291.409 63.954 288.309 65.283 288.087 65.062"/><polygon class="cls-1" points="283.216 67.719 282.552 66.612 284.323 65.283 284.987 66.612 283.216 67.719"/><polygon class="cls-1" points="353.853 59.304 353.853 59.083 354.296 58.64 354.96 58.861 355.182 59.304 355.403 60.19 355.403 60.411 354.96 60.854 354.739 60.633 354.296 60.19 354.075 59.747 353.853 59.304"/><polygon class="cls-1" points="310.674 59.083 310.231 58.418 310.674 58.418 310.895 57.975 311.338 57.754 312.002 57.533 312.666 57.311 313.774 56.647 313.995 56.647 314.217 57.09 312.888 57.975 310.674 59.083"/><polygon class="cls-1" points="308.681 59.968 308.681 59.526 309.345 58.861 309.788 59.083 309.788 58.861 310.231 59.304 308.681 59.968"/><polygon class="cls-1" points="298.938 125.295 298.273 123.744 299.823 122.859 300.488 124.63 298.938 125.295"/><polygon class="cls-1" points="304.252 126.18 303.588 125.516 304.031 125.073 304.473 125.959 304.252 126.18"/><polygon class="cls-1" points="305.359 129.281 305.581 128.395 306.466 128.173 308.016 128.395 308.016 129.281 307.795 130.166 305.359 129.281"/><polygon class="cls-1" points="308.459 131.495 307.352 130.609 308.016 129.723 309.124 130.609 308.459 131.495"/><polygon class="cls-1" points="312.224 134.152 312.666 133.267 313.995 134.152 313.552 135.038 312.224 134.152"/><polygon class="cls-1" points="314.438 133.931 310.452 131.052 311.338 129.945 315.324 132.602 314.438 133.931"/><polygon class="cls-1" points="310.009 130.831 308.459 129.723 309.788 128.395 311.116 129.502 310.009 130.831"/><polygon class="cls-1" points="314.217 135.924 314.881 134.817 317.981 136.367 317.317 137.031 316.652 137.253 316.431 137.253 314.217 135.924"/><polygon class="cls-1" points="317.981 136.81 318.424 135.924 319.752 136.367 319.531 137.253 319.088 137.253 317.981 136.81"/><polygon class="cls-1" points="320.195 138.138 320.417 136.588 323.295 137.031 322.852 138.581 320.195 138.138"/><polygon class="cls-1" points="324.402 138.803 324.845 137.917 326.174 138.138 325.953 139.246 324.402 138.803"/><polygon class="cls-1" points="323.959 137.253 324.402 135.924 328.388 136.367 328.167 138.36 324.402 137.917 323.959 137.253"/><polygon class="cls-1" points="328.388 137.253 328.388 136.367 331.046 137.253 330.824 138.36 330.603 138.581 329.717 138.581 328.831 138.138 328.388 137.253"/><polygon class="cls-1" points="344.996 144.117 345.217 142.789 345.439 142.567 345.881 142.567 346.103 144.117 344.996 144.117"/><polygon class="cls-1" points="321.524 147.218 321.302 146.553 321.081 146.553 321.081 145.667 322.41 145.446 322.41 145.225 323.074 145.003 323.517 146.553 322.852 146.775 322.188 146.775 322.188 146.996 321.745 146.996 321.524 147.218"/><polygon class="cls-1" points="316.652 144.782 316.209 143.896 317.317 143.232 317.538 143.896 317.317 144.117 316.652 144.782"/><polygon class="cls-1" points="317.759 144.339 317.981 143.674 318.867 143.896 318.424 145.225 318.202 145.225 317.317 145.003 317.759 144.339"/><polygon class="cls-1" points="319.531 144.117 317.981 143.01 319.531 141.903 320.417 143.01 319.974 143.674 319.974 143.896 319.531 144.117"/><polygon class="cls-1" points="291.409 145.446 291.188 145.003 294.73 143.896 295.616 144.339 294.509 145.003 294.287 145.225 292.516 145.667 292.295 145.225 291.409 145.446"/><polygon class="cls-1" points="356.732 148.325 356.732 148.103 357.175 147.882 357.617 148.325 356.732 148.325"/><polygon class="cls-1" points="372.896 145.446 372.675 144.56 374.668 145.003 374.446 145.667 372.896 145.446"/><polygon class="cls-1" points="377.325 146.996 377.325 146.775 377.325 146.553 377.546 146.332 378.211 146.332 378.654 146.553 378.654 146.996 377.325 147.218 377.325 146.996"/><polygon class="cls-1" points="343.667 143.896 343.889 142.789 345.217 143.01 344.996 144.117 343.667 143.896"/><polygon class="cls-1" points="406.333 137.917 406.333 137.031 409.433 137.031 409.433 137.695 406.333 137.917"/><polygon class="cls-1" points="424.823 138.32 425.708 136.327 427.037 136.327 427.258 138.098 424.823 138.32"/><polygon class="cls-1" points="427.48 137.434 427.258 136.769 430.358 136.991 430.58 138.32 428.587 138.541 428.366 137.655 427.48 137.434"/><rect class="cls-2" x="427.4797" y="135.6622" width="2.6573" height="0.8858"/><polygon class="cls-1" points="424.823 137.877 424.823 136.327 430.137 136.769 430.137 138.098 424.823 137.877"/><polygon class="cls-1" points="424.823 135.441 425.044 134.334 427.258 134.334 427.258 135.662 424.823 135.441"/><polygon class="cls-1" points="330.824 138.36 331.046 136.588 334.588 136.588 334.588 138.581 330.824 138.36"/><polygon class="cls-1" points="334.81 138.581 334.81 136.588 336.581 136.367 336.581 137.695 335.695 138.36 334.81 138.581"/><polygon class="cls-1" points="330.381 139.91 330.381 139.024 331.71 138.803 331.931 139.91 331.71 140.131 330.381 139.91"/><polygon class="cls-1" points="332.153 141.239 332.153 139.688 336.138 139.91 335.917 141.46 332.153 141.239"/><polygon class="cls-1" points="336.138 140.353 335.917 139.246 337.467 139.024 337.467 140.131 336.138 140.353"/><polygon class="cls-1" points="337.024 138.581 336.803 136.81 339.46 136.145 339.903 137.917 337.467 138.581 337.024 138.581"/><polygon class="cls-1" points="339.903 136.588 340.124 136.145 341.231 136.367 341.896 137.031 341.674 137.695 340.346 137.917 339.903 137.917 339.903 136.588"/><polygon class="cls-1" points="341.674 139.024 341.453 138.138 342.781 137.474 343.224 138.803 341.674 139.024"/><polygon class="cls-1" points="346.546 137.695 346.324 137.031 346.989 136.367 347.431 136.145 347.431 137.031 347.21 137.474 346.546 137.695"/><polygon class="cls-1" points="341.231 135.924 341.231 135.702 341.453 135.481 343.224 135.038 343.889 136.81 343.003 137.474 342.56 137.253 341.231 135.924"/><polygon class="cls-1" points="343.224 135.038 343.224 134.817 344.553 134.374 345.217 135.924 343.889 136.81 343.224 135.038"/><polygon class="cls-1" points="346.103 137.031 345.217 135.481 346.989 134.595 347.431 135.26 346.989 136.145 346.103 137.031"/><polygon class="cls-1" points="349.203 135.26 349.203 134.817 349.646 134.595 350.089 134.595 350.31 134.595 350.31 134.817 349.424 135.26 349.203 135.26"/><polygon class="cls-1" points="354.075 134.595 353.189 133.045 354.96 132.159 355.846 133.488 355.625 133.931 354.517 134.595 354.075 134.595"/><polygon class="cls-1" points="353.632 136.81 354.075 135.481 356.067 135.481 355.625 137.253 354.296 137.253 353.632 136.81"/><polygon class="cls-1" points="357.396 132.824 356.289 132.159 357.396 131.052 358.282 131.938 357.396 132.824"/><polygon class="cls-1" points="355.403 132.159 354.296 130.609 357.396 128.395 358.503 129.502 358.282 129.945 356.067 131.938 355.403 132.159"/><polygon class="cls-1" points="358.503 132.159 358.06 131.274 359.167 130.388 359.61 130.831 359.61 131.495 358.503 132.159"/><polygon class="cls-1" points="359.832 130.388 358.946 129.723 359.389 129.502 358.946 128.616 360.496 127.73 360.939 127.73 361.16 129.059 361.16 129.723 359.832 130.388"/><polygon class="cls-1" points="361.382 128.395 360.275 126.845 362.489 125.737 363.375 127.509 362.932 127.952 361.382 128.395"/><polygon class="cls-1" points="179.758 201.504 167.801 201.061 160.715 201.283 154.736 201.947 142.115 201.947 130.157 202.168 81.885 202.168 65.056 201.947 65.056 198.625 63.063 198.847 62.841 201.725 51.327 201.725 50.22 194.861 48.67 194.861 49.555 202.168 44.462 203.276 33.169 203.719 16.456 203.908 16.456 205.697 186.844 204.826 187.066 201.504 179.758 201.504"/><polygon class="cls-1" points="166.915 185.339 156.508 186.003 155.179 189.768 143.886 190.875 144.107 202.168 136.579 201.947 136.8 187.775 139.457 185.339 154.293 182.46 170.901 179.581 175.772 182.46 176.658 201.283 167.358 201.061 166.915 185.339"/><polygon class="cls-1" points="166.472 196.854 165.365 195.304 166.694 195.525 166.694 195.968 166.472 196.854"/><polygon class="cls-1" points="164.701 195.746 164.479 195.304 165.144 194.639 165.586 195.304 164.701 195.746"/><polygon class="cls-1" points="162.929 195.968 162.265 194.639 163.151 194.418 164.036 194.861 164.258 195.525 162.929 195.968"/><polygon class="cls-1" points="161.601 195.968 161.158 194.861 161.822 194.418 162.486 194.418 162.265 195.304 162.043 195.968 161.601 195.968"/><polygon class="cls-1" points="161.822 178.031 161.601 176.702 162.929 176.702 163.151 177.145 163.151 178.031 161.822 178.031"/><polygon class="cls-1" points="155.179 167.623 154.072 166.294 154.293 166.073 156.508 166.073 155.179 167.623"/><polygon class="cls-1" points="137.243 179.581 137.686 178.031 140.122 178.031 139.9 178.474 139.236 179.803 137.243 179.581"/><polygon class="cls-1" points="132.15 177.588 132.371 177.145 132.814 176.924 133.257 176.924 133.479 177.81 132.15 177.588"/><polygon class="cls-1" points="132.371 172.938 131.929 172.052 134.586 171.831 134.586 172.716 132.371 172.938"/><polygon class="cls-1" points="118.421 194.418 119.085 193.311 119.971 193.532 119.528 194.861 119.085 194.639 118.421 194.418"/><polygon class="cls-1" points="122.185 177.81 122.185 176.702 123.071 176.924 123.071 177.81 122.185 177.81"/><polygon class="cls-1" points="120.414 178.031 119.971 176.481 122.407 176.481 122.185 178.252 120.414 178.031"/><polygon class="cls-1" points="118.421 168.73 118.421 167.623 120.857 168.066 120.635 168.73 118.421 168.73"/><polygon class="cls-1" points="115.1 168.73 115.1 167.623 117.314 167.623 117.314 168.509 115.1 168.73"/><polygon class="cls-1" points="107.128 202.168 106.242 176.038 96.721 176.259 96.942 174.266 99.821 174.709 100.042 175.152 101.149 174.266 103.142 173.824 105.8 173.824 107.35 174.709 118.421 174.266 117.978 176.038 108.014 176.259 108.678 202.168 107.128 202.168"/><polygon class="cls-1" points="78.342 201.947 77.899 174.931 77.678 174.709 77.456 174.266 86.756 174.488 86.535 177.145 79.67 176.924 80.556 202.168 78.342 201.947"/><polygon class="cls-1" points="86.535 177.145 86.756 174.488 96.942 174.266 96.721 176.259 86.535 177.145"/><polygon class="cls-1" points="115.542 173.159 115.321 172.273 116.207 172.273 116.65 172.716 116.428 173.159 115.542 173.159"/><polygon class="cls-1" points="114.878 173.602 114.878 172.716 116.207 172.495 116.207 173.381 114.878 173.602"/><polygon class="cls-1" points="112.443 173.381 112.221 172.273 115.321 172.273 115.1 173.159 112.443 173.381"/><polygon class="cls-1" points="109.564 172.938 109.785 172.716 110.228 172.273 112.221 172.495 112.221 174.266 109.785 174.045 109.785 173.381 109.785 173.159 109.564 172.938"/><polygon class="cls-1" points="107.128 173.381 107.128 172.495 108.235 172.273 109.121 172.938 109.342 172.938 109.785 173.159 109.785 173.602 107.128 173.381"/><polygon class="cls-1" points="100.928 173.159 100.485 173.602 100.042 173.381 100.042 172.716 100.485 172.052 100.928 172.495 100.928 173.159"/><polygon class="cls-1" points="96.942 174.266 96.942 172.273 99.821 172.273 100.042 174.488 96.942 174.266"/><polygon class="cls-1" points="89.192 173.602 88.085 172.495 88.528 171.831 88.971 171.609 89.413 171.831 90.078 173.159 89.856 173.381 89.192 173.602"/><polygon class="cls-1" points="86.535 174.266 86.535 173.159 86.756 172.938 86.978 172.716 87.199 172.495 87.863 172.495 87.863 173.159 87.642 174.488 86.535 174.266"/><polygon class="cls-1" points="83.435 174.045 83.656 172.495 85.206 172.495 85.649 172.938 86.535 173.381 86.535 174.488 83.435 174.045"/><polygon class="cls-1" points="90.963 195.525 91.406 194.861 91.406 195.304 91.849 195.968 91.628 196.632 91.185 196.632 90.963 196.189 90.963 195.525"/><polygon class="cls-1" points="90.078 193.975 90.299 193.532 90.963 193.532 91.185 194.639 91.185 194.861 90.963 195.082 90.742 194.861 90.299 194.639 90.078 194.418 90.078 193.975"/><polygon class="cls-1" points="89.192 195.968 88.971 195.746 88.306 195.304 89.192 194.861 89.635 195.304 89.413 195.525 89.192 195.968"/><polygon class="cls-1" points="88.971 193.975 89.192 193.532 89.635 193.532 89.635 194.196 89.192 194.196 88.971 193.975"/><polygon class="cls-1" points="63.284 194.418 62.841 173.824 70.149 174.488 71.699 174.045 72.363 174.266 72.363 176.481 64.17 177.367 64.834 194.196 63.284 194.418"/><polygon class="cls-1" points="63.284 194.196 48.448 194.639 48.227 191.982 50.22 191.982 50.22 193.089 60.406 192.868 60.406 191.761 61.956 191.539 61.513 186.889 59.963 186.667 59.963 185.117 61.513 185.117 61.291 180.467 59.963 180.245 59.741 179.803 60.184 178.917 61.291 178.695 60.627 173.824 48.67 173.824 48.67 171.831 62.177 171.609 63.284 194.196"/><polygon class="cls-1" points="63.284 198.625 63.284 197.518 65.056 197.518 64.834 198.625 63.284 198.625"/><polygon class="cls-1" points="68.599 197.739 68.82 197.297 69.042 197.297 69.263 197.297 69.484 197.518 69.484 198.182 68.82 198.182 68.599 197.739"/><polygon class="cls-1" points="67.713 197.518 68.156 196.632 68.599 197.297 68.377 197.518 67.934 197.961 67.713 197.518"/><polygon class="cls-1" points="65.499 198.625 65.499 197.739 66.606 197.518 66.606 198.625 65.499 198.625"/><polygon class="cls-1" points="67.27 196.411 67.713 195.304 68.377 195.968 68.377 196.632 67.713 196.632 67.27 196.411"/><polygon class="cls-1" points="65.72 195.968 65.72 195.082 67.492 195.304 67.492 195.968 65.72 195.968"/><polygon class="cls-1" points="65.942 195.082 65.942 194.418 66.384 194.196 67.27 193.975 67.492 194.418 67.492 194.861 67.27 195.082 65.942 195.082"/><polygon class="cls-1" points="66.163 194.196 65.72 193.975 66.163 193.754 66.606 193.532 66.827 193.975 66.163 194.196"/><polygon class="cls-1" points="66.827 193.532 67.049 192.868 67.934 193.089 67.713 193.754 66.827 193.532"/><polygon class="cls-1" points="53.763 168.73 54.206 168.066 56.863 168.287 57.084 168.952 55.534 169.395 55.313 169.616 54.427 169.616 53.763 168.73"/><polygon class="cls-1" points="51.105 169.173 51.991 167.623 53.32 168.509 53.541 169.173 53.984 169.616 53.541 170.28 51.105 169.173"/><polygon class="cls-1" points="40.255 195.968 40.477 194.861 42.248 195.082 42.248 196.189 40.255 195.968"/><polygon class="cls-1" points="40.698 178.474 41.362 177.367 43.134 178.252 42.691 179.138 42.248 179.36 41.362 178.695 40.698 178.474"/><polygon class="cls-1" points="40.919 176.924 40.698 175.595 41.805 175.152 42.47 175.152 42.248 176.481 42.027 176.924 40.919 176.924"/><polygon class="cls-1" points="22.541 176.702 22.319 175.152 23.205 174.709 23.426 176.481 22.541 176.702"/><polygon class="cls-1" points="19.883 176.481 19.883 175.817 20.326 176.038 20.548 176.038 22.541 176.259 22.541 176.924 19.883 176.481"/><polygon class="cls-1" points="32.948 168.73 32.948 168.287 34.498 168.287 34.719 168.509 35.605 168.509 35.826 169.173 35.605 169.838 34.941 170.28 32.948 169.838 32.948 168.73"/><polygon class="cls-1" points="30.955 170.28 30.734 168.287 31.177 168.509 31.619 168.287 32.284 168.509 33.169 169.173 32.062 170.502 30.955 170.28"/><polygon class="cls-1" points="28.741 169.173 28.962 168.509 29.405 167.845 30.734 169.616 30.069 169.838 28.741 169.173"/><polygon class="cls-1" points="30.291 201.947 30.734 199.733 32.284 197.961 35.605 197.518 36.712 199.29 35.826 201.283 34.277 203.054 32.948 203.94 30.734 203.718 30.291 201.947"/><polygon class="cls-1" points="211.202 139.943 211.866 138.835 213.416 139.057 213.416 140.385 211.645 140.385 211.202 139.943"/><polygon class="cls-1" points="209.652 137.507 209.873 137.285 210.537 137.285 210.759 137.728 210.095 137.95 209.652 137.507"/><polygon class="cls-1" points="204.559 139.5 202.566 135.957 206.773 135.292 207.437 139.278 204.559 139.5"/><polygon class="cls-1" points="203.673 143.707 203.23 142.6 204.559 141.936 205.223 142.821 203.673 143.707"/><polygon class="cls-1" points="207.88 146.807 208.102 144.15 210.537 144.15 210.98 144.15 210.98 144.593 210.537 147.25 207.88 146.807"/><polygon class="cls-1" points="196.366 142.821 196.587 142.157 197.251 142.378 197.694 142.821 197.251 143.264 196.366 142.821"/><polygon class="cls-1" points="195.48 143.929 195.258 143.043 196.144 143.486 195.48 143.929"/><rect class="cls-2" x="189.4341" y="141.2042" width="0.7984" height="0.7984" transform="translate(-46.6645 129.0736) rotate(-33.6878)"/><polygon class="cls-1" points="186.623 142.378 186.623 141.493 187.287 141.936 187.287 142.6 186.623 142.378"/><polygon class="cls-1" points="187.066 140.385 186.623 139.057 187.066 138.835 187.73 139.721 187.066 140.385"/><polygon class="cls-1" points="186.844 138.835 186.401 138.392 186.623 138.171 186.623 137.507 187.287 138.392 186.844 138.835"/><polygon class="cls-1" points="170.901 143.707 171.344 142.378 172.008 142.378 172.672 143.043 172.672 144.15 172.229 145.257 170.901 143.707"/><polygon class="cls-1" points="172.672 140.607 172.229 139.943 172.672 139.5 173.337 139.721 173.558 140.385 172.894 140.607 172.672 140.607"/><polygon class="cls-1" points="165.586 143.707 165.144 143.264 165.808 142.821 166.472 143.043 166.251 143.707 165.586 143.707"/><polygon class="cls-1" points="156.065 141.05 156.065 139.5 160.715 139.721 160.936 141.05 156.065 141.05"/><polygon class="cls-1" points="165.144 136.178 165.365 135.514 165.808 135.735 165.144 136.178"/><polygon class="cls-1" points="165.144 135.514 164.922 134.628 166.029 134.628 166.029 135.071 165.808 135.514 165.144 135.514"/><polygon class="cls-1" points="154.958 133.521 154.736 133.299 156.286 132.856 156.508 133.299 154.958 133.521"/><polygon class="cls-1" points="150.307 134.185 150.086 133.964 151.193 133.742 151.193 134.406 151.193 134.628 150.75 134.849 150.307 134.849 150.307 134.185"/><polygon class="cls-1" points="148.093 138.835 148.093 138.171 148.315 137.728 149.422 137.95 149.643 138.392 149.422 139.057 148.093 139.057 148.093 138.835"/><polygon class="cls-1" points="146.322 138.835 146.543 138.171 147.872 138.392 147.65 139.057 146.543 139.057 146.322 138.835"/><polygon class="cls-1" points="137.464 139.057 137.464 138.392 138.572 138.171 138.572 138.835 137.464 139.057"/><polygon class="cls-1" points="131.929 140.164 131.929 139.5 133.036 139.721 133.036 139.943 133.257 140.607 131.929 140.164"/><polygon class="cls-1" points="144.772 138.835 144.993 137.95 146.1 137.95 145.879 139.278 145.436 140.385 144.993 139.721 144.772 138.835"/><polygon class="cls-1" points="139.457 140.828 139.236 139.5 141.45 139.943 142.779 140.828 139.457 140.828"/><polygon class="cls-1" points="88.971 141.714 89.192 140.385 90.521 140.385 90.963 140.828 90.742 142.157 89.635 142.378 88.971 141.714"/><polygon class="cls-1" points="85.649 144.593 85.428 143.929 86.313 143.707 86.535 144.371 85.649 144.593"/><polygon class="cls-1" points="85.428 143.264 85.428 142.821 85.649 143.264 86.092 143.264 86.313 143.707 85.428 143.929 85.428 143.264"/><polygon class="cls-1" points="83.213 142.6 83.213 141.05 83.656 140.828 83.878 142.157 86.313 142.157 86.313 142.6 83.213 142.6"/><polygon class="cls-1" points="82.992 140.607 82.992 139.943 83.656 140.164 82.992 140.607"/><polygon class="cls-1" points="84.542 140.828 84.099 140.164 85.206 139.721 85.206 140.607 84.542 140.828"/><polygon class="cls-1" points="84.763 141.493 84.542 141.05 85.206 140.828 84.985 141.714 84.763 141.493"/><polygon class="cls-1" points="83.878 141.05 83.435 140.607 83.878 140.607 84.542 140.828 83.878 141.05"/><rect class="cls-2" x="59.9629" y="141.0498" width="1.9928" height="1.5501"/><polygon class="cls-1" points="59.963 140.385 60.406 139.721 61.291 140.164 61.291 140.828 60.406 140.828 59.963 140.385"/><polygon class="cls-1" points="60.627 139.5 60.406 138.614 61.513 138.835 61.291 139.5 60.627 139.5"/><polygon class="cls-1" points="46.012 143.707 46.234 142.378 47.341 143.043 46.012 143.707"/><polygon class="cls-1" points="136.357 131.306 136.579 130.42 138.572 131.306 138.793 132.192 136.8 131.528 136.357 131.306"/><polygon class="cls-1" points="138.129 130.863 138.35 130.42 138.793 130.199 139.014 130.863 138.793 131.306 138.129 130.863"/><polygon class="cls-1" points="119.971 143.929 120.414 143.043 121.3 143.264 121.078 143.707 120.857 144.15 120.193 144.15 119.971 143.929"/><polygon class="cls-1" points="118.643 143.929 118.864 143.486 119.528 143.486 119.75 144.15 118.643 144.371 118.643 143.929"/><polygon class="cls-1" points="105.8 141.936 107.128 137.507 110.671 137.285 113.328 137.95 111.778 143.043 109.121 142.821 105.8 141.936"/><polygon class="cls-1" points="93.178 144.814 92.956 144.593 94.285 144.814 93.842 146.364 92.956 145.257 93.178 144.814"/><polygon class="cls-1" points="83.435 139.943 83.213 139.721 85.428 139.057 85.428 139.721 83.435 139.943"/><polygon class="cls-1" points="339.017 168.698 339.238 167.812 339.681 167.147 340.788 167.369 340.346 169.14 339.238 168.919 339.017 168.698"/><polygon class="cls-1" points="340.788 168.255 341.01 167.59 341.896 167.59 342.781 168.255 343.003 169.14 341.453 169.362 341.01 168.919 340.788 168.255"/><polygon class="cls-1" points="343.003 169.362 343.003 167.812 345.66 168.033 345.217 169.362 343.003 169.362"/><polygon class="cls-1" points="353.189 170.248 353.189 168.919 354.739 168.698 355.182 169.362 355.182 169.805 354.96 170.469 354.075 170.469 353.189 170.248"/><polygon class="cls-1" points="354.517 168.698 354.739 167.369 356.51 168.255 356.289 169.583 354.517 168.698"/><polygon class="cls-1" points="355.182 170.248 355.403 169.805 356.289 170.026 356.289 170.248 355.846 170.248 355.403 170.248 355.182 170.248"/><polygon class="cls-1" points="356.732 169.805 357.396 168.476 358.282 169.805 357.175 170.469 356.732 169.805"/><polygon class="cls-1" points="356.732 170.026 357.396 168.476 358.06 169.14 357.617 170.248 356.732 170.026"/><polygon class="cls-1" points="379.096 166.705 379.096 166.483 379.761 166.262 380.425 166.926 380.868 167.59 380.646 168.919 380.204 168.919 379.982 168.033 379.539 167.369 379.096 166.705"/><polygon class="cls-1" points="380.425 166.926 381.089 165.597 381.754 165.154 382.861 165.819 383.304 167.147 383.082 167.59 382.639 167.812 382.196 168.033 381.754 168.255 380.868 167.812 380.425 166.926"/><polygon class="cls-1" points="403.011 168.919 403.454 168.033 405.447 168.033 405.447 169.805 404.783 170.469 404.118 170.469 403.233 170.248 403.011 168.919"/><polygon class="cls-1" points="417.515 169.322 417.958 168.657 419.951 169.1 419.951 169.322 419.73 169.986 417.515 170.208 417.515 169.322"/><polygon class="cls-1" points="251.772 171.576 251.994 170.912 252.658 171.133 252.215 172.241 251.772 172.241 251.772 171.576"/><polygon class="cls-1" points="233.836 170.469 234.501 169.583 235.165 169.583 235.165 170.248 234.943 170.691 234.501 170.912 233.836 170.469"/><polygon class="cls-1" points="224.315 170.026 224.315 169.362 224.757 169.14 225.643 169.14 225.422 170.469 224.757 170.469 224.315 170.026"/><polygon class="cls-1" points="212.53 169.616 212.752 169.395 213.859 169.616 213.859 170.723 212.752 170.502 212.53 169.616"/><polygon class="cls-1" points="239.372 168.255 238.708 167.59 239.151 167.147 239.815 168.255 239.372 168.255"/><polygon class="cls-1" points="203.673 173.159 203.894 172.716 205.002 172.716 205.223 173.159 205.223 173.381 203.894 173.602 203.673 173.159"/><polygon class="cls-1" points="202.566 173.159 202.566 172.938 202.787 172.495 203.894 172.938 203.894 173.381 203.452 173.824 203.009 173.602 202.566 173.159"/><polygon class="cls-1" points="200.573 173.824 200.351 173.381 201.237 172.716 201.68 173.159 200.573 173.824"/><polygon class="cls-1" points="199.244 172.938 199.466 172.495 199.909 172.495 200.573 172.495 200.794 173.159 199.466 173.381 199.244 172.938"/><polygon class="cls-1" points="198.137 168.952 198.137 168.509 198.359 168.066 199.244 168.73 199.023 169.173 198.137 168.952"/><polygon class="cls-1" points="198.58 168.287 198.58 167.623 198.801 167.402 199.909 168.066 199.687 168.73 199.466 168.73 198.58 168.287"/><polygon class="cls-1" points="149.422 167.402 150.086 166.516 150.529 166.737 150.75 166.959 150.307 167.845 149.422 167.402"/><polygon class="cls-1" points="146.765 168.066 146.765 167.623 147.208 167.18 147.65 167.402 147.429 168.509 146.765 168.066"/><polygon class="cls-1" points="145.658 167.623 145.658 166.294 146.1 166.294 146.986 166.959 145.658 167.623"/><polygon class="cls-1" points="144.993 167.845 144.772 166.959 145.214 166.516 145.658 167.402 145.436 167.845 144.993 167.845"/><polygon class="cls-1" points="141.893 167.402 141.893 166.959 142.557 166.516 143.222 167.402 143.222 167.623 143 168.066 142.557 168.066 141.893 167.402"/><polygon class="cls-1" points="140.565 169.395 140.786 168.952 141.672 168.952 141.672 170.28 140.786 170.28 140.565 169.395"/><polygon class="cls-1" points="115.321 174.931 115.985 173.824 117.314 174.488 116.207 175.374 115.321 174.931"/><polygon class="cls-1" points="110.671 175.595 110.671 174.488 111.335 174.266 113.107 174.266 113.107 174.488 113.328 174.709 113.328 174.931 113.55 175.152 113.55 175.595 110.671 175.595"/><polygon class="cls-1" points="106.021 168.287 106.242 167.845 108.014 167.623 108.235 168.287 108.235 168.73 108.014 168.952 106.464 169.173 106.021 168.73 106.021 168.287"/><polygon class="cls-1" points="109.564 169.395 109.342 168.952 110.892 169.395 110.892 169.838 110.671 169.838 110.007 169.838 109.785 169.838 109.564 169.395"/><polygon class="cls-1" points="117.093 169.173 116.871 168.73 117.093 168.509 117.314 168.509 117.536 168.509 118.643 167.402 119.085 167.623 119.307 168.287 119.307 168.73 118.643 169.395 117.757 169.395 117.093 169.173"/><polygon class="cls-1" points="412.533 169.583 411.647 167.812 412.976 167.147 413.64 167.812 414.083 168.255 414.083 169.14 412.533 169.583"/><polygon class="cls-1" points="201.459 168.952 201.68 167.623 202.344 167.845 202.344 168.952 201.459 168.952"/><polygon class="cls-1" points="203.23 168.73 202.787 168.066 203.452 167.845 203.452 168.287 203.23 168.73"/><polygon class="cls-1" points="125.95 130.642 126.171 129.756 128.386 129.978 128.386 130.642 125.95 130.642"/><polygon class="cls-1" points="292.295 171.576 279.673 171.798 279.894 177.777 278.566 177.555 278.123 169.805 286.759 169.805 292.295 169.805 292.295 171.576"/><rect class="cls-2" x="391.2752" y="136.5882" width="4.6501" height="1.3287"/><polygon class="cls-1" points="361.825 128.616 360.939 127.288 362.71 126.623 363.375 128.173 361.825 128.616"/><polygon class="cls-1" points="239.151 147.66 238.929 146.11 242.251 145.667 242.251 147.66 239.151 147.66"/><polygon class="cls-1" points="233.393 188.406 233.393 187.077 235.165 187.299 235.165 188.406 234.943 188.406 233.393 188.406"/><polygon class="cls-1" points="226.751 188.628 226.972 187.52 227.193 187.299 232.951 187.077 232.951 188.406 226.751 188.628"/><polygon class="cls-1" points="424.601 137.655 424.601 136.327 429.916 136.769 429.694 138.098 424.601 137.655"/></g><g id="wegen_GIS_" data-name="wegen (GIS)"><g id="muur"><path class="cls-3" d="M430.95,186.9809c-48.93.331-98.93-2.669-147.93.331-5,0-1,8-4,10-5,3-11,2-15.7508,2.4547"/><polyline class="cls-3" points="254.146 200.653 209.817 206.147 182.349 209.29"/><path class="cls-3" d="M19.8947,126.585c61.1258-.2731,123.1258-3.2731,184.1258-4.2731,1,0,3-2,3-4,1-16-4-33,1-48,23-3,47-2,71.4489-3.4933"/><path class="cls-3" d="M340.6875,50.3564c3.333-1.0445,7.333-3.0445,11.333-1.0445a64.3575,64.3575,0,0,1,30,31c6,12,5,25,1,38a3.193,3.193,0,0,0,3,3c15-1,30-2,44.8623-1.503"/></g><g id="weg"><path id="weg40" class="cls-4" d="M253.6622,310.0034l3.0842-23.79.8812-44.9778L256.08,201.6617a2.2742,2.2742,0,0,1,.0117-.3316l4.4294-42.0747,4.624.4866-4.4114,41.91,1.5444,39.4671c.0018.0451.0018.0928.0009.1388l-.8857,45.1742a2.37,2.37,0,0,1-.019.2532l-3.1,23.9165Z"/><path class="cls-4" d="M258.9845,213.4393,167.09,216.7616c-.064.0027-.1279.007-.191.0144l-27.9009,3.322a2.5322,2.5322,0,0,0-.2946.0549l-21.846,5.5169L61.1324,235.8414c-.0757.0144-.15.0315-.2234.0522l-34.7648,9.9651a2.3656,2.3656,0,0,0-.5343.229l-9.1539,5.3587v5.3889l11.2506-6.5867L62.08,240.3961l55.6881-10.1653c.0514-.01.1018-.0207.1523-.0334l21.7757-5.4988,27.6576-3.2932,91.7981-3.3186Z"/></g><g id="hoofdweg"><polygon class="cls-5" points="434.43 146.99 399.412 147.357 308.846 149.35 305.082 149.35 288.917 149.572 275.41 150.236 245.959 150.9 234.666 151.343 195.472 152.229 175.765 151.565 135.907 151.565 125.942 151.786 111.106 151.786 37.148 152.229 16.456 152.229 16.456 165.98 139.892 166.18 141.443 166.18 247.288 164.63 249.945 164.851 256.81 164.408 263.895 164.187 295.56 164.408 304.196 164.408 333.647 163.744 401.405 162.415 434.43 161.78 434.43 146.99"/></g></g><g id="monumenten_outline_GIS_" data-name="monumenten outline (GIS)"><path id="monumenten_outline_-_VII" data-name="monumenten outline - VII" class="cls-6" d="M235.4143,96.7091l1.3285-2.6573,1.9931-2.2144,2.6571-1.993,2.4359-1.993,2.2142-1.55,3.1-1.3287,2.8787-.8858,3.1-.8858,2.8785-.4429h5.5358l2.2143-.2214,2.6573-.2214,2.4357.2214,3.7644,1.7715,3.1.4429,2.4359.6644,2.4357.4429,2.4359,1.1072,2.4357,1.3286,1.7714,2.2145,1.1073,3.1.2214,2.6573.2215,4.8718.4428,3.3217v2.2144l-.4428,3.3217v2.6573l-.8857,2.8788-.6645,2.4359v.2214l-.8857,2.6573-1.7714,3.3217-1.55,2.2145-1.993,1.9929-2.2143,1.7716-2.2142,1.993-1.9931,1.55-2.6571,1.3287-2.8787.8858-3.3214,1.3286-2.6573.4429-2.8785.2215-2.8788-.6644-2.8785-.6643-2.6573-.8858-3.1-1.1072-2.8788-1.1072-2.6571-1.3287-2.8787-1.7715-1.7714-1.7716-1.7714-1.7716-1.55-2.2144-1.55-2.8788-.6643-2.4359-.4428-3.1-.4429-2.2144-.8857-3.5431-.2214-2.8788v-3.1l.8857-2.6574.8857-2.6573Zm60.8942,8.6364-.4428-1.993.4428-.4429-.6643-4.65.4429-1.993.2214-2.2144.4429-2.2144.8857-2.4359,1.3285-2.6574,1.1071-2.4359,1.7716-2.2144,2.4357-2.2144,1.1071-.8858.2215-.2215,3.3216-1.1072,2.657-1.1072,3.1-1.3287,3.3214-1.993,3.1-1.55,2.8785-.4429,3.543-.2214,3.7644.2214,3.7642.2215,3.9859.8858,3.3216.6643,3.5428,1.1072,3.1,1.55,2.8785,1.55,3.3216,2.6574,4.2073,3.1,3.3213,3.986,2.4359,4.65,2.4357,5.3147.8857,5.3146.2214,3.7646-.4428,4.2074-.6643,3.986-2.2142,4.8718-2.8788,4.4289-3.3214,3.5431-3.7644,2.8788-3.9859,2.4358-4.4287,1.993-4.4285,1.993-4.2073,1.1073-2.6573.4429-2.8785.2214h-1.9928l-2.6573-.2214-4.65-1.1073-3.1-.6643-3.9859-1.3287L314.466,133.69l-2.8788-1.7715-3.3213-2.8788-2.4359-1.7716-2.4357-1.7715-1.3285-2.4359-1.3288-2.4359-.8857-1.7716-.8857-3.1-.2214-2.4359-.8857-2.2144-1.1071-2.6573-.2215-.6644Z"/></g></svg>