<svg xmlns="http://www.w3.org/2000/svg" viewBox="0 0 763.3814 340.1575"><defs><style>.cls-1,.cls-2{fill:#d0d0d0;}.cls-1,.cls-3,.cls-7{fill-rule:evenodd;}.cls-3,.cls-4{fill:none;stroke-miterlimit:10;stroke-width:2px;}.cls-3{stroke:#b08a71;}.cls-4{stroke:#d0d0d0;}.cls-5{fill:#9d9d9c;}.cls-6{fill:#fbe100;}.cls-7{fill:#f39200;}</style></defs><g id="archeologie_GIS_" data-name="archeologie (GIS)"><polygon class="cls-1" points="28.426 133.448 28.426 127.69 28.648 127.469 29.091 133.448 28.426 133.448"/><polygon class="cls-1" points="29.091 132.119 29.091 128.576 31.748 125.697 39.055 125.697 40.605 129.019 40.826 133.005 38.833 136.105 34.848 137.212 30.64 135.662 29.091 132.119"/><polygon class="cls-1" points="78.027 134.112 79.577 131.676 82.234 131.233 84.892 132.119 85.334 134.334 84.227 136.769 81.349 136.991 78.913 136.105 78.027 134.112"/><polygon class="cls-1" points="75.813 146.07 75.813 144.741 77.584 144.963 77.141 146.07 75.813 146.07"/><polygon class="cls-1" points="80.906 142.748 80.906 141.641 82.456 141.863 82.456 142.97 80.906 142.748"/><polygon class="cls-1" points="92.863 128.133 92.199 123.926 103.049 123.926 102.385 132.341 99.949 134.334 96.627 134.776 93.528 132.783 92.863 128.133"/><polygon class="cls-1" points="113.235 140.091 113.899 138.32 115.007 138.32 115.228 140.091 113.235 140.091"/><polygon class="cls-1" points="116.335 136.991 117.442 135.441 117.885 135.441 118.328 136.769 117.664 137.877 116.335 136.991"/><polygon class="cls-1" points="117.885 138.098 118.107 137.212 118.771 137.212 117.885 138.32 117.885 138.098"/><polygon class="cls-1" points="122.978 131.676 122.757 125.919 123.864 125.033 124.085 131.455 122.978 131.676"/><polygon class="cls-1" points="133.386 138.984 134.05 138.098 135.378 138.984 135.157 139.427 134.493 139.427 134.05 139.427 133.386 138.984"/><polygon class="cls-1" points="159.736 126.804 159.514 125.919 160.843 125.697 160.843 126.14 160.4 126.583 159.736 126.804"/><polygon class="cls-1" points="45.477 137.212 45.698 134.998 47.691 134.998 47.469 136.548 46.805 137.212 45.477 137.212"/><polygon class="cls-1" points="51.234 135.441 51.677 133.005 52.341 134.334 51.234 135.441"/><polygon class="cls-1" points="170.365 140.534 170.143 137.655 171.25 137.655 171.472 140.534 170.365 140.534"/><polygon class="cls-1" points="166.601 135.884 166.157 134.776 167.486 134.334 167.708 134.998 166.601 135.884"/><polygon class="cls-1" points="171.915 140.534 171.472 139.205 173.686 138.541 174.129 139.87 171.915 140.534"/><polygon class="cls-1" points="172.579 138.541 172.579 138.098 173.243 137.877 173.243 138.541 172.579 138.541"/><polygon class="cls-1" points="173.908 134.334 173.908 132.341 175.679 132.341 175.679 134.112 173.908 134.334"/><polygon class="cls-1" points="175.679 132.341 176.343 131.012 177.894 130.348 179.222 130.348 180.994 131.012 181.436 132.341 180.772 133.669 179.665 134.334 178.115 134.334 176.786 134.334 175.679 134.112 175.679 132.341"/><polygon class="cls-1" points="178.336 140.091 179.001 139.205 180.772 140.091 178.336 140.091"/><polygon class="cls-1" points="178.558 141.641 178.558 140.091 179.001 140.091 179.443 140.313 179.665 140.313 180.108 140.091 179.886 141.641 178.558 141.641"/><polygon class="cls-1" points="180.329 142.306 180.108 140.313 181.879 140.313 182.101 141.863 180.329 142.306"/><polygon class="cls-1" points="179.001 141.641 179.001 141.198 182.101 141.42 182.322 141.42 182.544 142.748 182.101 142.97 179.222 142.748 179.001 141.641"/><polygon class="cls-1" points="181.658 139.648 181.658 139.205 182.544 139.205 182.987 139.427 182.987 139.87 182.765 140.313 182.322 140.534 181.658 139.648"/><polygon class="cls-1" points="182.987 140.534 183.208 139.427 183.429 139.427 183.872 139.427 183.872 139.648 184.094 139.648 184.094 140.313 183.872 140.534 182.987 140.534"/><polygon class="cls-1" points="185.201 141.198 184.979 139.87 185.644 139.648 186.529 139.648 187.194 139.648 187.194 140.977 185.422 141.198 185.201 141.198"/><polygon class="cls-1" points="185.644 139.648 184.979 139.87 184.979 140.091 184.536 140.091 184.315 139.87 184.094 139.427 184.536 138.762 185.201 138.984 185.644 139.648"/><polygon class="cls-1" points="187.637 140.091 187.637 139.427 189.408 139.427 189.408 139.648 188.08 140.755 187.637 140.091"/><polygon class="cls-1" points="188.08 136.327 188.301 135.219 188.744 134.998 188.965 134.998 189.408 134.998 189.629 135.441 189.629 135.884 189.187 136.327 188.965 136.548 188.965 136.327 188.522 136.548 188.08 136.327"/><polygon class="cls-1" points="190.515 140.755 190.515 139.87 191.18 139.427 191.622 139.648 191.844 139.87 192.065 140.091 191.622 140.755 190.737 141.198 190.515 140.977 190.515 140.755"/><polygon class="cls-1" points="202.251 136.548 202.694 130.79 208.23 130.79 208.23 135.884 202.251 136.548"/><polygon class="cls-1" points="205.351 146.513 205.13 145.627 207.565 145.627 207.565 146.513 205.351 146.513"/><polygon class="cls-1" points="207.565 146.513 207.565 145.627 209.116 145.627 208.673 146.513 207.565 146.513"/><polygon class="cls-1" points="211.109 138.32 211.109 138.098 212.216 137.212 212.88 137.212 213.323 137.877 213.544 138.541 213.323 138.984 211.552 138.984 211.109 138.32"/><polygon class="cls-1" points="214.209 130.569 214.873 123.483 221.737 123.704 221.294 131.898 219.966 135.884 218.194 135.662 216.202 134.334 214.209 130.569"/><polygon class="cls-1" points="226.166 127.69 226.387 123.926 228.38 123.704 227.495 128.133 227.495 131.898 226.609 136.105 225.723 136.105 226.166 131.676 226.166 127.69"/><polygon class="cls-1" points="228.823 139.87 227.937 139.205 229.266 137.877 229.93 137.655 230.594 138.098 228.823 139.87"/><polygon class="cls-1" points="229.93 139.87 231.037 136.769 231.702 136.991 230.816 140.091 229.93 139.87"/><polygon class="cls-1" points="228.159 137.434 227.937 136.991 229.709 136.548 229.93 137.655 229.266 137.877 228.823 137.655 228.159 137.434"/><polygon class="cls-1" points="228.823 136.105 228.823 134.334 228.823 133.669 229.045 133.669 229.93 134.334 230.152 133.891 229.93 133.448 230.152 133.448 230.816 135.662 228.823 136.105"/><polygon class="cls-1" points="230.594 134.334 229.93 131.455 231.923 131.012 232.366 132.562 231.702 134.112 230.594 134.334"/><polygon class="cls-1" points="228.823 131.012 228.602 129.462 231.037 129.462 231.037 131.233 229.266 131.455 229.266 131.233 228.823 131.012"/><polygon class="cls-1" points="238.123 139.205 238.123 138.541 238.566 137.877 240.116 137.877 241.002 139.205 238.566 139.648 238.123 139.205"/><polygon class="cls-1" points="241.002 138.984 241.445 137.212 242.552 137.434 242.552 139.205 241.002 138.984"/><polygon class="cls-1" points="238.345 136.991 238.566 136.548 239.895 136.769 239.895 137.434 239.231 137.655 238.566 137.655 238.345 136.991"/><polygon class="cls-1" points="237.459 136.991 237.459 136.327 237.681 136.105 237.902 136.105 238.566 136.327 238.123 137.212 237.681 137.212 237.459 136.991"/><polygon class="cls-1" points="238.566 135.662 237.902 134.776 238.788 134.334 239.452 134.998 239.452 135.219 239.009 135.662 238.566 135.662"/><polygon class="cls-1" points="239.452 136.548 239.009 135.884 239.009 135.662 239.452 135.219 239.452 134.998 240.338 136.105 239.895 136.548 239.452 136.548"/><polygon class="cls-1" points="235.466 131.233 235.687 131.012 236.13 131.012 236.352 131.012 236.573 130.79 236.795 131.676 236.573 132.119 236.13 132.562 235.687 132.341 235.245 131.676 235.466 131.233"/><polygon class="cls-1" points="244.767 135.884 244.323 123.04 250.966 123.04 249.859 139.648 244.545 138.541 244.767 135.884"/><polygon class="cls-1" points="249.638 135.662 250.081 133.669 250.966 133.669 250.745 135.219 250.524 135.662 249.638 135.662"/><polygon class="cls-1" points="249.416 126.362 248.752 124.369 250.524 123.926 250.966 123.926 251.852 125.476 250.966 125.919 249.416 126.362"/><polygon class="cls-1" points="250.524 135.662 250.745 135.219 250.745 135.441 251.631 135.884 251.188 136.327 250.966 136.327 250.302 137.212 249.859 136.991 250.081 136.769 250.524 135.884 250.524 135.662"/><polygon class="cls-1" points="241.888 176.187 242.331 175.522 242.773 175.522 243.216 176.851 242.552 177.072 242.109 176.851 241.888 176.187"/><polygon class="cls-1" points="244.545 172.201 244.545 171.979 245.431 171.758 245.652 172.422 245.209 172.865 244.545 172.201"/><polygon class="cls-1" points="243.438 170.65 243.659 169.765 244.102 169.543 244.545 169.543 244.545 171.093 244.323 171.315 243.88 171.093 243.438 170.65"/><polygon class="cls-1" points="242.773 177.737 242.995 177.072 243.659 176.851 244.323 177.737 243.438 178.844 243.216 179.065 242.773 178.622 242.773 177.737"/><polygon class="cls-1" points="243.88 180.394 243.659 179.287 243.88 179.065 244.323 178.844 244.545 179.065 244.767 179.065 244.767 179.73 244.545 180.173 244.323 180.394 243.88 180.394"/><polygon class="cls-1" points="243.216 176.408 243.216 175.301 243.659 175.079 244.767 175.301 244.545 176.408 243.659 176.629 243.438 176.408 243.216 176.408"/><polygon class="cls-1" points="242.995 174.636 243.438 173.529 243.88 173.529 244.323 173.972 244.323 174.194 243.88 174.636 243.438 174.858 242.995 174.636"/><polygon class="cls-1" points="244.102 172.643 244.102 172.422 244.323 172.422 245.209 173.086 244.545 173.751 243.88 173.308 244.102 172.643"/><polygon class="cls-1" points="239.452 168.215 239.674 167.55 240.338 167.107 241.002 167.107 241.223 167.329 241.666 167.55 241.888 167.772 242.109 168.436 241.666 169.1 241.002 169.543 240.338 169.765 239.674 169.1 239.452 168.215"/><polygon class="cls-1" points="233.916 167.329 233.916 166.886 234.802 166.886 234.802 167.107 234.581 167.329 233.916 167.329"/><polygon class="cls-1" points="241.445 163.564 241.666 163.121 244.102 163.564 244.323 163.786 244.323 164.007 244.323 164.671 241.888 164.007 241.445 163.564"/><polygon class="cls-1" points="243.216 162.9 243.216 162.236 244.102 162.678 244.102 163.121 243.88 163.343 243.216 163.121 243.216 162.9"/><polygon class="cls-1" points="244.102 163.564 244.102 162.678 244.767 162.678 244.767 163.121 244.767 163.786 244.102 163.564"/><rect class="cls-2" x="244.4778" y="161.9471" width="0.7985" height="0.7984" transform="translate(-26.0238 276.0732) rotate(-56.3164)"/><polygon class="cls-1" points="223.952 179.508 223.952 179.065 224.616 178.844 225.059 179.065 225.28 179.73 225.059 180.394 224.837 180.394 223.952 179.508"/><polygon class="cls-1" points="220.63 177.515 220.63 176.851 220.851 176.629 222.844 176.408 222.844 177.515 220.63 177.515"/><polygon class="cls-1" points="228.823 164.45 228.602 164.007 229.266 163.121 229.488 163.343 229.709 163.786 229.045 164.229 228.823 164.45"/><polygon class="cls-1" points="228.38 163.786 228.602 163.564 228.823 163.564 228.602 164.007 228.38 163.786"/><rect class="cls-2" x="229.5523" y="163.1862" width="0.3132" height="0.3132" transform="translate(-48.2459 210.1204) rotate(-44.969)"/><polygon class="cls-1" points="240.559 180.173 240.78 179.73 241.002 179.508 241.666 179.508 241.666 179.951 241.888 180.394 241.002 181.058 240.78 180.615 240.78 180.394 240.559 180.173"/><polygon class="cls-1" points="241.888 173.972 242.109 173.529 242.773 173.086 242.995 173.308 243.216 173.751 242.995 174.636 242.331 174.858 241.888 173.972"/><polygon class="cls-1" points="241.002 172.643 241.002 170.872 241.445 170.208 241.888 170.65 242.331 171.536 242.552 172.865 242.331 173.086 241.223 172.865 241.002 172.643"/><polygon class="cls-1" points="216.644 167.107 216.423 166.222 217.087 165.779 217.973 165.779 218.416 166.222 217.973 166.886 217.53 167.107 216.644 167.107"/><polygon class="cls-1" points="215.759 165.779 215.759 164.671 216.423 164.45 216.866 164.893 217.309 165.557 216.423 166 215.759 165.779"/><polygon class="cls-1" points="214.209 164.893 214.43 164.45 215.537 164.893 215.537 165.557 215.316 166 214.651 166 214.209 164.893"/><polygon class="cls-1" points="212.658 165.779 213.101 165.114 213.987 165.557 213.323 166.222 212.658 165.779"/><polygon class="cls-1" points="213.323 164.893 213.544 164.229 213.766 164.229 213.987 164.45 213.987 164.671 213.987 164.893 213.323 164.893"/><polygon class="cls-1" points="212.437 163.343 212.658 162.9 213.323 162.457 213.766 163.121 213.766 163.564 213.544 163.786 212.88 164.007 212.658 164.229 212.216 163.786 212.437 163.343"/><polygon class="cls-1" points="212.216 165.779 211.773 164.671 212.216 164.229 212.658 164.229 213.101 164.671 213.101 165.114 212.658 165.779 212.216 165.779"/><polygon class="cls-1" points="229.93 162.236 223.952 162.014 224.173 162.457 223.066 162.457 223.066 161.128 230.373 161.128 229.93 162.236"/><polygon class="cls-1" points="211.33 162.457 211.109 161.793 211.773 161.571 211.994 162.457 211.33 162.457"/><polygon class="cls-1" points="210.444 166.664 210.887 166.222 210.666 167.107 210.444 167.107 210.444 166.664"/><polygon class="cls-1" points="195.83 166.443 195.608 165.779 196.051 165.557 196.494 165.336 196.937 165.779 196.937 166 196.715 166.886 196.273 166.886 195.83 166.443"/><polygon class="cls-1" points="194.944 166.443 194.944 166 195.387 165.779 195.83 165.557 195.83 166.222 195.608 166.443 194.944 166.443"/><polygon class="cls-1" points="195.165 165.114 195.165 164.893 196.051 164.45 196.273 164.671 196.494 165.114 196.051 165.557 195.387 165.557 195.165 165.114"/><polygon class="cls-1" points="192.065 166.222 192.287 165.557 194.501 164.671 195.165 164.893 195.165 166 192.508 167.107 192.065 166.222"/><polygon class="cls-1" points="126.743 180.394 124.75 179.73 125.414 178.844 126.3 179.287 126.743 179.73 126.743 180.394"/><polygon class="cls-1" points="120.542 181.944 120.321 181.28 120.985 180.837 121.428 182.166 120.542 181.944"/><polygon class="cls-1" points="184.315 167.329 184.536 166.443 184.979 166.222 185.644 166.886 184.979 167.772 184.315 167.329"/><polygon class="cls-1" points="182.544 165.336 181.879 164.671 182.322 164.229 182.765 164.671 182.765 165.114 182.544 165.336"/><polygon class="cls-1" points="181.658 168.657 181.658 168.436 182.101 167.993 182.765 167.993 182.765 168.657 182.544 168.879 181.658 168.657"/><polygon class="cls-1" points="109.028 181.058 108.585 180.173 109.471 179.73 110.135 180.173 110.135 180.615 109.471 180.837 109.028 181.058"/><polygon class="cls-1" points="177.451 171.093 177.672 170.65 178.115 170.65 178.115 170.872 177.672 171.315 177.451 171.093"/><polygon class="cls-1" points="45.477 173.086 45.477 172.865 45.919 172.865 45.919 173.308 45.477 173.086"/><polygon class="cls-1" points="45.034 173.086 44.812 172.865 45.477 172.865 45.477 173.086 45.034 173.086"/><rect class="cls-2" x="44.5907" y="172.8649" width="0.2214" height="0.2214"/><rect class="cls-2" x="42.155" y="172.6434" width="1.1071" height="0.2215"/><polygon class="cls-1" points="41.491 172.865 41.491 172.422 42.155 172.422 41.934 173.086 41.491 172.865"/><polygon class="cls-1" points="40.605 172.643 40.605 172.201 41.269 172.422 41.269 172.865 40.605 172.643"/><polygon class="cls-1" points="44.591 179.951 43.262 179.951 43.262 178.844 43.041 178.844 43.041 178.401 44.591 178.401 44.591 178.844 44.591 179.951"/><polygon class="cls-1" points="39.498 172.643 39.276 171.979 40.384 172.201 40.384 172.643 39.498 172.643"/><polygon class="cls-1" points="38.169 172.643 38.169 171.979 39.276 171.979 39.498 172.643 38.169 172.643"/><polygon class="cls-1" points="34.184 172.643 34.405 172.422 38.169 171.979 38.169 172.643 34.184 172.643"/><polygon class="cls-1" points="33.962 172.865 33.298 172.865 33.076 173.751 32.412 173.751 32.412 173.086 32.19 172.865 29.091 172.643 29.091 172.422 33.962 172.422 33.962 172.865"/><polygon class="cls-1" points="29.976 174.194 29.312 173.972 29.755 173.972 29.976 173.751 29.976 174.194"/><polygon class="cls-1" points="30.198 173.529 30.419 173.086 30.64 173.751 30.419 173.972 30.198 173.529"/><polygon class="cls-1" points="28.869 173.972 28.869 172.865 30.198 172.865 30.419 173.086 29.976 173.751 29.755 173.972 29.312 173.972 28.869 173.972"/><polygon class="cls-1" points="33.076 179.73 31.969 179.73 31.969 178.844 31.748 178.844 31.748 178.401 31.969 178.401 33.298 178.401 33.298 178.622 33.298 178.844 33.076 178.844 33.076 179.73"/><polygon class="cls-1" points="30.862 179.287 27.762 179.508 27.762 179.065 28.426 178.844 28.426 179.065 28.648 178.844 29.091 178.844 29.755 179.065 30.198 178.844 30.419 178.844 30.862 178.844 30.862 179.287"/><polygon class="cls-1" points="29.091 178.844 28.869 178.844 29.755 178.401 29.976 178.622 31.305 178.844 31.305 179.287 30.862 179.287 30.862 178.844 30.419 178.844 30.198 178.844 29.755 179.065 29.091 178.844"/><polygon class="cls-1" points="26.655 179.73 26.655 179.287 27.762 179.508 30.862 179.287 31.305 179.287 31.748 178.844 31.748 179.951 26.876 180.173 26.655 179.73"/><polygon class="cls-1" points="114.785 136.105 115.007 135.884 115.228 135.662 115.671 135.662 116.114 135.884 116.335 135.884 116.335 136.105 116.114 136.327 115.892 136.327 115.228 136.548 115.007 136.327 114.785 136.105"/><polygon class="cls-1" points="189.851 142.527 189.408 141.863 190.072 141.641 190.515 141.863 190.294 142.527 189.851 142.527"/><polygon class="cls-1" points="206.901 136.769 206.68 136.548 208.008 135.884 208.008 136.548 207.565 136.769 206.901 136.991 206.901 136.769"/><polygon class="cls-1" points="209.337 136.548 209.558 135.219 210.223 135.441 210.444 135.884 210.666 136.327 210.444 136.548 209.337 136.548"/><polygon class="cls-1" points="225.059 147.399 225.059 147.177 225.723 146.956 226.387 147.177 226.609 147.399 225.059 147.399"/><polygon class="cls-1" points="80.242 187.702 80.02 187.702 80.906 187.037 81.127 187.259 80.242 187.702"/><polygon class="cls-1" points="171.472 138.984 171.693 138.541 173.022 138.541 173.686 138.541 173.686 140.091 171.472 140.091 171.472 138.984"/><polygon class="cls-1" points="213.323 146.292 212.658 145.184 212.88 144.963 213.323 144.963 214.209 145.406 213.987 145.849 213.323 146.292"/><polygon class="cls-1" points="265.707 137.15 265.043 135.6 265.929 135.157 266.593 136.043 266.593 136.707 265.707 137.15"/><polygon class="cls-1" points="267.036 138.478 266.814 136.707 268.365 136.707 268.143 138.478 267.036 138.478"/><polygon class="cls-1" points="264.157 146.008 263.715 142.686 280.1 141.357 281.429 149.329 265.707 147.779 264.157 146.008"/><polygon class="cls-1" points="272.35 148.886 272.571 148.665 273.014 148.886 272.35 148.886"/><polygon class="cls-1" points="279.879 134.492 279.879 131.614 283.643 131.392 283.865 134.271 279.879 134.492"/><polygon class="cls-1" points="283.2 144.679 280.765 143.35 281.208 142.907 281.429 142.464 281.651 142.464 283.865 141.357 284.086 143.35 283.2 144.679"/><polygon class="cls-1" points="281.651 146.008 281.872 144.9 282.979 144.679 283.422 145.786 281.651 146.008"/><polygon class="cls-1" points="283.422 145.786 283.2 144.9 284.086 144.679 284.086 145.343 283.422 145.786"/><polygon class="cls-1" points="285.415 143.572 284.972 142.686 285.636 142.243 286.079 143.129 286.079 143.572 285.415 143.572"/><polygon class="cls-1" points="286.079 144.015 286.744 143.129 287.629 142.907 287.85 143.793 286.744 144.679 286.079 144.015"/><polygon class="cls-1" points="288.515 142.243 288.736 141.579 289.844 144.015 289.179 144.236 288.958 143.572 288.515 142.243"/><polygon class="cls-1" points="289.622 146.008 287.186 144.9 288.293 143.572 290.065 144.015 289.622 146.008"/><polygon class="cls-1" points="297.151 126.963 296.93 126.078 298.922 125.192 299.365 125.635 299.365 126.078 297.151 126.963"/><polygon class="cls-1" points="296.265 136.707 297.151 135.157 299.144 136.264 298.479 137.814 296.265 136.707"/><polygon class="cls-1" points="321.508 139.364 321.73 137.593 323.28 138.036 323.059 139.586 321.508 139.364"/><polygon class="cls-1" points="314.201 84.889 313.758 81.346 317.744 80.239 317.966 83.782 314.201 84.889"/><polygon class="cls-1" points="314.866 84.667 313.315 83.56 314.866 82.674 315.53 83.339 314.866 84.667"/><polygon class="cls-1" points="311.322 152.872 310.437 152.208 312.43 151.765 312.651 152.208 311.544 152.872 311.322 152.872"/><polygon class="cls-1" points="313.758 150.879 313.98 149.994 315.308 149.772 314.866 151.322 313.758 150.879"/><polygon class="cls-1" points="315.53 149.329 315.751 148.222 316.858 148.443 316.415 149.329 315.53 149.329"/><polygon class="cls-1" points="316.194 149.772 316.858 148.886 317.966 149.108 317.966 149.994 317.744 150.658 316.194 150.436 316.194 149.772"/><polygon class="cls-1" points="334.573 151.765 334.794 151.101 335.237 150.879 335.237 151.765 334.573 151.765"/><polygon class="cls-1" points="334.794 152.208 335.016 151.765 335.459 151.322 336.123 151.765 336.123 152.429 335.016 152.651 334.794 152.208"/><polygon class="cls-1" points="337.895 153.758 337.009 151.987 338.116 151.322 338.78 152.208 337.895 153.758"/><polygon class="cls-1" points="346.088 150.879 346.53 149.994 347.194 149.772 347.416 150.215 346.973 151.101 346.088 150.879"/><polygon class="cls-1" points="346.973 151.765 347.416 149.994 349.409 150.436 348.745 152.208 346.973 151.765"/><polygon class="cls-1" points="348.745 150.215 348.745 149.994 349.852 149.329 350.073 149.772 349.852 150.215 348.745 150.215"/><polygon class="cls-1" points="350.516 152.429 349.63 151.544 350.738 151.544 350.959 151.765 350.516 152.429"/><polygon class="cls-1" points="349.852 151.322 350.073 150.436 352.509 148.443 352.066 151.987 349.852 151.322"/><polygon class="cls-1" points="350.516 155.973 349.409 155.308 350.738 153.758 351.623 154.422 350.516 155.973"/><rect class="cls-2" x="352.5091" y="149.1078" width="0.4428" height="0.8858"/><polygon class="cls-1" points="352.952 149.551 353.173 148.886 354.945 148.222 355.609 148.886 355.831 149.551 355.609 150.215 353.395 149.994 352.952 149.551"/><polygon class="cls-1" points="354.818 152.588 355.483 151.48 356.369 151.038 357.254 152.145 356.59 153.031 354.818 152.588"/><polygon class="cls-1" points="358.482 138.808 360.032 135.486 362.468 136.15 360.918 139.915 358.482 138.808"/><polygon class="cls-1" points="360.646 150.343 360.203 149.014 361.532 149.014 361.532 150.121 360.646 150.343"/><polygon class="cls-1" points="365.074 150.343 364.853 149.679 365.517 149.679 365.739 150.564 365.074 150.343"/><polygon class="cls-1" points="362.639 153.222 363.082 151.893 363.968 151.672 365.074 152.114 364.632 153.222 362.639 153.222"/><polygon class="cls-1" points="370.439 151.329 371.103 150.222 372.211 150.444 372.211 151.772 371.547 152.437 370.439 152.437 370.439 151.329"/><polygon class="cls-1" points="373.982 151.551 373.097 150.665 373.761 149.779 374.868 150.665 373.982 151.551"/><polygon class="cls-1" points="374.204 150.001 374.425 149.558 375.09 149.779 374.868 150.222 374.204 150.001"/><polygon class="cls-1" points="374.868 151.994 375.311 149.558 376.639 150.001 376.196 152.215 374.868 151.994"/><polygon class="cls-1" points="374.647 151.772 374.204 151.551 374.647 150.886 375.09 151.108 374.647 151.772"/><polygon class="cls-1" points="383.725 151.108 383.282 151.108 382.618 150.001 383.504 149.336 384.168 150.444 384.168 150.222 384.39 150.665 383.725 151.108"/><polygon class="cls-1" points="388.818 154.651 387.711 153.322 389.704 152.658 390.369 153.987 388.818 154.651"/><polygon class="cls-1" points="391.033 154.43 390.369 153.101 393.026 152.658 393.247 154.43 391.033 154.43"/><polygon class="cls-1" points="354.718 133.715 357.818 121.757 366.232 122.421 361.361 134.157 354.718 133.715"/><polygon class="cls-1" points="377.525 139.593 374.868 130.957 380.404 129.849 383.282 137.378 377.525 139.593"/><polygon class="cls-1" points="408.526 154.208 409.633 150.001 423.805 150.001 423.362 155.537 408.526 154.208"/><polygon class="cls-1" points="430.992 157.459 430.992 156.574 433.206 156.795 433.206 157.681 430.992 157.459"/><polygon class="cls-1" points="433.206 157.681 433.206 156.795 434.977 156.574 434.977 157.902 433.206 157.681"/><polygon class="cls-1" points="434.977 157.902 434.977 156.574 436.085 156.795 436.085 157.902 434.977 157.902"/><rect class="cls-2" x="436.0845" y="156.7952" width="1.1069" height="1.1072"/><polygon class="cls-1" points="437.108 157.693 437.108 156.586 443.972 157.029 443.751 158.136 437.108 157.693"/><polygon class="cls-1" points="443.751 158.136 443.972 157.029 445.301 157.25 445.301 158.357 443.751 158.136"/><polygon class="cls-1" points="445.301 158.357 445.301 157.25 454.823 158.357 454.823 159.243 445.301 158.357"/><polygon class="cls-1" points="454.823 159.243 454.823 158.357 455.929 158.357 455.708 159.465 454.823 159.243"/><polygon class="cls-1" points="455.708 159.465 455.929 158.357 457.258 158.357 457.48 159.243 455.708 159.465"/><polygon class="cls-1" points="457.48 159.243 457.258 158.357 458.144 158.357 457.922 159.243 457.48 159.243"/><polygon class="cls-1" points="455.929 161.9 455.487 161.236 456.151 161.015 456.594 161.458 455.929 161.9"/><polygon class="cls-1" points="456.594 161.679 456.372 160.793 456.815 161.015 456.815 161.458 456.594 161.679"/><polygon class="cls-1" points="431.776 147.565 424.026 133.614 429.562 131.621 435.319 145.793 431.776 147.565"/><polygon class="cls-1" points="448.179 150.828 449.065 134.441 456.151 132.891 461.687 140.199 458.808 150.164 448.179 150.828"/><polygon class="cls-1" points="450.394 146.399 450.836 140.199 457.037 139.535 456.372 146.842 450.394 146.399"/><polygon class="cls-1" points="462.794 162.343 463.015 161.236 463.679 161.458 463.901 162.122 463.237 162.565 462.794 162.343"/><polygon class="cls-1" points="467.666 156.807 466.337 155.921 467.223 155.036 468.551 155.921 467.666 156.807"/><polygon class="cls-1" points="467.223 155.257 467.444 154.15 468.108 154.371 468.108 155.257 467.223 155.257"/><polygon class="cls-1" points="463.901 154.593 463.679 153.707 463.679 153.486 463.679 152.378 464.344 151.714 464.787 152.157 465.008 153.264 465.23 153.264 465.451 154.371 463.901 154.593"/><polygon class="cls-1" points="469.88 162.343 470.766 155.036 493.352 155.7 494.016 163.008 469.88 162.343"/><polygon class="cls-1" points="476.744 160.793 476.523 159.243 477.187 159.686 478.294 159.686 478.294 160.793 476.744 160.793"/><polygon class="cls-1" points="478.294 161.236 478.294 159.243 480.509 159.465 480.73 160.572 480.287 161.236 478.294 161.236"/><polygon class="cls-1" points="478.737 159.243 479.18 158.8 479.623 158.579 480.066 158.8 480.066 159.022 480.066 159.465 478.737 159.243"/><polygon class="cls-1" points="480.509 160.35 480.952 159.686 482.28 159.686 482.059 160.572 480.509 160.35"/><rect class="cls-2" x="481.9401" y="160.2318" width="1.5658" height="1.5657" transform="translate(255.0003 616.0856) rotate(-81.8625)"/><polygon class="cls-1" points="482.723 157.693 482.945 156.807 483.83 157.472 482.723 157.693"/><polygon class="cls-1" points="486.93 156.586 487.152 155.921 488.48 156.143 488.038 156.807 486.93 156.586"/><polygon class="cls-1" points="479.844 152.821 479.844 152.157 480.509 152.157 480.952 152.6 480.509 153.264 479.844 152.821"/><polygon class="cls-1" points="481.837 153.486 481.173 152.157 482.723 152.157 482.945 153.043 481.837 153.486"/><polygon class="cls-1" points="473.865 145.735 473.644 142.635 490.03 142.856 489.809 154.814 486.266 155.257 486.709 146.178 473.865 145.735"/><polygon class="cls-1" points="468.108 148.171 467.223 141.306 470.323 141.085 471.208 147.728 468.108 148.171"/><polygon class="cls-1" points="457.922 131.563 457.258 128.905 499.773 129.791 498.445 132.67 457.922 131.563"/><polygon class="cls-1" points="488.923 139.756 488.923 138.87 490.03 138.427 490.473 138.87 490.252 139.756 488.923 139.756"/><polygon class="cls-1" points="498.002 158.357 498.445 133.777 507.745 135.327 506.859 156.807 498.002 158.357"/><polygon class="cls-1" points="511.952 126.912 511.952 125.584 513.502 125.805 513.502 127.134 511.952 126.912"/><polygon class="cls-1" points="513.945 126.912 513.724 126.469 514.388 125.805 514.609 127.134 513.945 126.912"/><polygon class="cls-1" points="514.831 128.462 514.609 125.805 515.716 125.805 515.938 128.241 514.831 128.462"/><polygon class="cls-1" points="515.938 127.134 515.938 126.469 516.602 126.691 516.381 127.577 515.938 127.134"/><polygon class="cls-1" points="513.945 135.106 515.273 130.012 524.795 131.563 525.238 136.434 513.945 135.106"/><polygon class="cls-1" points="514.609 140.42 514.609 139.756 515.052 139.535 515.052 139.756 516.16 139.756 516.16 140.199 514.609 140.42"/><polygon class="cls-1" points="515.052 137.763 515.052 137.542 516.16 137.542 516.16 139.756 515.052 139.756 515.052 139.535 515.052 137.763"/><polygon class="cls-1" points="514.388 145.071 514.388 140.642 516.381 140.42 516.824 144.849 514.388 145.071"/><polygon class="cls-1" points="507.523 152.6 507.966 147.728 516.602 147.507 516.381 151.493 507.523 152.6"/><polygon class="cls-1" points="517.931 151.271 518.374 150.828 518.817 150.385 518.817 151.271 517.931 151.271"/><polygon class="cls-1" points="528.117 147.507 526.788 146.621 527.231 146.178 527.674 146.399 528.56 147.064 528.117 147.507"/><polygon class="cls-1" points="533.431 125.584 533.431 125.141 533.874 124.919 533.874 125.584 533.874 128.241 533.874 129.57 534.317 129.57 534.317 130.012 533.431 129.791 533.431 125.584"/><polygon class="cls-1" points="534.981 130.455 534.981 128.905 535.867 128.905 536.31 128.905 536.531 130.234 536.088 130.234 534.981 130.455"/><polygon class="cls-1" points="534.981 147.507 535.203 146.842 535.867 146.842 535.867 147.507 535.645 147.728 534.981 147.507"/><polygon class="cls-1" points="535.203 156.807 534.76 148.171 538.081 148.614 539.41 156.807 535.203 156.807"/><polygon class="cls-1" points="538.081 156.586 537.86 156.143 540.296 156.364 540.296 157.029 538.081 156.586"/><polygon class="cls-1" points="426.157 141.819 425.935 140.934 448.743 132.297 448.743 133.404 426.157 141.819"/><polygon class="cls-1" points="541.624 161.236 541.403 160.793 541.846 160.35 542.067 160.35 542.51 160.793 541.624 161.236"/><polygon class="cls-1" points="543.617 157.029 542.953 157.029 543.395 156.586 543.617 156.807 543.617 157.029"/><polygon class="cls-1" points="544.503 156.143 543.838 155.921 544.281 155.479 544.503 156.143"/><polygon class="cls-1" points="545.831 157.029 544.946 156.586 546.053 156.143 545.831 157.029"/><polygon class="cls-1" points="542.067 151.05 542.289 150.607 542.731 150.828 542.51 151.05 542.067 151.05"/><polygon class="cls-1" points="541.403 149.278 541.403 148.835 542.067 148.392 542.731 149.057 542.51 149.5 541.403 149.278"/><polygon class="cls-1" points="542.731 147.507 542.731 147.064 543.174 147.064 543.395 147.949 542.731 147.507"/><polygon class="cls-1" points="542.067 147.064 542.067 146.621 542.289 146.399 542.731 146.621 542.289 147.064 542.067 147.064"/><polygon class="cls-1" points="543.395 146.399 542.731 145.956 542.953 145.514 543.617 145.956 543.395 146.399"/><polygon class="cls-1" points="539.41 135.549 539.189 132.67 549.817 132.005 549.817 134.441 539.41 135.549"/><polygon class="cls-1" points="548.488 155.921 548.71 153.928 562.661 152.821 561.332 155.479 548.488 155.921"/><polygon class="cls-1" points="552.253 152.157 552.032 152.157 552.475 151.714 552.253 152.157"/><polygon class="cls-1" points="554.024 145.956 554.024 142.856 563.325 143.521 563.103 145.514 554.024 145.956"/><polygon class="cls-1" points="555.574 138.206 554.246 128.905 569.303 130.012 569.746 137.763 555.574 138.206"/><polygon class="cls-1" points="558.896 137.984 558.896 136.656 561.332 136.656 561.553 137.542 560.889 138.206 560.225 138.206 560.225 137.984 558.896 137.984"/><polygon class="cls-1" points="563.767 148.614 563.546 147.064 564.21 147.064 564.653 147.728 564.432 148.614 563.767 148.614"/><polygon class="cls-1" points="561.774 156.807 561.774 155.921 562.439 155.479 563.325 155.7 563.546 156.807 563.103 157.472 562.218 157.472 561.774 156.807"/><polygon class="cls-1" points="569.525 155.921 569.525 155.479 569.968 155.036 570.411 155.479 569.746 156.143 569.525 155.921"/><polygon class="cls-1" points="570.897 154.601 570.675 153.494 577.761 152.829 577.983 153.937 570.897 154.601"/><polygon class="cls-1" points="571.561 155.265 571.561 154.822 572.004 154.822 572.225 155.265 571.561 155.265"/><polygon class="cls-1" points="571.561 156.151 571.783 155.487 572.004 155.487 573.111 155.487 572.668 156.594 571.561 156.594 571.561 156.151"/><polygon class="cls-1" points="573.111 156.372 573.111 155.487 574.219 154.822 574.44 154.822 574.661 156.372 573.111 156.372"/><polygon class="cls-1" points="574.661 156.372 574.44 154.822 575.547 154.822 575.547 156.594 574.661 156.372"/><polygon class="cls-1" points="571.783 156.372 571.561 155.708 573.111 155.708 572.89 156.372 571.783 156.372"/><polygon class="cls-1" points="573.332 156.151 573.332 155.708 575.104 155.044 575.325 155.265 575.325 156.372 574.44 156.815 573.997 156.815 573.332 156.151"/><polygon class="cls-1" points="572.225 155.708 572.004 154.379 573.776 154.158 574.219 155.265 572.225 155.708"/><polygon class="cls-1" points="572.004 153.051 572.004 142.864 575.325 144.193 575.325 152.608 572.004 153.051"/><polygon class="cls-1" points="571.561 138.435 571.561 132.235 576.211 132.456 574.883 139.1 571.561 138.435"/><polygon class="cls-1" points="583.297 140.871 583.518 132.235 595.033 131.571 593.926 141.314 583.297 140.871"/><polygon class="cls-1" points="584.404 138.435 585.069 137.107 586.176 137.55 586.84 138.214 585.954 139.764 584.404 138.435"/><polygon class="cls-1" points="580.861 146.186 580.418 144.636 608.54 145.522 608.54 147.293 580.861 146.186"/><polygon class="cls-1" points="591.712 155.044 591.269 151.944 613.412 149.729 612.969 152.829 591.712 155.044"/><polygon class="cls-1" points="592.819 155.487 592.597 155.265 593.926 155.044 593.926 155.265 592.819 155.487"/><polygon class="cls-1" points="597.69 149.729 598.133 148.843 598.797 149.286 597.69 149.729"/><polygon class="cls-1" points="599.683 149.729 599.462 149.286 600.348 148.622 601.012 149.286 601.233 149.951 599.905 150.393 599.462 149.951 599.683 149.729"/><polygon class="cls-1" points="599.019 141.757 599.24 141.536 599.905 141.536 600.79 141.979 600.348 142.864 599.019 141.757"/><polygon class="cls-1" points="600.348 141.757 600.569 139.986 603.005 140.207 603.005 141.979 600.348 141.757"/><polygon class="cls-1" points="601.454 139.986 601.454 139.321 602.341 139.321 602.119 139.986 601.454 139.986"/><polygon class="cls-1" points="601.454 139.321 601.676 138.435 602.562 138.657 602.562 139.321 601.454 139.321"/><polygon class="cls-1" points="603.226 141.979 603.005 141.314 603.89 141.314 603.89 142.2 603.226 141.979"/><polygon class="cls-1" points="600.79 136.442 600.348 134.449 602.783 134.228 603.005 136.221 600.79 136.442"/><polygon class="cls-1" points="603.005 136.221 602.783 134.228 605.219 134.007 605.219 135.778 603.005 136.221"/><polygon class="cls-1" points="605.441 136 605.219 134.007 606.547 134.007 606.99 133.785 607.212 135.778 606.769 136 605.441 136"/><polygon class="cls-1" points="603.447 137.993 603.226 136.442 606.769 136 606.99 137.771 603.447 137.993"/><polygon class="cls-1" points="607.433 136.221 607.212 133.121 612.969 133.121 612.969 136.221 607.433 136.221"/><polygon class="cls-1" points="604.998 131.349 605.219 130.242 606.105 130.463 606.547 130.906 606.547 131.571 605.441 131.349 604.998 131.349"/><polygon class="cls-1" points="606.326 130.685 605.441 130.463 605.441 131.349 604.998 131.349 605.219 130.242 606.105 130.463 606.326 130.685"/><polygon class="cls-1" points="603.669 132.235 603.669 131.571 604.333 131.792 604.333 132.235 603.669 132.235"/><polygon class="cls-1" points="613.08 154.902 615.073 149.809 621.938 150.473 622.159 154.681 613.08 154.902"/><polygon class="cls-1" points="614.298 156.815 614.519 155.265 615.184 155.487 615.405 157.037 614.298 156.815"/><polygon class="cls-1" points="619.502 153.573 620.166 152.688 621.273 153.573 619.945 154.459 619.502 153.573"/><polygon class="cls-1" points="622.823 147.515 622.823 143.75 625.259 143.529 625.923 137.993 623.93 136.885 623.709 134.671 617.066 135.114 617.066 147.736 612.416 146.629 612.859 132.014 628.58 132.899 629.245 147.958 622.823 147.515"/><polygon class="cls-1" points="613.855 133.121 614.298 129.799 615.184 130.021 614.741 133.121 613.855 133.121"/><polygon class="cls-1" points="641.866 136.442 628.802 136.664 627.916 134.892 627.916 130.242 630.352 130.463 630.131 133.342 638.324 132.899 639.431 124.927 642.752 124.927 641.866 136.442"/><polygon class="cls-1" points="654.267 137.55 649.174 138.214 648.509 144.193 646.295 144.414 645.631 138.214 640.538 137.771 639.874 142.421 637.881 142.421 638.324 135.114 654.488 135.114 654.267 137.55"/><polygon class="cls-1" points="641.645 137.55 641.645 137.107 644.967 137.107 644.967 137.771 641.645 137.55"/><polygon class="cls-1" points="650.281 154.379 649.838 153.051 651.167 152.386 652.495 152.829 652.717 153.715 650.281 154.379"/><polygon class="cls-1" points="649.174 148.4 649.174 147.515 650.503 147.736 650.503 148.622 649.174 148.4"/><polygon class="cls-1" points="651.609 148.622 651.609 147.958 652.052 147.958 652.495 148.4 652.495 148.843 651.609 148.622"/><rect class="cls-2" x="652.0586" y="146.9933" width="1.9807" height="1.4855" transform="translate(2.8472 307.5377) rotate(-26.5552)"/><polygon class="cls-1" points="650.281 143.972 650.724 143.307 651.609 143.75 651.167 144.636 650.281 143.972"/><polygon class="cls-1" points="660.024 147.736 659.36 146.186 660.689 146.407 660.91 147.736 660.024 147.736"/><polygon class="cls-1" points="661.795 146.407 660.91 144.636 662.681 144.193 663.346 145.965 661.795 146.407"/><polygon class="cls-1" points="662.46 147.515 662.903 146.629 663.346 147.736 662.903 148.179 662.46 147.515"/><polygon class="cls-1" points="663.346 145.3 662.903 144.414 664.01 143.75 665.56 145.522 664.01 146.85 663.567 145.965 663.346 145.3"/><polygon class="cls-1" points="647.845 129.356 648.067 128.692 648.288 129.356 647.845 129.356"/><polygon class="cls-1" points="648.509 129.799 648.509 129.135 649.174 129.135 649.174 130.021 648.509 129.799"/><polygon class="cls-1" points="666.224 149.286 666.446 147.736 667.553 148.179 667.553 149.508 666.224 149.286"/><polygon class="cls-1" points="667.553 149.508 667.774 147.736 669.767 147.736 669.767 149.508 667.553 149.508"/><polygon class="cls-1" points="666.224 151.058 666.446 150.172 668.881 150.393 668.881 150.836 666.224 151.058"/><polygon class="cls-1" points="669.103 150.615 669.103 149.951 670.431 149.729 670.21 151.501 669.767 151.501 669.545 150.836 669.103 150.615"/><polygon class="cls-1" points="666.667 144.414 666.224 143.75 666.888 143.307 667.331 144.414 666.667 144.414"/><polygon class="cls-1" points="667.553 142.864 657.145 140.207 658.695 133.785 664.895 133.785 665.781 127.363 669.324 127.363 667.553 142.864"/><polygon class="cls-1" points="665.338 138.657 665.338 136.221 666.446 136 666.667 134.228 667.774 134.449 667.331 139.1 665.338 138.657"/><polygon class="cls-1" points="671.096 138.878 670.874 133.785 672.203 133.564 672.424 138.878 671.096 138.878"/><polygon class="cls-1" points="670.874 133.785 671.096 130.906 671.981 130.463 672.203 133.564 670.874 133.785"/><polygon class="cls-1" points="676.41 139.764 676.853 136.664 678.182 136.885 677.739 139.986 676.41 139.764"/><rect class="cls-2" x="675.2662" y="133.4437" width="5.388" height="1.3471" transform="translate(434.1679 780.7878) rotate(-80.5338)"/><polygon class="cls-1" points="677.739 131.349 678.182 129.135 678.403 129.135 678.403 129.356 679.289 129.578 679.067 131.571 677.739 131.349"/><polygon class="cls-1" points="679.731 126.699 678.625 126.256 678.625 126.699 678.403 126.477 678.625 124.706 679.953 125.149 679.731 126.699"/><polygon class="cls-1" points="670.653 153.937 675.081 121.384 679.289 120.498 674.196 153.715 670.653 153.937"/><polygon class="cls-1" points="673.753 147.736 673.753 146.85 674.417 147.072 674.417 147.736 673.753 147.736"/><polygon class="cls-1" points="680.396 148.622 680.396 147.736 681.06 147.736 681.06 148.4 680.396 148.622"/><polygon class="cls-1" points="684.603 144.636 685.046 143.307 685.71 143.307 685.489 144.636 684.603 144.636"/><polygon class="cls-1" points="684.16 142.2 683.718 141.314 684.382 141.093 685.267 141.536 685.046 142.2 684.16 142.2"/><polygon class="cls-1" points="682.831 140.65 682.831 138.878 685.267 138.435 685.71 139.986 682.831 140.65"/><polygon class="cls-1" points="679.289 138.657 679.731 137.993 680.617 138.435 679.953 139.321 679.289 138.657"/><polygon class="cls-1" points="720.254 146.407 719.811 145.965 721.139 145.3 721.361 146.186 720.254 146.407"/><polygon class="cls-1" points="722.025 147.293 721.804 146.85 722.468 146.629 722.468 147.072 722.025 147.293"/><polygon class="cls-1" points="720.918 148.179 720.254 147.958 720.697 147.515 721.582 147.293 721.804 147.736 720.918 148.179"/><polygon class="cls-1" points="717.375 147.293 717.375 146.186 718.925 145.965 718.925 147.293 717.375 147.293"/><polygon class="cls-1" points="712.725 147.293 712.725 146.407 716.489 146.186 716.932 146.407 716.932 147.072 712.725 147.293"/><polygon class="cls-1" points="712.725 149.951 712.725 148.622 714.275 148.4 714.497 149.951 712.725 149.951"/><polygon class="cls-1" points="710.732 146.85 710.732 146.186 711.396 145.743 712.061 145.965 711.618 146.85 710.732 146.85"/><polygon class="cls-1" points="690.36 181.617 690.139 180.731 690.582 180.288 691.468 180.51 691.689 181.174 691.689 181.617 691.468 181.617 691.246 181.838 690.803 182.06 690.36 181.617"/><polygon class="cls-1" points="679.731 182.724 679.953 181.838 680.617 182.06 681.06 182.281 681.06 182.946 680.839 183.389 680.174 183.167 679.731 182.724"/><polygon class="cls-1" points="677.517 182.946 677.296 182.06 679.51 181.838 679.51 183.167 677.517 182.946"/><polygon class="cls-1" points="675.967 184.496 675.967 183.389 677.517 183.389 677.517 184.274 675.967 184.496"/><polygon class="cls-1" points="677.074 172.981 677.517 172.095 678.403 171.873 678.625 173.424 677.517 173.866 677.074 172.981"/><polygon class="cls-1" points="670.431 176.081 670.653 174.974 672.424 174.974 672.646 176.081 670.431 176.081"/><rect class="cls-2" x="664.5496" y="173.5207" width="0.9131" height="0.913" transform="translate(334.805 776.8607) rotate(-75.9513)"/><polygon class="cls-1" points="663.788 172.759 664.453 171.873 666.003 171.873 665.781 173.202 664.453 173.424 663.788 172.759"/><polygon class="cls-1" points="661.574 172.759 661.795 171.652 662.681 171.431 663.567 172.316 663.124 173.202 662.017 173.202 661.574 172.759"/><polygon class="cls-1" points="662.903 174.974 662.46 174.309 663.346 173.866 663.788 174.531 662.903 174.974"/><polygon class="cls-1" points="659.802 173.202 660.246 171.873 661.353 172.316 661.353 172.981 659.802 173.202"/><polygon class="cls-1" points="660.024 174.752 659.802 173.645 660.689 173.866 660.024 174.752"/><polygon class="cls-1" points="657.81 172.981 658.031 172.095 659.36 171.873 659.36 172.981 658.474 173.424 657.81 172.981"/><polygon class="cls-1" points="658.031 174.088 658.031 173.424 659.138 173.645 658.695 174.309 658.031 174.088"/><polygon class="cls-1" points="657.367 187.153 656.924 186.489 658.474 186.046 658.695 186.71 658.253 187.153 657.367 187.153"/><polygon class="cls-1" points="652.717 186.489 652.495 185.16 654.931 185.16 654.71 186.932 653.824 187.153 652.717 186.489"/><polygon class="cls-1" points="654.488 176.302 653.824 175.638 654.267 175.195 654.931 175.638 654.488 176.302"/><polygon class="cls-1" points="649.174 174.309 649.174 172.759 650.724 172.759 650.724 174.088 649.174 174.309"/><polygon class="cls-1" points="642.088 174.531 642.088 173.424 643.417 172.981 644.081 173.424 643.859 174.531 642.974 174.974 642.088 174.531"/><polygon class="cls-1" points="649.395 188.482 649.395 188.039 650.503 187.817 650.724 188.26 649.395 188.482"/><polygon class="cls-1" points="649.395 187.153 649.395 186.489 650.06 186.267 650.06 187.153 649.395 187.153"/><polygon class="cls-1" points="639.874 186.932 640.317 186.489 640.538 186.932 640.317 187.153 639.874 186.932"/><polygon class="cls-1" points="636.33 187.817 636.109 186.489 637.881 186.267 637.659 187.375 636.33 187.817"/><polygon class="cls-1" points="630.352 190.475 630.795 186.71 634.559 186.71 630.352 190.475"/><polygon class="cls-1" points="625.038 178.295 625.259 177.852 625.923 177.631 626.145 178.517 625.48 178.738 625.038 178.295"/><polygon class="cls-1" points="623.487 179.181 622.602 178.517 623.266 177.631 624.152 178.517 623.487 179.181"/><polygon class="cls-1" points="594.59 191.803 594.59 186.489 612.083 185.382 612.305 198.004 606.547 199.554 596.361 199.775 595.919 196.897 596.583 193.796 594.59 191.803"/><polygon class="cls-1" points="604.555 183.61 604.112 182.503 605.662 182.281 605.883 183.167 604.555 183.61"/><polygon class="cls-1" points="603.226 181.174 602.562 179.845 603.226 179.845 603.89 180.067 603.226 181.174"/><polygon class="cls-1" points="573.997 180.288 573.997 177.41 590.383 177.41 590.383 179.624 573.997 180.288"/><polygon class="cls-1" points="587.726 175.195 587.947 174.752 588.39 174.752 588.39 175.195 587.726 175.195"/><polygon class="cls-1" points="571.118 180.51 570.897 178.96 572.004 178.738 572.447 180.288 571.118 180.51"/><polygon class="cls-1" points="567.089 177.402 566.646 175.187 567.975 174.966 568.196 177.402 567.089 177.402"/><polygon class="cls-1" points="562.218 178.509 562.218 176.294 563.546 176.516 563.325 178.509 562.218 178.509"/><polygon class="cls-1" points="559.782 178.73 559.339 176.737 560.446 176.737 560.446 178.509 559.782 178.73"/><polygon class="cls-1" points="560.003 178.73 559.56 176.737 560.667 176.516 561.774 176.294 563.103 176.516 562.882 178.73 560.003 178.73"/><polygon class="cls-1" points="558.01 178.509 558.01 176.737 559.117 176.737 559.339 178.73 558.01 178.509"/><polygon class="cls-1" points="556.017 178.066 555.796 176.959 557.568 176.959 557.346 177.844 556.017 178.066"/><polygon class="cls-1" points="556.239 178.509 556.017 176.959 559.56 177.402 559.339 178.73 556.239 178.509"/><polygon class="cls-1" points="557.125 180.945 556.903 180.28 558.232 180.059 558.232 180.723 557.125 180.945"/><polygon class="cls-1" points="554.467 176.516 554.246 175.851 555.796 175.63 556.017 176.294 554.467 176.516"/><polygon class="cls-1" points="552.696 178.509 552.475 177.18 555.574 176.959 555.574 178.066 552.696 178.509"/><polygon class="cls-1" points="553.36 180.502 553.139 178.509 555.132 178.509 555.132 180.28 553.36 180.502"/><polygon class="cls-1" points="560.889 180.059 560.889 179.616 562.218 179.173 562.439 179.837 560.889 180.059"/><polygon class="cls-1" points="550.039 184.931 550.039 182.716 551.589 182.716 551.589 186.038 550.481 185.816 550.039 184.931"/><polygon class="cls-1" points="548.267 183.823 549.153 182.495 549.817 183.159 549.153 184.266 548.267 183.823"/><polygon class="cls-1" points="548.931 186.702 548.267 184.488 549.596 184.045 550.26 186.038 548.931 186.702"/><polygon class="cls-1" points="563.767 206.632 565.318 204.196 567.31 205.525 565.982 207.739 563.767 206.632"/><polygon class="cls-1" points="561.553 220.805 561.332 218.59 565.318 217.261 565.539 219.919 561.553 220.805"/><polygon class="cls-1" points="545.389 231.434 544.281 219.697 561.332 218.59 562.439 230.327 545.389 231.434"/><polygon class="cls-1" points="532.988 182.938 533.653 182.052 534.317 182.495 534.317 183.381 532.988 182.938"/><polygon class="cls-1" points="530.995 179.395 530.774 178.066 533.21 177.402 533.431 178.73 530.995 179.395"/><polygon class="cls-1" points="536.531 176.737 536.531 176.294 537.86 176.073 537.86 176.516 536.531 176.737"/><polygon class="cls-1" points="529.224 179.616 529.445 178.287 530.11 178.287 530.331 179.616 529.224 179.616"/><polygon class="cls-1" points="516.824 180.723 516.824 179.616 517.266 179.395 518.374 179.616 518.817 180.059 518.595 180.945 518.374 181.166 516.824 180.723"/><polygon class="cls-1" points="516.16 180.059 515.938 179.395 517.045 179.395 516.824 180.28 516.16 180.059"/><polygon class="cls-1" points="516.16 181.83 516.16 180.723 517.488 180.945 517.266 182.052 516.16 181.83"/><polygon class="cls-1" points="476.301 186.481 476.523 180.723 481.837 180.945 481.837 186.924 476.301 186.481"/><polygon class="cls-1" points="479.623 180.28 478.737 179.837 479.18 179.395 479.844 179.837 479.623 180.28"/><polygon class="cls-1" points="468.551 182.716 468.772 182.052 469.88 182.052 470.323 182.716 469.659 183.602 468.551 182.716"/><polygon class="cls-1" points="467.666 181.83 467.666 181.388 468.33 181.166 468.33 181.83 467.887 182.052 467.666 181.83"/><polygon class="cls-1" points="459.473 182.938 459.251 182.273 460.358 182.052 460.358 182.938 459.473 182.938"/><polygon class="cls-1" points="454.823 183.602 454.38 183.159 455.487 182.273 455.929 182.938 454.823 183.602"/><polygon class="cls-1" points="455.708 182.716 455.265 182.052 456.151 182.273 455.708 182.716"/><polygon class="cls-1" points="454.38 181.609 454.38 181.166 455.044 181.609 454.823 181.83 454.38 181.609"/><polygon class="cls-1" points="451.722 182.716 451.279 182.495 452.165 181.83 452.165 182.495 451.722 182.716"/><polygon class="cls-1" points="441.537 197.331 441.979 190.91 448.179 191.353 447.958 197.774 441.537 197.331"/><polygon class="cls-1" points="426.683 193.404 426.241 189.418 426.905 188.753 434.434 188.975 434.212 194.068 426.683 193.404"/><polygon class="cls-1" points="435.199 185.804 434.756 184.476 435.642 184.254 435.863 185.361 435.199 185.804"/><polygon class="cls-1" points="432.32 178.718 432.984 178.054 433.87 178.497 433.649 179.382 432.32 178.718"/><polygon class="cls-1" points="425.576 181.003 425.576 180.339 426.019 180.339 426.241 180.781 425.576 181.003"/><polygon class="cls-1" points="422.476 182.11 422.255 181.224 423.14 181.003 423.584 181.667 422.476 182.11"/><polygon class="cls-1" points="422.255 189.196 422.033 188.311 423.584 188.311 423.362 188.975 422.255 189.196"/><polygon class="cls-1" points="413.176 181.446 412.512 180.56 413.398 179.674 414.062 180.117 413.176 181.446"/><polygon class="cls-1" points="407.197 184.546 406.976 184.103 407.419 183.882 407.862 184.103 407.197 184.546"/><polygon class="cls-1" points="392.804 185.653 393.468 178.124 401.661 178.567 400.997 185.875 392.804 185.653"/><polygon class="cls-1" points="399.89 182.332 400.554 181.446 400.997 182.11 400.333 182.774 399.89 182.332"/><polygon class="cls-1" points="399.004 182.553 398.561 181.889 399.004 181.667 399.447 182.332 399.004 182.553"/><polygon class="cls-1" points="397.011 180.781 396.79 180.339 397.233 180.117 397.897 180.56 397.011 180.781"/><polygon class="cls-1" points="395.24 181.889 395.24 180.56 395.683 180.781 395.904 181.889 395.24 181.889"/><polygon class="cls-1" points="387.711 180.117 387.49 178.788 389.704 178.567 389.926 179.674 387.711 180.117"/><polygon class="cls-1" points="371.103 184.767 371.99 175.91 382.175 176.795 382.175 184.989 371.103 184.767"/><polygon class="cls-1" points="374.868 177.46 374.647 177.017 375.311 176.795 375.532 177.681 374.868 177.46"/><polygon class="cls-1" points="340.652 183.21 341.317 176.788 361.246 179.224 361.246 184.76 340.652 183.21"/><polygon class="cls-1" points="358.804 175.839 357.918 174.954 358.583 174.511 359.468 175.396 358.804 175.839"/><polygon class="cls-1" points="346.53 177.231 346.973 176.345 347.637 176.788 347.859 177.453 347.637 177.896 346.53 177.231"/><polygon class="cls-1" points="344.759 173.024 343.652 173.024 344.98 171.695 344.759 173.024"/><polygon class="cls-1" points="339.887 172.581 339.666 171.917 339.887 171.695 340.773 171.695 340.552 172.581 339.887 172.581"/><polygon class="cls-1" points="339.223 174.131 338.116 173.467 339.223 172.359 340.109 173.467 339.223 174.131"/><polygon class="cls-1" points="335.016 173.024 335.902 171.695 337.23 172.802 336.123 174.131 335.016 173.024"/><polygon class="cls-1" points="325.937 173.245 325.937 171.695 328.373 171.917 328.594 173.688 326.823 173.467 326.823 173.024 325.937 173.245"/><polygon class="cls-1" points="340.773 174.795 341.216 173.91 342.766 173.688 342.766 174.352 341.216 175.903 340.773 174.795"/><polygon class="cls-1" points="325.937 176.345 325.937 174.352 328.373 174.795 327.93 176.788 325.937 176.345"/><polygon class="cls-1" points="325.937 174.131 325.937 173.245 328.816 173.688 328.816 174.795 325.937 174.131"/><polygon class="cls-1" points="322.616 172.138 323.28 171.031 324.165 171.695 323.059 173.024 322.616 172.138"/><polygon class="cls-1" points="321.951 172.802 322.394 172.359 322.837 172.802 322.616 173.024 321.951 172.802"/><polygon class="cls-1" points="315.53 172.581 315.53 171.252 317.744 171.252 317.966 171.917 317.523 172.581 315.53 172.581"/><polygon class="cls-1" points="313.758 172.581 313.98 171.917 314.423 172.138 314.866 172.802 314.644 173.024 313.758 172.581"/><polygon class="cls-1" points="314.423 172.138 314.644 171.474 315.308 172.138 314.866 172.359 314.423 172.138"/><polygon class="cls-1" points="314.201 171.917 313.98 171.031 314.423 171.252 314.423 171.695 314.201 171.917"/><polygon class="cls-1" points="312.43 172.359 313.094 171.695 313.758 171.695 313.758 172.359 313.094 172.581 312.43 172.359"/><polygon class="cls-1" points="312.43 177.453 312.208 176.124 312.651 175.903 313.094 176.345 313.315 177.01 312.43 177.453"/><polygon class="cls-1" points="301.579 175.681 301.801 175.238 302.244 174.795 302.465 175.017 302.687 175.681 301.579 175.681"/><polygon class="cls-1" points="299.365 174.574 300.029 173.024 301.801 173.688 301.136 175.238 299.365 174.574"/><polygon class="cls-1" points="298.036 172.581 295.601 171.917 295.601 171.031 296.265 171.031 296.265 170.809 298.258 171.031 298.036 172.581"/><polygon class="cls-1" points="292.058 169.924 292.722 169.038 294.715 169.702 294.494 170.588 293.829 170.809 292.058 169.924"/><polygon class="cls-1" points="290.286 168.595 290.729 167.709 291.615 167.709 291.615 168.373 290.951 169.038 290.286 168.595"/><polygon class="cls-1" points="289.622 173.024 290.286 169.924 291.172 170.145 290.729 173.024 289.622 173.024"/><polygon class="cls-1" points="282.979 169.481 283.422 168.816 284.751 168.816 284.972 170.145 284.086 170.588 282.979 169.481"/><polygon class="cls-1" points="281.429 170.588 282.093 169.259 284.086 171.252 283.643 171.474 282.757 171.695 281.429 170.588"/><polygon class="cls-1" points="280.986 167.709 280.765 166.602 281.872 166.38 282.093 167.931 281.429 168.152 280.986 167.709"/><polygon class="cls-1" points="278.772 169.702 278.993 169.038 279.879 169.259 279.879 169.924 279.436 170.366 278.772 169.702"/><polygon class="cls-1" points="261.943 186.753 264.821 169.924 281.429 171.474 279.215 188.968 261.943 186.753"/><polygon class="cls-1" points="276.558 168.816 276.558 167.709 278.107 167.931 278.55 168.595 278.329 169.038 276.558 168.816"/><polygon class="cls-1" points="271.907 171.695 271.907 170.809 273.236 170.588 273.014 172.138 272.35 172.138 271.907 171.695"/><polygon class="cls-1" points="274.565 171.252 273.458 169.924 273.679 169.702 273.9 169.702 275.007 168.816 275.893 169.259 275.893 170.145 275.45 171.031 274.565 171.252"/><polygon class="cls-1" points="272.35 166.38 272.129 165.716 273.236 165.273 273.9 165.716 273.236 166.602 272.35 166.38"/><rect class="cls-2" x="268.143" y="166.6019" width="0.6645" height="0.8858"/><polygon class="cls-1" points="267.922 167.931 266.593 167.709 266.814 165.273 267.922 165.273 268.143 166.38 267.922 166.38 267.7 167.045 268.143 167.045 267.922 167.931"/><polygon class="cls-1" points="258.843 177.231 259.286 175.903 261.721 176.567 260.836 177.896 258.843 177.231"/><polygon class="cls-1" points="304.458 167.045 304.458 166.602 304.68 166.38 305.344 165.938 305.565 165.938 308.001 165.938 308.222 166.159 308.444 166.823 308.001 167.266 307.558 167.045 307.115 167.488 306.451 167.931 305.787 167.931 305.122 167.709 304.458 167.045"/><polygon class="cls-1" points="730.219 121.384 731.547 118.727 735.312 119.613 734.647 123.156 733.318 125.813 732.211 124.706 730.219 123.82 730.219 121.384"/><polygon class="cls-1" points="741.164 170.857 741.164 169.75 742.714 169.75 742.714 171.521 742.049 171.521 741.164 170.857"/><polygon class="cls-1" points="725.126 169.438 725.126 169.216 726.675 170.545 726.232 171.209 725.79 170.988 725.126 170.766 725.126 169.438"/><polygon class="cls-1" points="166.601 164.45 167.265 163.564 168.151 164.893 166.601 165.114 166.601 164.45"/><polygon class="cls-1" points="167.929 164.229 167.486 163.786 167.929 163.343 168.815 163.564 168.372 164.229 167.929 164.229"/><polygon class="cls-1" points="217.309 168.215 217.309 167.772 217.751 167.329 218.194 167.107 218.637 168.215 218.194 168.657 217.309 168.215"/><polygon class="cls-1" points="218.637 167.329 218.859 166.886 219.744 167.329 219.966 167.772 219.966 168.215 219.523 168.657 218.859 168.657 218.637 167.329"/><polygon class="cls-1" points="546.717 136.877 546.717 134.884 549.817 134.441 550.039 136.434 547.824 153.928 545.831 154.15 546.717 136.877"/><polygon class="cls-1" points="533.653 137.099 533.431 131.563 538.302 131.563 538.524 136.877 538.745 138.649 538.081 144.628 534.538 144.849 533.874 138.87 533.653 137.099"/><polygon class="cls-1" points="526.788 137.099 526.567 122.04 533.21 122.483 533.431 137.099 533.653 139.092 533.653 163.008 526.567 163.229 526.567 139.092 526.788 137.099"/><polygon class="cls-1" points="521.695 138.649 522.359 136.434 526.345 137.099 526.345 138.87 525.681 159.243 519.924 159.686 519.702 151.714 521.695 138.649"/><polygon class="cls-1" points="422.392 137.169 419.514 126.983 428.371 124.768 432.357 136.062 439.886 151.341 430.585 154.22 423.278 140.269 422.392 137.169"/><polygon class="cls-1" points="393.247 143.357 396.126 122.763 402.547 122.763 399.447 128.742 400.554 133.835 405.869 141.364 406.09 143.136 409.411 153.544 395.24 156.201 392.361 145.129 393.247 143.357"/><polygon class="cls-1" points="338.338 146.893 337.895 141.579 346.53 139.807 350.073 144.9 348.745 148.001 346.973 154.422 338.559 154.865 338.338 149.329 338.338 146.893"/><polygon class="cls-1" points="303.794 148.886 292.722 144.9 293.608 139.586 294.715 136.928 296.93 129.178 299.808 125.413 305.565 131.614 312.208 137.15 308.887 139.807 304.901 141.357 303.794 148.886"/><polygon class="cls-1" points="115.671 141.198 115.449 140.534 116.335 140.534 116.557 140.534 117.442 140.091 117.664 140.313 118.107 140.313 118.328 140.534 118.107 140.977 117.664 140.977 116.557 141.198 116.335 141.198 115.671 141.198"/><polygon class="cls-1" points="533.874 129.57 533.874 124.919 534.76 125.141 534.76 125.584 534.76 129.791 534.317 130.012 534.317 129.791 534.317 129.57 533.874 129.57"/><rect class="cls-2" x="38.1691" y="183.0513" width="0.4428" height="0.2215"/><polygon class="cls-1" points="37.505 183.051 38.169 183.051 38.169 183.273 37.505 183.051"/></g><g id="wegen_GIS_" data-name="wegen (GIS)"><g id="muur"><path class="cls-3" d="M740.3635,196.4276c-39.7458,1.8843-79.7458,1.8843-119.7458,2.8843-8,1-17,3-25,4,0-1,0-3-1-3-7,0-14-2-21,1-4,2-4,10-9,9-12-1-23-4-35-4-62,4-125,3-186-9-18,0-36,5-55,3-12-2-22-7-31.668-12.6417"/><path class="cls-3" d="M222.8434,183.0562c-69.2257.2557-137.2257,2.2557-205.7391,1.4707"/><path class="cls-3" d="M17.071,119.8987c60.5467-1.5868,120.5467-.5868,181.0948-.2267"/><path class="cls-3" d="M274.1915,75.1436c22.4262-2.8317,44.4262-.8317,67.4262,2.1683,5,1,7,7,11,10,2,2,3,5,5,7,4,5,1,11,1,16a7.5812,7.5812,0,0,0,2,4c25,3,50,1,75,1,74-1,148-1,222-2a260.2172,260.2172,0,0,1,62-11c3,0,7,1,9,4,3,5,7,5,11.8151,5.1555"/></g><g id="pad"><polyline class="cls-4" points="539.649 175.817 540.346 187.971 537.977 196.477 538.08 202.878"/></g><g id="weg"><path id="weg38" class="cls-5" d="M142.8185,292.0542l.1794-4.6475,79.6087,3.0788,23.4142-10.623,1.921,4.2348-23.9147,10.85a2.3288,2.3288,0,0,1-1.05.2064Z"/><path id="weg36" class="cls-5" d="M240.7686,241.5931a2.2815,2.2815,0,0,1,.0248-.3379l13.2863-90.35,4.6006.6767L245.439,241.6264l4.6141,39.1122,2.88,25.2536-4.62.5262-2.8787-25.2446-4.6492-39.4086A2.3751,2.3751,0,0,1,240.7686,241.5931Z"/><rect id="weg33" class="cls-5" x="208.7765" y="92.4611" width="113.189" height="4.6502" transform="translate(130.7109 342.3198) rotate(-81.1094)"/></g><g id="hoofdweg"><polygon class="cls-6" points="727.324 148.686 632.329 157.322 615.057 158.208 496.59 164.851 493.933 165.073 465.59 165.073 391.852 159.979 366.166 158.208 269.4 148.243 263.643 147.8 263.421 147.8 255.892 147.578 251.907 147.357 245.264 146.914 221.791 147.136 204.299 147.136 196.327 146.914 98.454 146.25 14.218 145.682 14.218 159.758 29.588 159.758 243.492 159.979 262.093 162.637 270.285 164.187 271.614 164.408 273.164 164.63 275.821 165.515 276.486 165.515 293.757 164.851 343.359 168.394 373.473 170.166 382.552 170.83 410.896 173.709 492.161 175.702 500.576 175.923 536.891 176.145 567.67 173.931 629.672 169.502 631.443 169.502 701.416 163.965 743.337 161.359 743.337 147.31 727.324 148.686"/></g></g><g id="monumenten_outline_GIS_" data-name="monumenten outline (GIS)"><polygon id="monumenten_outline_-_V_-_archeologie_kleur" data-name="monumenten outline - V - archeologie kleur" class="cls-1" points="694.543 119.016 695.429 117.244 697.422 115.694 699.857 115.473 712.036 114.366 714.029 114.587 716.465 117.466 719.122 118.795 720.672 120.788 721.337 123.666 720.672 139.832 720.229 142.711 717.35 142.932 696.757 144.704 695.65 144.704 690.779 142.711 694.321 121.673 694.543 119.016"/><polygon id="monumenten_outline_-_VI" data-name="monumenten outline - VI" class="cls-7" points="296.849 100.021 299.064 96.921 301.721 96.478 303.714 94.264 307.478 90.942 310.356 88.949 312.349 87.399 314.121 85.406 319.214 83.856 325.193 84.52 330.95 84.742 336.264 87.62 340.693 91.606 343.793 95.149 346.45 99.578 348 103.343 348.664 107.772 349.55 111.979 348.664 116.851 347.557 121.28 345.786 125.266 342.907 129.03 340.693 131.245 338.257 132.795 335.6 134.788 332.721 136.117 327.407 136.338 322.093 136.781 318.328 136.338 313.014 135.231 310.356 133.459 305.706 130.359 303.271 128.145 301.721 125.487 300.17 122.83 298.842 120.394 297.735 117.515 297.735 115.301 297.071 113.086 296.628 110.872 295.742 107.329 295.52 103.564 296.849 100.021"/></g></svg>